<svg width="50" height="24" viewBox="0 0 50 24" fill="none" xmlns="http://www.w3.org/2000/svg">
<g clip-path="url(#clip0_240_961)">
<path d="M28.001 -8.28179e-06C28.1434 0.0478728 28.1925 0.146014 28.1829 0.300958C28.1455 0.918356 28.1164 1.53635 28.0846 2.15404C28.0744 2.34696 28.0645 2.53987 28.0547 2.73278C28.0247 3.33323 27.9986 3.93367 27.9684 4.53412C27.9492 4.91538 27.9258 5.29635 27.9046 5.67731C27.898 5.79271 27.8986 5.793 28.0121 5.79627H28.1143C32.0189 5.79627 35.9234 5.79627 39.8278 5.79627C40.2802 5.79627 40.6943 5.91523 41.0598 6.19152C41.5263 6.54542 41.787 7.02423 41.8634 7.61664C41.9014 7.91226 41.8538 8.20371 41.8499 8.49724C41.8469 8.72088 41.8232 8.94334 41.8125 9.16728C41.7909 9.60118 41.7729 10.0354 41.7525 10.4693C41.719 11.1531 41.6845 11.8371 41.6492 12.5213C41.6243 13.0076 41.6003 13.4941 41.5743 13.9804C41.5533 14.3703 41.5425 14.7613 41.5039 15.1494C41.4334 15.8552 41.0943 16.4047 40.5361 16.8086C40.1529 17.0861 39.7229 17.2134 39.2525 17.2131C36.6111 17.2101 33.9698 17.2101 31.3286 17.2131H23.481C23.4385 17.2131 23.3956 17.2131 23.3534 17.2131C23.1928 17.2071 23.1002 17.1123 23.0996 16.9481C23.0996 16.8517 23.1035 16.7551 23.1086 16.6587C23.1206 16.4395 23.1365 16.221 23.1472 16.0018C23.1772 15.3969 23.2045 14.792 23.2341 14.1876C23.2587 13.6839 23.2851 13.1798 23.3105 12.676C23.3447 12.0054 23.3788 11.3349 23.4127 10.6644C23.4383 10.1612 23.464 9.65967 23.49 9.15984L23.5934 7.12207L23.6689 5.63509C23.703 4.96475 23.7371 4.29432 23.7711 3.62378C23.7959 3.13724 23.8196 2.651 23.8463 2.16445C23.8852 1.4507 24.3787 0.845494 25.0603 0.685494C25.9714 0.471367 26.8838 0.263486 27.7952 0.0514414C27.8551 0.0374637 27.9216 0.035382 27.9768 -0.00149536L28.001 -8.28179e-06ZM32.4725 12.8327H36.4035C36.6968 12.8327 36.9901 12.8327 37.2838 12.8327C37.391 12.8327 37.3913 12.8327 37.3961 12.7292C37.4144 12.3655 37.4315 12.0018 37.4503 11.6381C37.4614 11.4278 37.4767 11.2178 37.4869 11.0076C37.5016 10.714 37.5169 10.4205 37.5243 10.1267C37.5294 9.87538 37.3563 9.69635 37.1124 9.68594C37.0698 9.68415 37.0273 9.68594 36.9847 9.68594H27.8764C27.8551 9.68594 27.8339 9.68594 27.8126 9.68594C27.7059 9.68802 27.7056 9.68832 27.6999 9.7933C27.6834 10.1088 27.6661 10.4241 27.6508 10.7396C27.6298 11.178 27.6106 11.6163 27.5909 12.0544C27.5813 12.2561 27.5726 12.4577 27.5576 12.659C27.5444 12.8339 27.5408 12.8336 27.7044 12.8336L32.4725 12.8327Z" fill="#12B3B3"/>
<path d="M11.1572 24C11.1776 23.5661 11.1968 23.1325 11.2171 22.6986C11.2375 22.2956 11.2606 21.8926 11.2813 21.4897C11.3228 20.6879 11.364 19.8862 11.4047 19.0846C11.4143 18.8961 11.423 18.7078 11.4332 18.5196C11.4431 18.3411 11.5338 18.2492 11.707 18.2403C11.7325 18.2403 11.758 18.2403 11.7834 18.2403H15.3174C15.3387 18.2403 15.3599 18.2403 15.3812 18.2403C15.5808 18.2459 15.6808 18.3491 15.6709 18.5546C15.6548 18.9359 15.6341 19.3169 15.6146 19.6981C15.5926 20.123 15.5702 20.5479 15.5472 20.9728C15.5322 21.2577 15.5172 21.5423 15.5014 21.8269C15.4696 22.4309 15.0262 23.09 14.2888 23.2619C13.3037 23.4914 12.3183 23.7195 11.3328 23.9459C11.2885 23.9563 11.2393 23.9554 11.2085 23.9994L11.1572 24Z" fill="#E7241C"/>
<path d="M16.2821 6.29056C16.2821 6.38632 16.2857 6.469 16.2821 6.55197C16.2396 7.40213 16.1965 8.25239 16.153 9.10275C16.1196 9.7604 16.0862 10.4178 16.0526 11.0751C16.0292 11.5355 16.0053 11.9956 15.9807 12.4556C15.9778 12.4952 15.9773 12.5349 15.9792 12.5746C15.9811 12.6376 16.0058 12.6979 16.0488 12.7444C16.0917 12.7909 16.1501 12.8206 16.2132 12.828C16.2556 12.8312 16.2981 12.8319 16.3405 12.83H21.6357C21.6695 12.83 21.7037 12.83 21.7375 12.83C21.8939 12.8375 21.9889 12.9377 21.9868 13.101C21.985 13.2458 21.9778 13.3906 21.97 13.5352C21.9494 13.934 21.9257 14.3328 21.9056 14.7316C21.8685 15.4635 21.8337 16.1957 21.7969 16.9276C21.7876 17.1126 21.6932 17.2036 21.5101 17.2039C21.0421 17.2039 20.5742 17.2039 20.1064 17.2039H16.0745C16.0361 17.2039 15.9978 17.2057 15.9597 17.2039C15.836 17.1952 15.7551 17.1114 15.75 16.9841C15.7476 16.9184 15.75 16.8523 15.7548 16.7866C15.7893 16.1028 15.824 15.4188 15.8588 14.7346C15.8845 14.226 15.9102 13.7176 15.9358 13.2092C15.9386 13.1743 15.9386 13.1392 15.9358 13.1042C15.9314 13.0501 15.9094 12.9988 15.8731 12.9582C15.8368 12.9176 15.7881 12.8898 15.7344 12.8791C15.68 12.8696 15.6248 12.8653 15.5696 12.8663C14.4171 12.8663 13.2645 12.8663 12.1118 12.8663C12.0736 12.8656 12.0354 12.8668 11.9973 12.8699C11.8244 12.8886 11.7261 12.9859 11.7118 13.1652C11.6947 13.3796 11.6839 13.5944 11.6734 13.8091C11.6435 14.4095 11.6162 15.0103 11.5862 15.6107C11.5639 16.0622 11.54 16.5136 11.5146 16.9651C11.5059 17.1259 11.4292 17.2015 11.2722 17.2057C11.2381 17.2057 11.2039 17.2057 11.1701 17.2057L5.81262 17.2045C5.78715 17.2045 5.76138 17.2045 5.73591 17.2045C5.56963 17.1991 5.46866 17.0909 5.47435 16.9172C5.48004 16.7435 5.49143 16.5665 5.50072 16.3911C5.52349 15.9529 5.54636 15.5146 5.56933 15.0763C5.60348 14.4147 5.63744 13.7529 5.6712 13.0909C5.67989 12.9276 5.77457 12.836 5.93366 12.8303C5.96752 12.8303 6.00167 12.8303 6.03553 12.8303H11.3936C11.6159 12.8286 11.7285 12.7167 11.7405 12.4854C11.7483 12.3367 11.7564 12.188 11.7636 12.0393C11.7936 11.4445 11.8202 10.8467 11.8502 10.2507C11.8801 9.63718 11.9101 9.02335 11.9488 8.41011C11.9886 7.76089 12.4968 7.16342 13.14 7.01234C14.1539 6.77442 15.169 6.54008 16.1838 6.30513C16.2126 6.29621 16.2426 6.29532 16.2821 6.29056Z" fill="#E7241C"/>
<path d="M0.0458984 14.7596C0.0689689 14.3081 0.0878448 13.8567 0.110316 13.4052C0.144273 12.7174 0.178928 12.0295 0.214283 11.3416C0.238852 10.8554 0.26372 10.3692 0.288887 9.88283C0.323243 9.19941 0.357799 8.51589 0.392555 7.83227C0.417323 7.34156 0.442291 6.85086 0.467459 6.36015C0.502214 5.67673 0.53677 4.99331 0.571126 4.30989C0.595895 3.81918 0.621062 3.32848 0.64663 2.83777C0.660112 2.57933 0.664007 2.31941 0.694868 2.06305C0.764379 1.48907 1.0628 1.07539 1.55866 0.81041C1.76839 0.697696 2.00299 0.663793 2.2301 0.610261C3.05824 0.415763 3.88698 0.225428 4.71692 0.0339039C4.73759 0.0291455 4.75857 0.0249819 4.77954 0.0223054C4.93564 0.000892714 5.03691 0.0948704 5.02283 0.257844C5.01174 0.384833 5.01144 0.51212 5.00455 0.639109C4.98458 1.01145 4.9646 1.38379 4.94463 1.75613C4.93264 1.96639 4.91916 2.17666 4.90897 2.38692C4.87901 2.99599 4.85175 3.60625 4.82178 4.21413C4.78843 4.88823 4.75427 5.56293 4.71932 6.23822L4.64411 7.72342C4.60996 8.39752 4.5757 9.07222 4.54134 9.74751C4.51618 10.2467 4.49081 10.7462 4.46524 11.2458C4.43109 11.9199 4.39683 12.5946 4.36247 13.2699L4.28697 14.7551C4.25261 15.4385 4.21796 16.1219 4.183 16.8054C4.17971 16.8666 4.17431 16.9282 4.16682 16.9888C4.16211 17.045 4.13744 17.0977 4.09721 17.1376C4.05699 17.1774 4.00383 17.2017 3.94721 17.2062C3.93027 17.2076 3.91326 17.2081 3.89627 17.2077C3.25839 17.2077 2.6202 17.2223 1.98292 17.2036C1.18264 17.1798 0.596893 16.7816 0.228365 16.0491C0.131 15.8524 0.0701057 15.6399 0.048595 15.4219" fill="#12B3B3"/>
<path d="M49.9833 0.573674C49.9485 1.23509 49.9138 1.8966 49.879 2.55821C49.8697 2.73665 49.8631 2.91747 49.8533 3.09739C49.82 3.70616 49.7933 4.31672 49.7634 4.9246C49.73 5.5997 49.6959 6.27449 49.6609 6.94899L49.5863 8.43449C49.5517 9.10859 49.5175 9.78339 49.4835 10.4589C49.4582 10.9583 49.4328 11.4578 49.4074 11.9575C49.3733 12.6316 49.3389 13.3063 49.3044 13.9816C49.2843 14.3628 49.2636 14.7438 49.2384 15.1248C49.2013 15.688 48.789 16.3396 48.0586 16.5169C47.302 16.7007 46.5425 16.8699 45.7842 17.0453C45.581 17.0923 45.3782 17.1396 45.1747 17.1842C45.0076 17.2211 44.9072 17.139 44.915 16.9636C44.9368 16.4639 44.9632 15.9646 44.9893 15.465C44.9986 15.2809 45.0049 15.0968 45.0156 14.9127C45.0417 14.4794 45.0567 14.0452 45.0783 13.6113C45.1118 12.9277 45.1463 12.2437 45.1816 11.5592C45.2068 11.0636 45.2321 10.5685 45.2574 10.074C45.292 9.39479 45.3263 8.71563 45.3605 8.03657C45.3857 7.54567 45.4107 7.05486 45.4357 6.56416C45.4703 5.8851 45.5046 5.20594 45.5388 4.52668C45.5639 4.03102 45.5892 3.53595 45.6146 3.04148C45.6311 2.72148 45.6373 2.40059 45.6679 2.08208C45.7332 1.40401 46.2174 0.841927 46.8664 0.688172C47.8102 0.464827 48.754 0.249213 49.7005 0.0306259C49.7293 0.0232976 49.7588 0.0186187 49.7885 0.0166482C49.9186 0.0101055 49.9944 0.0951611 49.9893 0.243265C49.9854 0.352708 49.9779 0.46215 49.9722 0.57189L49.9833 0.573674Z" fill="#12B3B3"/>
<path d="M42.6249 21.8799C42.6402 21.8909 42.6563 21.9008 42.6731 21.9096C42.9389 22.0256 43.0803 22.2385 43.0959 22.5297C43.1144 22.8785 42.9985 23.1682 42.6935 23.3514C42.5564 23.4311 42.4 23.4722 42.2411 23.4703C41.8117 23.4739 41.3824 23.4727 40.9527 23.4721C40.8628 23.4721 40.8595 23.4694 40.8586 23.3775C40.8586 23.2065 40.8586 23.0352 40.8586 22.8642C40.8586 21.9822 40.8586 21.0999 40.8586 20.2174C40.8586 20.1877 40.861 20.1558 40.8586 20.1255C40.8529 20.0616 40.8811 20.0363 40.9404 20.0434C40.9532 20.0442 40.966 20.0442 40.9788 20.0434C41.3359 20.0434 41.6931 20.0434 42.0502 20.0434C42.1864 20.0421 42.3221 20.06 42.4532 20.0967C42.7702 20.188 42.9697 20.3961 43.0225 20.7328C43.0626 20.9829 43.047 21.2315 42.9404 21.4671C42.8852 21.5897 42.807 21.7007 42.71 21.7942C42.683 21.8231 42.6557 21.8498 42.6249 21.8799ZM41.297 21.0834C41.297 21.272 41.2985 21.4605 41.297 21.6485C41.297 21.7062 41.3078 21.7377 41.3734 21.7377C41.5984 21.7341 41.8228 21.7377 42.0487 21.7332C42.1739 21.7283 42.2922 21.675 42.3783 21.5845C42.5146 21.4501 42.5754 21.2788 42.5949 21.092C42.6402 20.6543 42.4616 20.4494 42.034 20.4446C41.8174 20.4419 41.6008 20.4446 41.3842 20.4428C41.3197 20.4428 41.2943 20.4619 41.2943 20.532C41.2994 20.7149 41.297 20.899 41.297 21.0834ZM41.782 23.0739C41.9052 23.0739 42.0283 23.0739 42.1515 23.0739C42.2622 23.0692 42.3706 23.0412 42.4697 22.9918C42.7121 22.8821 42.7076 22.3673 42.5218 22.2483C42.4833 22.2215 42.4416 22.1993 42.3978 22.1823C42.3218 22.1544 42.2417 22.1394 42.1608 22.138C41.9019 22.1356 41.6427 22.138 41.3839 22.1356C41.3173 22.1356 41.294 22.1585 41.2958 22.2266C41.2988 22.4808 41.2988 22.735 41.2958 22.9891C41.2958 23.0617 41.3257 23.0784 41.3857 23.0763C41.5187 23.0718 41.6505 23.0739 41.782 23.0739Z" fill="#242423" stroke="#242423" stroke-width="0.3"/>
<path d="M46.6343 23.4727C46.7167 22.9591 46.7934 22.4705 46.874 21.9824C46.9276 21.6583 46.9701 21.332 47.037 21.0106C47.0565 20.9208 47.0818 20.8324 47.1128 20.7459C47.2656 20.3063 47.5784 20.0827 48.017 20.0235C48.3087 19.9876 48.6041 19.9964 48.8931 20.0497C48.9183 20.0538 48.9425 20.0625 48.9677 20.0657C49.0192 20.0726 49.0417 20.1008 49.0375 20.1549C49.0333 20.2091 49.03 20.2688 49.0276 20.3259C49.0132 20.6507 49.0186 20.9755 49.0183 21.3005C49.0183 21.9633 49.0183 22.6262 49.0183 23.2892C49.0183 23.3243 49.0183 23.3594 49.0183 23.3945C49.0183 23.4471 49.001 23.4754 48.944 23.4739C48.8463 23.4709 48.7484 23.4703 48.6507 23.4739C48.5869 23.4766 48.5722 23.4462 48.5725 23.3871C48.5743 23.128 48.5725 22.869 48.5725 22.61C48.5725 22.5746 48.5701 22.5395 48.5725 22.5044C48.5779 22.4404 48.5497 22.4208 48.4904 22.422C48.3544 22.425 48.2184 22.422 48.082 22.422H47.3803C47.2737 22.422 47.2533 22.4006 47.2341 22.541C47.1984 22.8013 47.1567 23.0607 47.1092 23.3193C47.0768 23.4938 47.1092 23.468 46.9375 23.4706C46.8416 23.4736 46.7445 23.4727 46.6343 23.4727ZM48.5728 21.219C48.5728 20.9811 48.5728 20.7456 48.5728 20.5088C48.5728 20.4437 48.5557 20.4149 48.4883 20.4119C48.3569 20.4032 48.2249 20.406 48.094 20.4202C47.8178 20.4571 47.62 20.6013 47.5286 20.8809C47.5035 20.9509 47.4835 21.0227 47.4687 21.0956C47.4196 21.3755 47.3743 21.6562 47.3285 21.9369C47.315 22.0205 47.3162 22.0232 47.4043 22.0235C47.7612 22.0247 48.1181 22.0247 48.4748 22.0235C48.5647 22.0235 48.568 22.0208 48.5686 21.9292C48.5737 21.6928 48.5728 21.4558 48.5728 21.219Z" fill="#242423" stroke="#242423" stroke-width="0.3"/>
<path d="M24.1738 22.4238C23.9941 22.4238 23.8167 22.4238 23.6381 22.4238C23.4988 22.4238 23.5183 22.4036 23.4901 22.5579C23.4425 22.8256 23.4035 23.0932 23.3601 23.3609C23.3418 23.4715 23.3406 23.4718 23.2348 23.4724C23.1497 23.4724 23.0646 23.4742 22.9796 23.4724C22.8945 23.4706 22.8921 23.4653 22.9055 23.3805C22.9397 23.164 22.9754 22.9478 23.0101 22.7316C23.092 22.2258 23.1736 21.7203 23.2549 21.2149C23.2777 21.0678 23.3122 20.9227 23.358 20.781C23.5078 20.3254 23.8209 20.0833 24.2781 20.0247C24.5698 19.99 24.8651 19.999 25.1542 20.0515C25.1877 20.0571 25.2204 20.0672 25.2536 20.0744C25.2666 20.0767 25.2781 20.0837 25.2861 20.094C25.2941 20.1044 25.2979 20.1173 25.2968 20.1303C25.2977 20.1478 25.2977 20.1654 25.2968 20.1829C25.2515 20.7616 25.28 21.3413 25.2743 21.9206C25.2698 22.3816 25.2743 22.8425 25.2743 23.3035C25.2743 23.33 25.2722 23.3564 25.2743 23.3826C25.2803 23.448 25.2587 23.479 25.1892 23.4751C25.1 23.4705 25.0106 23.4705 24.9214 23.4751C24.8534 23.4787 24.8339 23.4501 24.8348 23.3835C24.8375 23.164 24.8348 22.9442 24.8348 22.7248C24.8348 22.6546 24.8318 22.5841 24.8348 22.5142C24.8378 22.4443 24.815 22.4214 24.7476 22.4226C24.5567 22.4238 24.3653 22.4238 24.1738 22.4238ZM24.833 21.2309C24.833 20.993 24.833 20.7572 24.833 20.5205C24.833 20.422 24.833 20.4217 24.7338 20.414C24.6066 20.403 24.4785 20.4057 24.3518 20.422C24.0705 20.4601 23.8709 20.6076 23.7825 20.8955C23.7636 20.949 23.748 21.0036 23.7358 21.059C23.6843 21.3523 23.6343 21.6456 23.586 21.939C23.5731 22.0181 23.5803 22.025 23.6675 22.025C24.0246 22.0262 24.3816 22.0262 24.7383 22.025C24.8282 22.025 24.8297 22.0223 24.83 21.9283C24.8351 21.6946 24.8342 21.462 24.8342 21.2294L24.833 21.2309Z" fill="#242423" stroke="#242423" stroke-width="0.3"/>
<path d="M34.9653 21.7478V20.234C34.9653 20.2076 34.9653 20.1814 34.9653 20.1549C34.9671 20.0461 34.9671 20.0449 35.069 20.044C35.2518 20.044 35.4345 20.044 35.6173 20.044H36.9308C37.0594 20.044 37.0597 20.044 37.06 20.1817C37.06 20.2477 37.06 20.3134 37.06 20.3792C37.06 20.4232 37.042 20.444 37 20.4422C36.9701 20.4422 36.9401 20.4422 36.9101 20.4422H35.5712C35.5412 20.4422 35.5112 20.444 35.4813 20.4422C35.43 20.4392 35.4028 20.4559 35.4031 20.5154C35.4049 20.8094 35.4049 21.1034 35.4031 21.3975C35.4031 21.4825 35.4564 21.4706 35.5064 21.4706H36.615C36.8029 21.4706 36.8029 21.4706 36.8029 21.6666C36.8029 21.8688 36.8029 21.8688 36.609 21.8688H35.5526C35.3956 21.8688 35.4052 21.8516 35.4052 22.0143C35.4052 22.3216 35.4052 22.6289 35.4052 22.9362C35.4052 23.0736 35.4052 23.0742 35.5346 23.0742C36.014 23.0742 36.4943 23.0742 36.9755 23.0742C37.1253 23.0742 37.1148 23.0608 37.1154 23.2137C37.1154 23.2794 37.1154 23.3451 37.1154 23.4111C37.1154 23.4561 37.0953 23.4745 37.0531 23.4724C37.0276 23.4724 37.0021 23.4724 36.9767 23.4724H35.102C35.0891 23.4724 35.0765 23.4724 35.0636 23.4724C34.9695 23.4697 34.9674 23.4697 34.9674 23.3671C34.966 22.8275 34.9653 22.2877 34.9653 21.7478Z" fill="#242423" stroke="#242423" stroke-width="0.3"/>
<path d="M29.8965 21.945V20.615C29.8965 20.5886 29.8965 20.5621 29.8965 20.5359C29.8929 20.4467 29.8929 20.4434 29.8 20.4431C29.528 20.4431 29.2556 20.4431 28.9836 20.4431C28.8248 20.4431 28.8311 20.4699 28.8311 20.2903C28.8311 20.2287 28.8311 20.1671 28.8311 20.1059C28.8311 20.061 28.8524 20.0428 28.8943 20.0446C28.9198 20.0446 28.9455 20.0446 28.971 20.0446H31.2673C31.4171 20.0446 31.4105 20.0274 31.4105 20.1954C31.4105 20.2525 31.4087 20.3096 31.4105 20.3664C31.4123 20.4232 31.391 20.4449 31.3359 20.4437C31.1999 20.4413 31.0635 20.4437 30.9275 20.4437C30.7615 20.4437 30.5958 20.4464 30.4298 20.4437C30.3627 20.4422 30.3421 20.4678 30.3427 20.535C30.345 20.7851 30.3427 21.0355 30.3427 21.2857V23.3139C30.3427 23.3436 30.3427 23.3755 30.3427 23.4061C30.345 23.457 30.3217 23.476 30.2737 23.4754C30.1758 23.4736 30.0778 23.4715 29.9804 23.4754C29.9112 23.4787 29.8938 23.448 29.8941 23.3823C29.8962 23.0662 29.8941 22.7503 29.8941 22.4342L29.8965 21.945Z" fill="#242423" stroke="#242423" stroke-width="0.3"/>
<path d="M32.4722 12.8327H27.7008C27.5372 12.8327 27.5408 12.8327 27.554 12.6581C27.569 12.4568 27.5777 12.2552 27.5873 12.0535C27.6082 11.6155 27.6274 11.1771 27.6472 10.7387C27.6625 10.4232 27.6798 10.108 27.6963 9.79242C27.702 9.68744 27.7023 9.68714 27.809 9.68506C27.8302 9.68506 27.8515 9.68506 27.8728 9.68506H36.9811C37.0237 9.68506 37.0662 9.68506 37.1088 9.68506C37.3527 9.69547 37.5258 9.8745 37.5207 10.1258C37.5145 10.4196 37.498 10.7132 37.4833 11.0067C37.4731 11.217 37.4578 11.4269 37.4467 11.6372C37.4279 12.0009 37.4108 12.3646 37.3925 12.7283C37.3877 12.8306 37.3874 12.8318 37.2802 12.8318C36.9865 12.8318 36.6932 12.8318 36.3999 12.8318L32.4722 12.8327Z" fill="#F0F0F0"/>
<path d="M41.2969 21.0834C41.2969 20.899 41.2993 20.7149 41.2969 20.5309C41.2969 20.4607 41.3217 20.4416 41.3868 20.4416C41.6034 20.4443 41.82 20.4416 42.0366 20.4434C42.4642 20.4482 42.6428 20.6531 42.5975 21.0909C42.578 21.2776 42.5172 21.4477 42.3809 21.5833C42.2948 21.6738 42.1765 21.7271 42.0513 21.732C41.8263 21.7377 41.6019 21.732 41.376 21.7365C41.3104 21.7365 41.299 21.7068 41.2996 21.6473C41.2984 21.4605 41.2969 21.272 41.2969 21.0834Z" fill="#F0F0F0"/>
<path d="M41.7823 23.0739C41.6507 23.0739 41.5189 23.0718 41.3874 23.0739C41.3254 23.0754 41.2951 23.0593 41.2975 22.9868C41.3009 22.7328 41.3009 22.4786 41.2975 22.2242C41.2975 22.1561 41.3191 22.1323 41.3856 22.1332C41.6445 22.1362 41.9036 22.1332 42.1625 22.1356C42.2434 22.137 42.3236 22.152 42.3995 22.1799C42.4433 22.1969 42.485 22.2191 42.5235 22.2459C42.7093 22.3673 42.7138 22.8809 42.4714 22.9894C42.3724 23.0388 42.2639 23.0668 42.1532 23.0715C42.0286 23.0748 41.9054 23.0739 41.7823 23.0739Z" fill="#F0F0F0"/>
<path d="M48.5728 21.219C48.5728 21.457 48.5728 21.6928 48.5728 21.9295C48.5728 22.0211 48.5698 22.0235 48.4791 22.0238C48.1221 22.0238 47.7653 22.0238 47.4085 22.0238C47.3204 22.0238 47.3186 22.0208 47.3327 21.9372C47.3786 21.6565 47.4226 21.3758 47.4729 21.0959C47.4877 21.023 47.5077 20.9512 47.5329 20.8812C47.6227 20.6016 47.822 20.4574 48.0982 20.4205C48.2292 20.4063 48.3611 20.4035 48.4925 20.4122C48.56 20.4152 48.5776 20.444 48.577 20.5091C48.5743 20.7471 48.577 20.9826 48.577 21.2193L48.5728 21.219Z" fill="#F0F0F0"/>
<path d="M24.8344 21.2294C24.8344 21.462 24.8344 21.6946 24.8344 21.9268C24.8344 22.0208 24.832 22.0232 24.7428 22.0235C24.3858 22.0247 24.0289 22.0247 23.6719 22.0235C23.5847 22.0235 23.5775 22.0167 23.5904 21.9376C23.638 21.6441 23.6879 21.3508 23.7402 21.0576C23.7525 21.0021 23.7681 20.9475 23.787 20.894C23.8745 20.6061 24.074 20.4586 24.3562 20.4205C24.4829 20.4042 24.611 20.4015 24.7383 20.4125C24.8359 20.4202 24.8371 20.4205 24.8374 20.519C24.8374 20.7569 24.8374 20.9927 24.8374 21.2294H24.8344Z" fill="#F0F0F0"/>
</g>
<defs>
<clipPath id="clip0_240_961">
<rect width="50" height="24" fill="white"/>
</clipPath>
</defs>
</svg>
