<svg width="74" height="36" viewBox="0 0 74 36" fill="none" xmlns="http://www.w3.org/2000/svg">
<g clip-path="url(#clip0_391_1583)">
<path d="M41.4411 3.33539e-05C41.6518 0.0718549 41.7245 0.219067 41.7103 0.451483C41.6549 1.37758 41.6118 2.30457 41.5648 3.23111C41.5498 3.52048 41.535 3.80985 41.5205 4.09922C41.4762 4.99989 41.4376 5.90055 41.3928 6.80122C41.3644 7.37312 41.3298 7.94457 41.2983 8.51602C41.2886 8.6891 41.2895 8.68955 41.4575 8.69446H41.6087C47.3876 8.69446 53.1662 8.69446 58.9447 8.69446C59.6143 8.69446 60.2271 8.8729 60.7681 9.28732C61.4585 9.81817 61.8443 10.5364 61.9574 11.425C62.0137 11.8684 61.9432 12.3056 61.9375 12.7459C61.933 13.0814 61.898 13.4151 61.882 13.751C61.8501 14.4018 61.8235 15.0531 61.7933 15.704C61.7437 16.7297 61.6927 17.7557 61.6403 18.782C61.6035 19.5114 61.5681 20.2412 61.5295 20.9706C61.4984 21.5554 61.4825 22.142 61.4253 22.7242C61.3211 23.7828 60.8191 24.6072 59.993 25.213C59.4259 25.6292 58.7895 25.8201 58.0933 25.8197C54.184 25.8152 50.2749 25.8152 46.3659 25.8197H34.7515C34.6885 25.8197 34.6251 25.8197 34.5626 25.8197C34.3249 25.8107 34.1879 25.6684 34.187 25.4222C34.187 25.2777 34.1928 25.1327 34.2003 24.9881C34.2181 24.6594 34.2416 24.3315 34.2575 24.0027C34.3019 23.0953 34.3422 22.188 34.3861 21.2815C34.4225 20.5258 34.4615 19.7697 34.4992 19.014C34.5497 18.0082 34.6001 17.0024 34.6504 15.9966C34.6882 15.2418 34.7264 14.4895 34.7648 13.7398L34.9178 10.6832L35.0295 8.45267C35.0801 7.44717 35.1305 6.44152 35.1807 5.43572C35.2175 4.70591 35.2526 3.97654 35.292 3.24672C35.3497 2.17609 36.08 1.26829 37.0888 1.02829C38.4373 0.707097 39.7876 0.395275 41.1365 0.0772079C41.2252 0.0562413 41.3236 0.0531187 41.4052 -0.00219727L41.4411 3.33539e-05ZM48.0589 19.2491H53.8767C54.3109 19.2491 54.745 19.2491 55.1795 19.2491C55.3383 19.2491 55.3387 19.2491 55.3458 19.0939C55.3729 18.5483 55.3982 18.0027 55.4261 17.4571C55.4425 17.1417 55.4651 16.8268 55.4802 16.5114C55.5019 16.0711 55.5245 15.6308 55.5356 15.1901C55.5432 14.8131 55.2869 14.5446 54.9259 14.529C54.8629 14.5263 54.8 14.529 54.737 14.529H41.2567C41.2252 14.529 41.1937 14.529 41.1622 14.529C41.0043 14.5321 41.0039 14.5325 40.9955 14.69C40.9711 15.1633 40.9454 15.6362 40.9227 16.1095C40.8917 16.767 40.8633 17.4246 40.8341 18.0817C40.8199 18.3841 40.807 18.6866 40.7848 18.9886C40.7653 19.2509 40.76 19.2504 41.0021 19.2504L48.0589 19.2491Z" fill="#12B3B3"/>
<path d="M16.5127 36C16.5428 35.3491 16.5712 34.6987 16.6014 34.0479C16.6315 33.4434 16.6657 32.839 16.6963 32.2345C16.7578 31.0318 16.8187 29.8293 16.879 28.6269C16.8932 28.3441 16.906 28.0617 16.9211 27.7793C16.9357 27.5117 17.0701 27.3738 17.3264 27.3604C17.3641 27.3604 17.4018 27.3604 17.4395 27.3604H22.6698C22.7012 27.3604 22.7327 27.3604 22.7642 27.3604C23.0595 27.3689 23.2076 27.5237 23.193 27.832C23.1691 28.4039 23.1385 28.9753 23.1096 29.5472C23.0771 30.1845 23.0439 30.8219 23.0099 31.4592C22.9877 31.8865 22.9655 32.3135 22.942 32.7404C22.895 33.6464 22.2387 34.6349 21.1474 34.8928C19.6894 35.2372 18.2311 35.5792 16.7725 35.9188C16.7069 35.9344 16.6342 35.9331 16.5885 35.9991L16.5127 36Z" fill="#E7241C"/>
<path d="M24.0974 9.43584C24.0974 9.57948 24.1027 9.7035 24.0974 9.82796C24.0344 11.1032 23.9707 12.3786 23.9063 13.6541C23.8569 14.6406 23.8074 15.6268 23.7577 16.6126C23.7231 17.3032 23.6876 17.9935 23.6513 18.6834C23.647 18.7428 23.6462 18.8024 23.6491 18.8619C23.6519 18.9565 23.6885 19.0469 23.752 19.1166C23.8156 19.1864 23.902 19.2309 23.9954 19.2419C24.0581 19.2468 24.121 19.2478 24.1838 19.2451H32.0206C32.0707 19.2451 32.1213 19.2451 32.1714 19.2451C32.4029 19.2562 32.5434 19.4065 32.5403 19.6515C32.5377 19.8687 32.527 20.0859 32.5155 20.3027C32.4849 20.901 32.4499 21.4992 32.4202 22.0974C32.3652 23.1952 32.3137 24.2935 32.2592 25.3914C32.2454 25.6688 32.1058 25.8054 31.8348 25.8058C31.1422 25.8058 30.4497 25.8058 29.7573 25.8058H23.7901C23.7333 25.8058 23.6766 25.8085 23.6202 25.8058C23.4371 25.7929 23.3174 25.6671 23.3098 25.4761C23.3063 25.3775 23.3098 25.2785 23.3169 25.1799C23.3681 24.1542 23.4194 23.1282 23.4708 22.1019C23.5089 21.339 23.5469 20.5764 23.5848 19.8138C23.589 19.7614 23.589 19.7088 23.5848 19.6564C23.5784 19.5751 23.5458 19.4982 23.492 19.4373C23.4382 19.3763 23.3662 19.3347 23.2868 19.3187C23.2063 19.3044 23.1246 19.298 23.0429 19.2995C21.3372 19.2995 19.6313 19.2995 17.9252 19.2995C17.8687 19.2984 17.8122 19.3001 17.7559 19.3048C17.5 19.3329 17.3546 19.4788 17.3333 19.7478C17.308 20.0694 17.292 20.3915 17.2765 20.7136C17.2322 21.6143 17.1918 22.5154 17.1475 23.4161C17.1144 24.0932 17.079 24.7704 17.0415 25.4476C17.0286 25.6889 16.9151 25.8022 16.6828 25.8085C16.6322 25.8085 16.5816 25.8085 16.5315 25.8085L8.60254 25.8067C8.56484 25.8067 8.52671 25.8067 8.48902 25.8067C8.24291 25.7987 8.09348 25.6363 8.1019 25.3758C8.11033 25.1152 8.12718 24.8498 8.14092 24.5866C8.17462 23.9294 8.20847 23.272 8.24247 22.6144C8.29302 21.622 8.34328 20.6293 8.39324 19.6363C8.40609 19.3914 8.54622 19.254 8.78168 19.2455C8.83179 19.2455 8.88234 19.2455 8.93245 19.2455H16.8623C17.1914 19.2428 17.3581 19.0751 17.3758 18.728C17.3874 18.505 17.3993 18.2819 17.41 18.0589C17.4543 17.1667 17.4938 16.27 17.5381 15.3761C17.5825 14.4558 17.6268 13.535 17.684 12.6152C17.743 11.6413 18.4951 10.7451 19.4471 10.5185C20.9477 10.1616 22.45 9.81011 23.9519 9.4577C23.9945 9.44431 24.0388 9.44297 24.0974 9.43584Z" fill="#E7241C"/>
<path d="M0.0678711 22.1393C0.102015 21.4622 0.129952 20.785 0.163209 20.1078C0.213465 19.0761 0.264755 18.0443 0.31708 17.0123C0.353442 16.2831 0.390246 15.5538 0.427495 14.8242C0.478342 13.7991 0.529484 12.7738 0.580922 11.7484C0.617579 11.0123 0.654532 10.2763 0.69178 9.54023C0.743218 8.51509 0.794361 7.48997 0.845208 6.46484C0.881865 5.72878 0.919113 4.99272 0.956953 4.25666C0.976907 3.869 0.982672 3.47911 1.02835 3.09457C1.13122 2.23361 1.57288 1.61309 2.30676 1.21561C2.61716 1.04654 2.96437 0.995689 3.30049 0.915391C4.52614 0.623644 5.75267 0.338142 6.98098 0.0508558C7.01158 0.0437182 7.04262 0.0374729 7.07366 0.033458C7.30469 0.00133907 7.45457 0.142306 7.43372 0.386767C7.41732 0.57725 7.41687 0.76818 7.40667 0.958663C7.37711 1.51718 7.34755 2.07569 7.31799 2.6342C7.30025 2.94959 7.2803 3.26498 7.26522 3.58037C7.22088 4.49398 7.18052 5.40937 7.13618 6.32119C7.08681 7.33234 7.03626 8.34439 6.98453 9.35733L6.87323 11.5851C6.82267 12.5963 6.77198 13.6083 6.72113 14.6213C6.68388 15.3701 6.64634 16.1193 6.6085 16.8687C6.55795 17.8799 6.50725 18.8919 6.4564 19.9048L6.34466 22.1326C6.29381 23.1578 6.24252 24.1829 6.19078 25.208C6.18591 25.2999 6.17792 25.3923 6.16684 25.4833C6.15986 25.5676 6.12335 25.6466 6.06382 25.7063C6.00429 25.7661 5.92561 25.8026 5.8418 25.8094C5.81673 25.8115 5.79157 25.8122 5.76642 25.8116C4.82235 25.8116 3.87784 25.8335 2.93466 25.8054C1.75025 25.7697 0.883343 25.1723 0.337921 24.0736C0.193822 23.7786 0.103698 23.4599 0.071862 23.1328" fill="#12B3B3"/>
<path d="M73.9759 0.860511C73.9244 1.85263 73.873 2.8449 73.8215 3.83731C73.8078 4.10497 73.798 4.3762 73.7834 4.64609C73.7342 5.55925 73.6947 6.47508 73.6504 7.38691C73.601 8.39955 73.5505 9.41174 73.4987 10.4235L73.3883 12.6517C73.3372 13.6629 73.2865 14.6751 73.2362 15.6883C73.1987 16.4375 73.1611 17.1868 73.1236 17.9362C73.073 18.9474 73.0222 19.9594 72.971 20.9723C72.9413 21.5442 72.9107 22.1157 72.8735 22.6871C72.8185 23.532 72.2083 24.5094 71.1272 24.7753C70.0076 25.051 68.8835 25.3048 67.7611 25.568C67.4605 25.6385 67.1603 25.7094 66.8592 25.7764C66.6118 25.8317 66.4632 25.7085 66.4747 25.4453C66.5071 24.6959 66.5461 23.9469 66.5847 23.1975C66.5985 22.9213 66.6078 22.6452 66.6237 22.3691C66.6623 21.7191 66.6845 21.0678 66.7164 20.4169C66.7661 19.3915 66.8171 18.3655 66.8694 17.3389C66.9067 16.5954 66.944 15.8528 66.9816 15.1111C67.0327 14.0922 67.0836 13.0735 67.1341 12.0549C67.1714 11.3185 67.2085 10.5823 67.2454 9.84624C67.2966 8.82765 67.3474 7.80891 67.398 6.79003C67.4352 6.04653 67.4726 5.30393 67.5102 4.56222C67.5345 4.08222 67.5439 3.60088 67.5891 3.12311C67.6858 2.10601 68.4023 1.26289 69.3628 1.03226C70.7596 0.69724 72.1565 0.37382 73.5573 0.0459389C73.6 0.0349464 73.6436 0.027928 73.6876 0.0249723C73.8801 0.0151582 73.9923 0.142742 73.9847 0.364898C73.979 0.529061 73.9679 0.693225 73.9594 0.857835L73.9759 0.860511Z" fill="#12B3B3"/>
<path d="M63.0848 32.8198C63.1075 32.8363 63.1314 32.8513 63.1562 32.8644C63.5495 33.0384 63.7588 33.3578 63.7819 33.7945C63.8094 34.3178 63.6378 34.7523 63.1864 35.0271C62.9835 35.1467 62.752 35.2084 62.5168 35.2055C61.8813 35.2109 61.2459 35.2091 60.61 35.2082C60.477 35.2082 60.4721 35.2042 60.4708 35.0663C60.4708 34.8098 60.4708 34.5529 60.4708 34.2964C60.4708 32.9732 60.4708 31.6498 60.4708 30.3261C60.4708 30.2815 60.4743 30.2338 60.4708 30.1883C60.4624 30.0924 60.5041 30.0544 60.5919 30.0651C60.6108 30.0663 60.6297 30.0663 60.6486 30.0651C61.1772 30.0651 61.7058 30.0651 62.2343 30.0651C62.4359 30.0631 62.6367 30.09 62.8307 30.145C63.2999 30.2819 63.5952 30.5942 63.6733 31.0992C63.7327 31.4744 63.7096 31.8473 63.5518 32.2006C63.4702 32.3845 63.3544 32.5511 63.2108 32.6913C63.1709 32.7346 63.1305 32.7747 63.0848 32.8198ZM61.1195 31.6251C61.1195 31.908 61.1217 32.1908 61.1195 32.4727C61.1195 32.5593 61.1355 32.6066 61.2326 32.6066C61.5656 32.6012 61.8978 32.6066 62.2321 32.5999C62.4174 32.5925 62.5925 32.5124 62.7199 32.3768C62.9216 32.1752 63.0117 31.9182 63.0405 31.6381C63.1074 30.9814 62.8432 30.6741 62.2104 30.6669C61.8898 30.6629 61.5692 30.6669 61.2486 30.6642C61.1532 30.6642 61.1155 30.6928 61.1155 30.7981C61.1231 31.0724 61.1195 31.3486 61.1195 31.6251ZM61.8375 34.6109C62.0197 34.6109 62.202 34.6109 62.3842 34.6109C62.5481 34.6038 62.7086 34.5618 62.8551 34.4877C63.2139 34.3231 63.2072 33.5509 62.9323 33.3725C62.8752 33.3322 62.8136 33.299 62.7487 33.2735C62.6364 33.2316 62.5178 33.2091 62.398 33.207C62.0148 33.2034 61.6313 33.207 61.2481 33.2034C61.1497 33.2034 61.1151 33.2378 61.1178 33.3399C61.1222 33.7212 61.1222 34.1025 61.1178 34.4837C61.1178 34.5926 61.1621 34.6176 61.2508 34.6144C61.4477 34.6077 61.6428 34.6109 61.8375 34.6109Z" fill="#242423" stroke="#242423" stroke-width="0.444"/>
<path d="M69.0186 35.2091C69.1405 34.4387 69.254 33.7057 69.3733 32.9737C69.4527 32.4874 69.5156 31.9981 69.6145 31.5158C69.6435 31.3812 69.6809 31.2486 69.7267 31.1188C69.9529 30.4595 70.4158 30.124 71.065 30.0352C71.4966 29.9813 71.934 29.9946 72.3616 30.0745C72.3988 30.0807 72.4348 30.0937 72.472 30.0986C72.5483 30.1088 72.5815 30.1512 72.5753 30.2324C72.5691 30.3136 72.5642 30.4033 72.5607 30.4889C72.5394 30.9761 72.5474 31.4632 72.547 31.9508C72.547 32.945 72.547 33.9393 72.547 34.9338C72.547 34.9865 72.547 35.0391 72.547 35.0917C72.547 35.1707 72.5212 35.2131 72.437 35.2109C72.2924 35.2064 72.1474 35.2055 72.0029 35.2109C71.9084 35.2149 71.8867 35.1694 71.8871 35.0806C71.8898 34.692 71.8871 34.3035 71.8871 33.9149C71.8871 33.8619 71.8836 33.8092 71.8871 33.7566C71.8951 33.6607 71.8534 33.6312 71.7656 33.633C71.5643 33.6375 71.363 33.633 71.1612 33.633H70.1227C69.9648 33.633 69.9347 33.6009 69.9063 33.8114C69.8534 34.2019 69.7918 34.5911 69.7214 34.9789C69.6735 35.2407 69.7214 35.2019 69.4673 35.2059C69.3254 35.2104 69.1817 35.2091 69.0186 35.2091ZM71.8876 31.8285C71.8876 31.4717 71.8876 31.1184 71.8876 30.7633C71.8876 30.6656 71.8623 30.6223 71.7625 30.6178C71.568 30.6048 71.3727 30.609 71.179 30.6303C70.7701 30.6856 70.4775 30.902 70.3422 31.3213C70.305 31.4264 70.2753 31.5341 70.2535 31.6434C70.1808 32.0632 70.1138 32.4843 70.046 32.9054C70.026 33.0308 70.0278 33.0348 70.1582 33.0352C70.6865 33.037 71.2146 33.037 71.7426 33.0352C71.8756 33.0352 71.8805 33.0312 71.8814 32.8938C71.8889 32.5392 71.8876 32.1836 71.8876 31.8285Z" fill="#242423" stroke="#242423" stroke-width="0.444"/>
<path d="M35.7772 33.6357C35.5112 33.6357 35.2487 33.6357 34.9844 33.6357C34.7782 33.6357 34.807 33.6054 34.7653 33.8369C34.6948 34.2384 34.6372 34.6399 34.5729 35.0413C34.5458 35.2073 34.5441 35.2077 34.3875 35.2086C34.2616 35.2086 34.1357 35.2113 34.0097 35.2086C33.8838 35.2059 33.8802 35.1979 33.9002 35.0708C33.9507 34.746 34.0035 34.4217 34.0549 34.0974C34.1762 33.3387 34.2969 32.5804 34.4172 31.8223C34.451 31.6017 34.5021 31.384 34.5698 31.1714C34.7915 30.488 35.2549 30.1249 35.9316 30.037C36.3633 29.985 36.8004 29.9985 37.2282 30.0772C37.2778 30.0856 37.3261 30.1008 37.3754 30.1115C37.3945 30.115 37.4116 30.1255 37.4234 30.141C37.4352 30.1565 37.4409 30.1759 37.4392 30.1954C37.4406 30.2217 37.4406 30.248 37.4392 30.2743C37.3723 31.1425 37.4144 32.0119 37.406 32.8809C37.3993 33.5723 37.406 34.2638 37.406 34.9552C37.406 34.9949 37.4029 35.0346 37.406 35.0739C37.4148 35.172 37.3829 35.2184 37.28 35.2126C37.148 35.2057 37.0157 35.2057 36.8836 35.2126C36.7829 35.218 36.7541 35.1752 36.7555 35.0752C36.7594 34.746 36.7555 34.4164 36.7555 34.0871C36.7555 33.9819 36.751 33.8761 36.7555 33.7713C36.7599 33.6665 36.7262 33.6321 36.6264 33.6339C36.3439 33.6357 36.0606 33.6357 35.7772 33.6357ZM36.7528 31.8464C36.7528 31.4895 36.7528 31.1358 36.7528 30.7807C36.7528 30.633 36.7528 30.6326 36.606 30.621C36.4177 30.6044 36.2281 30.6085 36.0406 30.633C35.6243 30.6901 35.3289 30.9114 35.1981 31.3432C35.1701 31.4235 35.147 31.5054 35.1289 31.5885C35.0527 32.0284 34.9788 32.4684 34.9072 32.9085C34.8882 33.0272 34.8988 33.0375 35.0278 33.0375C35.5564 33.0393 36.0847 33.0393 36.6127 33.0375C36.7457 33.0375 36.7479 33.0335 36.7484 32.8925C36.7559 32.5419 36.7546 32.193 36.7546 31.8442L36.7528 31.8464Z" fill="#242423" stroke="#242423" stroke-width="0.444"/>
<path d="M51.7485 32.6217V30.3511C51.7485 30.3114 51.7485 30.2721 51.7485 30.2324C51.7512 30.0691 51.7512 30.0674 51.902 30.066C52.1725 30.066 52.443 30.066 52.7134 30.066H54.6575C54.8477 30.066 54.8481 30.066 54.8486 30.2726C54.8486 30.3716 54.8486 30.4702 54.8486 30.5688C54.8486 30.6348 54.822 30.666 54.7599 30.6633C54.7155 30.6633 54.6712 30.6633 54.6269 30.6633H52.6452C52.6008 30.6633 52.5565 30.666 52.5121 30.6633C52.4363 30.6589 52.3959 30.6839 52.3964 30.7731C52.399 31.2141 52.399 31.6552 52.3964 32.0962C52.3964 32.2238 52.4753 32.206 52.5494 32.206H54.1901C54.4681 32.206 54.4681 32.206 54.4681 32.4999C54.4681 32.8033 54.4681 32.8033 54.1812 32.8033H52.6177C52.3853 32.8033 52.3995 32.7774 52.3995 33.0214C52.3995 33.4824 52.3995 33.9433 52.3995 34.4043C52.3995 34.6104 52.3995 34.6113 52.5911 34.6113C53.3005 34.6113 54.0114 34.6113 54.7235 34.6113C54.9452 34.6113 54.9297 34.5912 54.9306 34.8205C54.9306 34.9191 54.9306 35.0177 54.9306 35.1167C54.9306 35.1841 54.9009 35.2118 54.8384 35.2086C54.8007 35.2086 54.763 35.2086 54.7253 35.2086H51.9507C51.9317 35.2086 51.913 35.2086 51.894 35.2086C51.7547 35.2046 51.7516 35.2046 51.7516 35.0507C51.7496 34.2412 51.7485 33.4315 51.7485 32.6217Z" fill="#242423" stroke="#242423" stroke-width="0.444"/>
<path d="M44.2468 32.9175V30.9225C44.2468 30.8828 44.2468 30.8431 44.2468 30.8039C44.2415 30.67 44.2415 30.6651 44.104 30.6647C43.7014 30.6647 43.2983 30.6647 42.8957 30.6647C42.6607 30.6647 42.67 30.7048 42.67 30.4354C42.67 30.343 42.67 30.2507 42.67 30.1588C42.67 30.0914 42.7015 30.0642 42.7635 30.0669C42.8012 30.0669 42.8394 30.0669 42.8771 30.0669H46.2755C46.4972 30.0669 46.4875 30.041 46.4875 30.2931C46.4875 30.3787 46.4848 30.4644 46.4875 30.5496C46.4901 30.6348 46.4587 30.6674 46.3771 30.6656C46.1757 30.662 45.974 30.6656 45.7727 30.6656C45.527 30.6656 45.2818 30.6696 45.0361 30.6656C44.9368 30.6633 44.9062 30.7017 44.9071 30.8025C44.9106 31.1777 44.9071 31.5533 44.9071 31.9285V34.9709C44.9071 35.0155 44.9071 35.0632 44.9071 35.1091C44.9106 35.1854 44.876 35.214 44.8051 35.2131C44.6601 35.2104 44.5151 35.2073 44.371 35.2131C44.2685 35.218 44.2428 35.172 44.2433 35.0735C44.2464 34.5993 44.2433 34.1255 44.2433 33.6513L44.2468 32.9175Z" fill="#242423" stroke="#242423" stroke-width="0.444"/>
<path d="M48.0588 19.2491H40.9971C40.755 19.2491 40.7604 19.2491 40.7799 18.9872C40.802 18.6852 40.8149 18.3827 40.8291 18.0803C40.8601 17.4232 40.8885 16.7656 40.9178 16.1081C40.9404 15.6348 40.9661 15.1619 40.9905 14.6886C40.9989 14.5311 40.9994 14.5307 41.1572 14.5276C41.1887 14.5276 41.2202 14.5276 41.2517 14.5276H54.732C54.795 14.5276 54.858 14.5276 54.9209 14.5276C55.2819 14.5432 55.5382 14.8117 55.5306 15.1887C55.5213 15.6294 55.4969 16.0697 55.4752 16.51C55.4601 16.8254 55.4375 17.1404 55.4211 17.4558C55.3932 18.0013 55.3679 18.5469 55.3409 19.0925C55.3338 19.2459 55.3333 19.2477 55.1746 19.2477C54.74 19.2477 54.3059 19.2477 53.8718 19.2477L48.0588 19.2491Z" fill="#F0F0F0"/>
<path d="M61.1196 31.6251C61.1196 31.3485 61.1232 31.0724 61.1196 30.7963C61.1196 30.691 61.1564 30.6624 61.2527 30.6624C61.5733 30.6665 61.8939 30.6624 62.2145 30.6651C62.8472 30.6723 63.1115 30.9796 63.0446 31.6363C63.0157 31.9164 62.9257 32.1716 62.724 32.375C62.5966 32.5106 62.4215 32.5907 62.2362 32.5981C61.9032 32.6065 61.571 32.5981 61.2367 32.6048C61.1396 32.6048 61.1227 32.5601 61.1236 32.4709C61.1218 32.1908 61.1196 31.9079 61.1196 31.6251Z" fill="#F0F0F0"/>
<path d="M61.8373 34.6109C61.6426 34.6109 61.4475 34.6077 61.2529 34.6109C61.1611 34.6131 61.1163 34.589 61.1198 34.4802C61.1248 34.0992 61.1248 33.7179 61.1198 33.3364C61.1198 33.2342 61.1518 33.1985 61.2502 33.1999C61.6333 33.2043 62.0169 33.1999 62.4 33.2034C62.5198 33.2055 62.6384 33.228 62.7508 33.2699C62.8157 33.2954 62.8773 33.3287 62.9344 33.3689C63.2093 33.5509 63.2159 34.3214 62.8572 34.4842C62.7106 34.5583 62.5501 34.6002 62.3863 34.6073C62.2018 34.6122 62.0196 34.6109 61.8373 34.6109Z" fill="#F0F0F0"/>
<path d="M71.8875 31.8285C71.8875 32.1854 71.8875 32.5392 71.8875 32.8943C71.8875 33.0317 71.8831 33.0352 71.7487 33.0357C71.2205 33.0357 70.6923 33.0357 70.1644 33.0357C70.034 33.0357 70.0313 33.0312 70.0522 32.9059C70.12 32.4848 70.1852 32.0636 70.2597 31.6439C70.2815 31.5345 70.3112 31.4269 70.3484 31.3218C70.4814 30.9025 70.7763 30.6861 71.1851 30.6308C71.3789 30.6094 71.5742 30.6053 71.7687 30.6183C71.8685 30.6227 71.8946 30.666 71.8938 30.7637C71.8898 31.1206 71.8938 31.4739 71.8938 31.829L71.8875 31.8285Z" fill="#F0F0F0"/>
<path d="M36.7548 31.8442C36.7548 32.193 36.7548 32.5419 36.7548 32.8903C36.7548 33.0312 36.7512 33.0348 36.6191 33.0352C36.0908 33.037 35.5625 33.037 35.0342 33.0352C34.9052 33.0352 34.8946 33.025 34.9136 32.9063C34.984 32.4662 35.0579 32.0262 35.1353 31.5863C35.1534 31.5032 35.1765 31.4213 35.2045 31.341C35.334 30.9092 35.6293 30.6879 36.047 30.6308C36.2345 30.6063 36.4241 30.6022 36.6124 30.6187C36.757 30.6303 36.7587 30.6308 36.7592 30.7784C36.7592 31.1353 36.7592 31.4891 36.7592 31.8442H36.7548Z" fill="#F0F0F0"/>
</g>
<defs>
<clipPath id="clip0_391_1583">
<rect width="74" height="36" fill="white"/>
</clipPath>
</defs>
</svg>
