<svg width="57" height="57" viewBox="0 0 57 57" fill="none" xmlns="http://www.w3.org/2000/svg">
<g id="clipboard-text">
<g id="vuesax/outline/clipboard-text">
<g id="clipboard-text_2">
<path id="Vector" d="M35.4727 30.7078H19.2031C18.2502 30.7078 17.46 29.9176 17.46 28.9647C17.46 28.0117 18.2502 27.2215 19.2031 27.2215H35.4727C36.4256 27.2215 37.2158 28.0117 37.2158 28.9647C37.2158 29.9176 36.4256 30.7078 35.4727 30.7078Z" fill="#242423"/>
<path id="Vector_2" d="M29.3832 40.0046H19.2031C18.2502 40.0046 17.46 39.2144 17.46 38.2615C17.46 37.3085 18.2502 36.5183 19.2031 36.5183H29.3832C30.3361 36.5183 31.1264 37.3085 31.1264 38.2615C31.1264 39.2144 30.3361 40.0046 29.3832 40.0046Z" fill="#242423"/>
<path id="Vector_3" d="M33.1484 16.2978H23.8516C21.6203 16.2978 17.46 16.2978 17.46 9.90617C17.46 3.51458 21.6203 3.51458 23.8516 3.51458H33.1484C35.3797 3.51458 39.54 3.51458 39.54 9.90617C39.54 12.1374 39.54 16.2978 33.1484 16.2978ZM23.8516 7.0009C21.5506 7.0009 20.9463 7.0009 20.9463 9.90617C20.9463 12.8114 21.5506 12.8114 23.8516 12.8114H33.1484C36.0537 12.8114 36.0537 12.2071 36.0537 9.90617C36.0537 7.0009 35.4494 7.0009 33.1484 7.0009H23.8516Z" fill="#E7241C"/>
<path id="Vector_4" d="M35.4727 53.4853H21.5273C8.46523 53.4853 5.83887 47.4888 5.83887 37.7969V23.8516C5.83887 13.2532 9.67383 8.72097 19.1102 8.23289C20.0398 8.18641 20.8998 8.90691 20.9463 9.88308C20.9928 10.8593 20.249 11.6495 19.2961 11.696C12.6953 12.0678 9.32519 14.0434 9.32519 23.8516V37.7969C9.32519 46.3965 11.0219 49.999 21.5273 49.999H35.4727C45.9781 49.999 47.6748 46.3965 47.6748 37.7969V23.8516C47.6748 14.0434 44.3047 12.0678 37.7039 11.696C36.751 11.6495 36.0072 10.8128 36.0537 9.85984C36.1002 8.90691 36.9369 8.16316 37.8898 8.20965C47.3262 8.72097 51.1611 13.2532 51.1611 23.8284V37.7736C51.1611 47.4888 48.5348 53.4853 35.4727 53.4853Z" fill="#E7241C"/>
</g>
</g>
</g>
</svg>
