<svg width="328" height="290" viewBox="0 0 328 290" fill="none" xmlns="http://www.w3.org/2000/svg">
<path opacity="0.25" d="M117.558 290C135.433 290 149.924 287.673 149.924 284.803C149.924 281.933 135.433 279.606 117.558 279.606C99.6824 279.606 85.1914 281.933 85.1914 284.803C85.1914 287.673 99.6824 290 117.558 290Z" fill="#6E6E6E"/>
<path opacity="0.1" d="M32.2007 223.648C32.503 223.82 32.8119 223.98 33.1241 224.152V223.986H35.7815V225.481L36.3461 225.744V223.986H39.0035V226.86C39.0545 226.885 39.1079 226.905 39.1629 226.919V223.648H32.2007Z" fill="#6C63FF"/>
<path d="M148.855 156.296C148.855 156.296 147.546 156.113 147.546 154.207C147.546 152.301 146.609 148.741 146.609 148.741C146.609 148.724 145.799 142.541 144.679 141.558C143.56 140.575 142.122 134.803 142.122 134.803C142.122 134.803 141.876 131.672 141.374 130.998C140.873 130.324 140.195 128.673 139.195 126.319C138.195 123.964 134.027 122.334 134.027 122.334C134.027 122.334 126.49 117.964 124.354 116.539C124.16 116.422 123.978 116.285 123.813 116.131C123.441 115.643 121.82 115.633 121.82 115.633C121.65 114.563 121.487 113.335 121.434 112.222C121.434 112.103 121.434 111.983 121.418 111.864C123.799 110.456 125.593 108.237 126.47 105.614C126.51 105.488 126.543 105.355 126.579 105.229C126.722 105.182 126.854 105.105 126.965 105.005C127.077 104.904 127.166 104.781 127.227 104.644C127.42 104.216 127.423 103.714 127.662 103.316C127.941 102.844 128.473 102.592 128.891 102.237C129.948 101.34 130.22 99.829 130.17 98.4542C130.137 97.3418 129.958 96.2194 130.027 95.1135L130.047 94.8346C130.067 94.6685 130.091 94.5025 130.12 94.3431C130.283 93.5196 130.639 92.7425 130.838 91.9256C131.037 91.1087 131.057 90.1888 130.592 89.4848C129.911 88.4521 128.493 88.2462 127.247 88.1399C125.835 88.0204 124.573 88.1764 123.67 87.0042C123.247 86.3915 122.771 85.817 122.248 85.2874C122.062 85.1147 120.255 84.0122 120.255 83.9391C118.491 83.1225 116.492 82.9692 114.625 83.5074C113.688 83.7797 112.804 84.2247 111.854 84.4472C109.805 84.932 107.447 84.4073 105.706 85.5796C104.736 86.2437 104.155 87.2997 103.61 88.3292C103.167 89.1771 102.718 90.0239 102.261 90.8696C101.527 92.261 100.78 93.6756 100.471 95.2165C100.406 95.5518 100.366 95.8914 100.351 96.2326V96.2492C100.351 96.3721 100.351 96.495 100.351 96.6178V96.7739C100.351 96.8901 100.351 97.0031 100.371 97.106C100.391 97.2089 100.388 97.2421 100.398 97.3119C100.408 97.3816 100.425 97.5377 100.444 97.644C100.464 97.7502 100.504 97.9362 100.544 98.0823C100.561 98.1454 100.584 98.2052 100.604 98.2649C100.637 98.3779 100.677 98.4874 100.72 98.597C100.743 98.6535 100.767 98.7133 100.793 98.7697C100.843 98.8859 100.903 98.9988 100.963 99.1018C100.989 99.1483 101.009 99.1914 101.036 99.2346C101.128 99.3891 101.23 99.5377 101.341 99.6796C102.052 100.566 103.099 101.131 103.872 101.961C103.872 101.994 103.872 102.027 103.872 102.057C103.872 102.15 103.872 102.24 103.872 102.333C103.914 104.184 104.406 105.998 105.308 107.615C106.21 109.233 107.494 110.606 109.048 111.614C109.048 111.741 109.064 111.87 109.071 111.996C109.136 112.982 109.123 113.971 109.034 114.955C108.899 114.796 108.73 114.669 108.539 114.584C108.348 114.499 108.14 114.458 107.932 114.464C107.789 114.457 107.646 114.469 107.506 114.5L107.476 114.477V114.507C106.746 114.686 105.846 115.447 104.985 117.608C104.985 117.608 102.368 120.557 100.375 120.434C98.3817 120.312 93.3361 123.503 93.3361 123.503C93.3361 123.503 88.4134 126.697 87.3571 129.952C86.7667 131.797 86.0588 133.603 85.2378 135.358L79.1525 147.894L78.0298 157.84C78.0298 157.84 78.6509 162.263 78.528 162.937C78.4051 163.611 81.0824 169.692 81.0824 169.692C81.0824 169.692 89.9281 185.229 93.542 186.026L93.8011 185.844C93.9558 185.925 94.1198 185.986 94.2894 186.026L95.0335 185.502C95.0782 186.087 95.0592 186.674 94.977 187.255C94.4788 188.789 95.163 198.801 96.0333 200.764C96.9036 202.727 96.5947 228.459 96.5947 228.459L96.4718 230.731C96.4718 230.731 96.4718 230.804 96.5017 230.93L96.4718 231.468L96.5615 231.514C96.6546 232.235 96.6243 232.966 96.4718 233.676C96.1595 234.673 96.0333 237.489 96.0333 237.489C96.0333 237.489 93.5454 253.388 94.7246 256.583C95.9038 259.778 96.9069 263.278 96.9069 263.278C96.9069 263.278 98.1525 267.263 96.9667 267.943C95.7809 268.624 92.4093 269.767 93.1036 271.427C93.7347 272.961 96.1296 277.072 96.4851 277.673L96.4552 277.989L95.9669 283.279C96.0459 283.977 96.2354 284.659 96.5282 285.298C97.063 286.45 98.1027 287.646 100.079 287.516C100.411 287.493 100.797 287.453 101.169 287.403C104.786 286.918 109.24 285.304 109.24 285.304C109.009 285.158 108.797 284.982 108.609 284.783C108.431 284.611 108.291 284.404 108.195 284.176C108.1 283.948 108.052 283.702 108.054 283.455C108.108 282.492 106.304 277.902 105.856 276.773C105.786 276.611 105.749 276.518 105.749 276.518C105.749 276.518 109.861 272.221 109.177 268.412C109.177 268.412 104.627 265.755 106.125 264.297C107.623 262.839 110.3 258.652 110.3 258.652C110.3 258.652 110.423 242.994 110.3 240.657C110.172 239.034 110.249 237.402 110.529 235.798C110.579 235.556 110.639 235.32 110.702 235.088C112.774 235.397 114.865 235.556 116.96 235.562C117.724 235.562 118.501 235.562 119.285 235.516C119.285 235.737 119.295 235.977 119.315 236.233C119.488 240.112 119.81 246.913 120.072 249.44C120.444 253.063 122.5 262.826 122.5 262.826C122.5 262.826 118.578 265.343 123.185 271.546C123.185 271.546 123.185 273.795 122.879 274.12C122.553 275.184 122.29 276.266 122.092 277.361C121.899 278.53 121.82 279.712 122.132 280.327C122.879 281.794 127.363 281.675 127.363 281.675L127.473 281.655C128.32 281.567 129.175 281.649 129.99 281.895C130.805 282.14 131.563 282.545 132.22 283.086C133.924 284.454 140.391 283.853 143.892 283.418C145.264 283.246 146.181 283.086 146.181 283.086C146.225 282.931 146.241 282.769 146.227 282.608C146.191 281.748 145.516 279.862 140.946 278.178C140.946 278.178 136.648 275.289 136.707 272.772H136.618H136.119C136.481 272.752 136.714 272.772 136.714 272.772C136.714 272.772 135.03 266.628 135.717 266.13C136.405 265.632 134.346 258.825 134.346 258.825C134.346 258.825 133.166 247.401 133.103 246.601C133.106 245.914 133.21 245.231 133.412 244.575L133.103 238.312C133.103 238.312 133.043 236.23 133.103 235.553C133.093 234.965 133.045 234.378 132.96 233.796C132.931 233.563 132.901 233.321 132.867 233.082C134.478 232.673 135.525 232.295 135.525 232.295L135.339 210.494C136.707 207.837 136.96 202.009 136.953 197.875C136.953 195.218 136.834 193.252 136.834 193.252L138.704 190.201C138.704 190.201 139.135 186.548 138.451 185.748C138.149 185.386 138.285 185.01 138.534 184.701C138.664 184.599 138.8 184.506 138.943 184.423C138.943 184.423 138.923 184.393 138.9 184.349C139.03 184.24 139.169 184.142 139.315 184.054C139.315 184.054 138.65 183.024 139.245 182.589C139.803 182.968 140.301 183.254 140.68 183.486C140.653 183.728 140.627 183.868 140.627 183.868L140.786 183.536C141.152 183.742 141.374 183.868 141.374 183.868C141.374 183.868 144.304 178.033 144.241 177.173C144.178 176.313 146.234 172.69 146.234 172.69C146.234 172.69 146.483 170.787 147.606 169.99C148.728 169.193 148.476 163.419 148.476 163.419C148.476 163.419 148.788 160.41 149.536 159.181C150.283 157.953 148.855 156.296 148.855 156.296ZM92.798 153.735L92.8545 155.127C92.5223 154.592 92.2831 154.207 92.2831 154.207L92.798 153.735Z" fill="url(#paint0_linear_391_1600)"/>
<path d="M141.534 181.348L140.816 184.403C140.816 184.403 135.07 181.47 134.033 177.744C132.997 174.019 135.767 172.604 135.767 172.604L141.122 174.872L141.534 181.348Z" fill="white"/>
<path opacity="0.1" d="M141.534 181.348L140.816 184.403C140.816 184.403 135.07 181.47 134.033 177.744C132.997 174.019 135.767 172.604 135.767 172.604L141.122 174.872L141.534 181.348Z" fill="black"/>
<path d="M109.283 285.324C109.283 285.324 103.969 287.277 100.315 287.523C98.3749 287.652 97.3551 286.463 96.8303 285.318C96.5436 284.681 96.3587 284.003 96.2822 283.309L96.7572 278.045L97.0097 275.243L104.772 273.227L105.872 276.587L105.975 276.843C106.417 277.966 108.187 282.532 108.134 283.485C108.132 283.729 108.179 283.971 108.273 284.196C108.366 284.422 108.504 284.626 108.679 284.796C108.857 284.997 109.06 285.175 109.283 285.324Z" fill="white"/>
<path d="M145.586 282.648C145.599 282.808 145.583 282.969 145.539 283.123C145.539 283.123 134.173 285.019 131.847 283.123C131.192 282.569 130.428 282.158 129.604 281.917C128.78 281.675 127.915 281.609 127.064 281.721C127.064 281.721 122.666 281.841 121.932 280.393C121.627 279.785 121.706 278.606 121.896 277.444C122.089 276.355 122.346 275.278 122.666 274.22L122.842 274.08L123.889 273.24L136.139 272.878H136.232C136.172 275.382 140.391 278.254 140.391 278.254C144.872 279.915 145.533 281.791 145.586 282.648Z" fill="white"/>
<path opacity="0.1" d="M145.586 282.648C145.598 282.808 145.581 282.969 145.536 283.123C145.536 283.123 134.173 285.019 131.848 283.123C131.192 282.569 130.429 282.159 129.606 281.917C128.783 281.676 127.918 281.609 127.068 281.721C127.068 281.721 122.667 281.841 121.936 280.393C121.63 279.782 121.707 278.606 121.896 277.444C123.59 277.614 126.264 278.035 127.314 279.041C128.901 280.572 131.592 282.1 133.243 282.219C134.535 282.302 142.264 282.548 145.586 282.648Z" fill="black"/>
<path opacity="0.1" d="M109.284 285.324C109.284 285.324 103.969 287.278 100.315 287.523C98.3752 287.653 97.3555 286.464 96.834 285.314C98.1859 285.77 100.063 286.248 101.049 285.809C102.218 285.291 106.364 284.956 108.689 284.813C108.866 285.007 109.066 285.178 109.284 285.324Z" fill="black"/>
<path d="M117.169 127.969C112.785 126.266 107.144 120.637 108.553 118.007C108.865 117.343 109.051 116.627 109.101 115.895C109.191 114.901 109.205 113.902 109.141 112.906C109.042 111.276 108.846 109.652 108.553 108.045C108.553 108.045 122.241 108.354 121.444 110.369C121.212 110.96 121.175 111.986 121.238 113.135C121.301 114.284 121.467 115.583 121.64 116.682C121.879 118.19 122.118 119.339 122.118 119.339C122.118 119.339 121.281 120.511 120.79 120.574C120.298 120.637 123.46 130.397 117.169 127.969Z" fill="#FAE0B4"/>
<path opacity="0.1" d="M105.965 276.843L105.862 276.956C101.77 272.008 96.8206 278.175 96.8206 278.175L96.7476 278.045L97 275.243L104.763 273.227L105.862 276.587L105.965 276.843Z" fill="black"/>
<path opacity="0.1" d="M136.236 273.227C136.236 273.227 133.246 273.164 131.652 274.572C130.057 275.981 122.351 274.878 122.683 274.572C122.782 274.421 122.841 274.247 122.856 274.067L123.902 273.227L136.153 272.865C136.199 273.087 136.236 273.227 136.236 273.227Z" fill="black"/>
<path d="M111.057 234.37C110.834 234.921 110.665 235.491 110.552 236.074C110.275 237.67 110.198 239.294 110.323 240.909C110.446 243.234 110.323 258.811 110.323 258.811C110.323 258.811 107.695 262.966 106.231 264.43C104.766 265.894 109.22 268.525 109.22 268.525C109.884 272.31 105.859 276.587 105.859 276.587C101.766 271.639 96.8169 277.809 96.8169 277.809C96.8169 277.809 94.1264 273.16 93.4554 271.5C92.7844 269.84 96.0828 268.691 97.2421 268.016C98.4014 267.342 97.1856 263.367 97.1856 263.367C97.1856 263.367 96.2057 259.884 95.0431 256.706C93.8806 253.528 96.3253 237.708 96.3253 237.708C96.3253 237.708 96.4515 234.898 96.7538 233.919C96.9063 233.212 96.9367 232.484 96.8435 231.767C96.8236 231.524 96.8003 231.322 96.7837 231.186C96.7671 231.05 96.7538 230.986 96.7538 230.986L96.8003 230.907L98.4612 227.812C98.4612 227.812 111.854 232.421 111.057 234.37Z" fill="#12B3B3"/>
<path d="M136.236 272.862C136.236 272.862 133.246 272.798 131.652 274.19C130.057 275.581 122.351 274.495 122.683 274.19C123.015 273.884 122.989 271.623 122.989 271.623C118.468 265.453 122.324 262.949 122.324 262.949C122.324 262.949 120.305 253.236 119.94 249.633C119.684 247.116 119.368 240.351 119.199 236.489C119.126 234.829 119.083 233.686 119.083 233.686L122.776 232.942L123.251 232.846L132.16 231.06C132.16 231.06 132.406 232.72 132.572 234.078C132.655 234.658 132.701 235.243 132.711 235.828C132.652 236.492 132.711 238.571 132.711 238.571L133.014 244.804C132.816 245.458 132.714 246.137 132.711 246.82C132.771 247.614 133.93 258.977 133.93 258.977C133.93 258.977 135.947 265.758 135.259 266.247C134.572 266.735 136.236 272.862 136.236 272.862Z" fill="#12B3B3"/>
<path opacity="0.1" d="M121.444 110.369C121.212 110.96 121.175 111.986 121.238 113.135C119.405 114.239 117.297 114.804 115.157 114.764C113.017 114.724 110.932 114.081 109.141 112.91C109.042 111.278 108.846 109.653 108.553 108.045C108.553 108.045 122.241 108.347 121.444 110.369Z" fill="black"/>
<path d="M126.736 103.03C126.739 104.227 126.55 105.416 126.178 106.554C125.346 109.102 123.639 111.274 121.36 112.686C119.081 114.098 116.376 114.659 113.723 114.27C111.07 113.881 108.64 112.567 106.862 110.56C105.085 108.553 104.074 105.982 104.009 103.303C104.009 103.21 104.009 103.123 104.009 103.03C103.983 101.522 104.258 100.023 104.818 98.6223C105.377 97.2212 106.21 95.9455 107.268 94.8697C108.326 93.7938 109.588 92.9393 110.979 92.356C112.371 91.7727 113.865 91.4723 115.374 91.4723C116.883 91.4723 118.377 91.7727 119.769 92.356C121.161 92.9393 122.422 93.7938 123.48 94.8697C124.538 95.9455 125.371 97.2212 125.931 98.6223C126.49 100.023 126.765 101.522 126.739 103.03H126.736Z" fill="#F6DCB1"/>
<path opacity="0.1" d="M117.169 127.969C112.785 126.266 107.144 120.637 108.553 118.007C108.865 117.343 109.051 116.627 109.101 115.895L115.103 120.826L118.817 123.871L121.64 116.685C121.879 118.193 122.118 119.342 122.118 119.342C122.118 119.342 121.281 120.514 120.79 120.577C120.298 120.64 123.46 130.397 117.169 127.969Z" fill="black"/>
<path d="M132.692 149.764L127.679 233.945L121.142 234.374L104.215 185.562L106.992 127.611L107.576 115.367L115.103 121.547L118.82 124.592L121.727 117.197L127.131 121.906L132.692 149.764Z" fill="#12B3B3"/>
<path opacity="0.1" d="M111.057 234.37C110.835 234.921 110.665 235.491 110.552 236.074C105.796 235.34 101.176 233.897 96.847 231.793L96.7573 231.747L96.7872 231.212L96.8038 230.933L98.4647 227.838C98.4647 227.838 111.854 232.421 111.057 234.37Z" fill="black"/>
<path opacity="0.1" d="M122.853 236.088C121.637 236.295 120.41 236.435 119.179 236.507C119.106 234.846 119.062 233.703 119.062 233.703L122.756 232.959L122.853 236.088Z" fill="black"/>
<path opacity="0.1" d="M132.552 234.095C130.19 234.709 126.543 235.4 123.278 234.968L123.231 232.863L132.14 231.076C132.14 231.076 132.386 232.72 132.552 234.095Z" fill="black"/>
<path opacity="0.1" d="M123.218 235.353C109.599 237.678 97.126 231.013 97.126 231.013L97.2456 228.755C97.2456 228.755 97.5545 203.155 96.6975 201.192C95.8406 199.23 95.1729 189.278 95.6579 187.75C96.1428 186.222 93.8874 163.316 93.8874 163.316L93.522 154.018L80.1489 148.601L86.128 136.142C86.9355 134.395 87.6301 132.598 88.2073 130.762C89.247 127.528 94.0734 124.35 94.0734 124.35C94.0734 124.35 99.0227 121.175 100.979 121.295C102.936 121.414 105.5 118.485 105.5 118.485C107.393 113.66 109.107 115.845 109.107 115.845C109.107 116.074 109.107 115.845 109.014 116.559C108.35 121.856 119.757 138.592 119.919 138.888L121.006 165.341L122.105 198.818L123.218 235.353Z" fill="black"/>
<path d="M122.853 235.353C109.234 237.678 96.7577 231.013 96.7577 231.013L96.8806 228.755C96.8806 228.755 97.1895 203.155 96.3292 201.192C95.4689 199.23 94.8045 189.278 95.2928 187.75C95.7811 186.222 93.5224 163.316 93.5224 163.316L93.1537 154.017L79.7739 148.581L85.753 136.122C86.5588 134.374 87.2533 132.577 87.8323 130.742C88.8687 127.508 93.6984 124.33 93.6984 124.33C93.6984 124.33 98.6477 121.155 100.601 121.275C102.554 121.394 105.122 118.465 105.122 118.465C107.018 113.64 109.108 115.825 109.108 115.825C109.108 116.054 108.908 116.157 109.015 116.539C110.476 121.676 119.392 138.573 119.554 138.868L120.654 165.321L121.753 198.798L122.853 235.353Z" fill="white"/>
<path opacity="0.1" d="M119.182 139.622C117.717 139.011 109.957 130.154 109.957 130.154V128.139C109.675 127.474 107.998 127.88 106.636 128.345L107.22 116.101L107.885 116.652C109.34 121.786 119.012 139.326 119.182 139.622Z" fill="black"/>
<path d="M119.551 138.888C118.083 138.277 110.323 129.42 110.323 129.42V127.405C110.041 126.741 108.363 127.146 107.001 127.611L107.589 115.367L108.254 115.918C109.712 121.052 119.388 138.596 119.551 138.888Z" fill="white"/>
<path opacity="0.1" d="M97.1263 183.058C97.309 183.058 106.596 182.081 106.596 182.081C106.596 182.081 112.22 193.136 111.851 195.826C111.483 198.516 110.815 200.897 108.553 200.475C106.291 200.054 96.3789 200.807 96.3789 200.807L97.1263 183.058Z" fill="black"/>
<path d="M96.7571 182.324C96.9398 182.324 106.227 181.347 106.227 181.347C106.227 181.347 111.848 192.406 111.482 195.092C111.117 197.779 110.442 200.163 108.184 199.741C105.925 199.32 96.0098 200.073 96.0098 200.073L96.7571 182.324Z" fill="white"/>
<path d="M103.756 177.133C103.756 177.133 112.28 181.713 112.462 183.111C112.645 184.509 108.124 182.5 107.148 182.257C106.505 182.103 105.85 182 105.191 181.952L98.6772 182.128L103.756 177.133Z" fill="#F6DCB1"/>
<path opacity="0.1" d="M116.804 140.194C117.299 140.194 117.7 139.792 117.7 139.297C117.7 138.801 117.299 138.4 116.804 138.4C116.308 138.4 115.907 138.801 115.907 139.297C115.907 139.792 116.308 140.194 116.804 140.194Z" fill="black"/>
<path d="M116.804 139.828C117.299 139.828 117.7 139.427 117.7 138.931C117.7 138.436 117.299 138.035 116.804 138.035C116.308 138.035 115.907 138.436 115.907 138.931C115.907 139.427 116.308 139.828 116.804 139.828Z" fill="#3F3D56"/>
<path opacity="0.1" d="M118.455 179.007C118.95 179.007 119.352 178.605 119.352 178.11C119.352 177.615 118.95 177.213 118.455 177.213C117.96 177.213 117.558 177.615 117.558 178.11C117.558 178.605 117.96 179.007 118.455 179.007Z" fill="black"/>
<path d="M118.455 178.638C118.95 178.638 119.352 178.237 119.352 177.741C119.352 177.246 118.95 176.845 118.455 176.845C117.96 176.845 117.558 177.246 117.558 177.741C117.558 178.237 117.96 178.638 118.455 178.638Z" fill="#3F3D56"/>
<path opacity="0.1" d="M117.697 159.6C118.192 159.6 118.594 159.199 118.594 158.703C118.594 158.208 118.192 157.807 117.697 157.807C117.202 157.807 116.8 158.208 116.8 158.703C116.8 159.199 117.202 159.6 117.697 159.6Z" fill="black"/>
<path d="M117.697 159.235C118.192 159.235 118.594 158.833 118.594 158.338C118.594 157.843 118.192 157.441 117.697 157.441C117.202 157.441 116.8 157.843 116.8 158.338C116.8 158.833 117.202 159.235 117.697 159.235Z" fill="#3F3D56"/>
<path d="M138.371 181.766C138.371 181.766 138.983 182.682 138.371 183.111C137.76 183.539 138.431 184.575 138.431 184.575C138.431 184.575 136.906 185.469 137.577 186.272C138.248 187.076 137.823 190.705 137.823 190.705L135.99 193.741C135.99 193.741 136.099 195.697 136.106 198.34C136.106 202.464 135.863 208.262 134.522 210.906L134.708 232.594C134.708 232.594 128.287 234.938 122.912 234.224L122.115 199.422C122.115 199.422 123.278 179.687 123.706 175.901C123.957 173.936 124.059 171.955 124.012 169.974C124.012 169.974 123.829 164.05 123.215 161.3C123.215 161.3 122.55 149.388 122.484 146.091C122.454 144.513 122.537 139.911 122.63 135.534C122.733 130.749 122.849 126.236 122.849 126.236L121.637 116.645C121.637 116.645 122.849 116.523 123.215 117.011C123.378 117.164 123.556 117.3 123.746 117.419C125.839 118.834 133.233 123.184 133.233 123.184C133.233 123.184 137.325 124.811 138.305 127.142C139.285 129.474 139.966 131.127 140.441 131.792C140.916 132.456 141.175 135.577 141.175 135.577C141.175 135.577 142.583 141.322 143.683 142.295C144.782 143.268 145.586 149.458 145.586 149.458L135.87 157.096C135.87 157.096 135.016 169.801 134.834 170.293C134.651 170.784 138.371 181.766 138.371 181.766Z" fill="white"/>
<path d="M138.74 181.766C138.74 181.766 139.348 182.682 138.74 183.111C138.133 183.539 138.797 184.575 138.797 184.575C138.797 184.575 137.282 185.479 137.946 186.282C138.611 187.086 138.192 190.715 138.192 190.715L136.359 193.751C136.359 193.751 136.468 195.707 136.478 198.35C136.478 202.474 136.236 208.272 134.894 210.916L135.077 232.604C135.077 232.604 128.646 234.948 123.278 234.234L122.484 199.432C122.484 199.432 123.647 179.697 124.075 175.911C124.326 173.946 124.427 171.964 124.377 169.984C124.377 169.984 124.195 164.059 123.584 161.31C123.584 161.31 122.919 149.398 122.849 146.101C122.82 144.523 122.906 139.921 122.996 135.544C123.099 130.759 123.215 126.246 123.215 126.246L121.614 116.526C121.614 116.526 123.215 116.526 123.584 117.021C123.746 117.175 123.924 117.312 124.115 117.429C126.208 118.844 133.605 123.194 133.605 123.194C133.605 123.194 137.694 124.821 138.674 127.152C139.654 129.484 140.335 131.137 140.813 131.801C141.291 132.466 141.544 135.587 141.544 135.587C141.544 135.587 142.952 141.332 144.052 142.305C145.151 143.278 145.945 149.455 145.945 149.455L136.229 157.093C136.229 157.093 135.376 169.798 135.189 170.289C135.003 170.781 138.74 181.766 138.74 181.766Z" fill="white"/>
<path opacity="0.1" d="M127.104 129.065L127.981 131.622L123.364 136.271C123.467 131.489 123.583 126.973 123.583 126.973L121.982 117.253C121.982 117.253 123.583 117.253 123.952 117.748C124.114 117.902 124.292 118.038 124.484 118.153L128.41 129.477L127.104 129.065Z" fill="black"/>
<path d="M126.736 128.331L127.616 130.888L122.999 135.537C123.102 130.752 123.218 126.239 123.218 126.239L121.614 116.519C121.614 116.519 123.218 116.519 123.584 117.014C123.746 117.168 123.925 117.305 124.115 117.422L128.045 128.743L126.736 128.331Z" fill="white"/>
<path opacity="0.1" d="M126.736 103.03C126.739 104.227 126.55 105.416 126.178 106.554C126.115 106.563 126.051 106.561 125.989 106.545C125.928 106.53 125.87 106.502 125.819 106.464C125.733 103.475 124.261 100.669 122.451 98.2816C121.943 97.5607 121.327 96.9223 120.624 96.3887C119.914 95.8555 119.03 95.6057 118.146 95.6881C117.15 95.8242 116.269 96.5016 115.263 96.588C113.934 96.6976 112.745 95.7777 111.426 95.7312C110.89 95.7363 110.361 95.8557 109.875 96.0813C109.389 96.3069 108.956 96.6336 108.606 97.0396C107.913 97.8589 107.399 98.8134 107.095 99.8423C106.573 101.403 106.288 103.033 106.251 104.677C106.235 105.607 106.145 106.773 105.281 107.112C105.346 106.428 105.268 105.738 105.053 105.086C104.837 104.433 104.489 103.833 104.029 103.323L104.009 103.303C104.009 103.21 104.009 103.123 104.009 103.03C103.983 101.522 104.258 100.023 104.818 98.6223C105.377 97.2212 106.21 95.9455 107.268 94.8697C108.326 93.7938 109.588 92.9393 110.979 92.356C112.371 91.7727 113.865 91.4723 115.374 91.4723C116.883 91.4723 118.377 91.7727 119.769 92.356C121.161 92.9393 122.422 93.7938 123.48 94.8697C124.538 95.9455 125.371 97.2212 125.931 98.6223C126.49 100.023 126.765 101.522 126.739 103.03H126.736Z" fill="black"/>
<path d="M120.079 84.9885C118.353 84.1768 116.39 84.0233 114.558 84.5568C113.638 84.8291 112.771 85.2708 111.838 85.4933C109.845 85.9748 107.52 85.4534 105.809 86.619C104.859 87.2832 104.288 88.3325 103.756 89.352L102.428 91.8824C101.704 93.2672 100.973 94.6752 100.67 96.1994C100.368 97.7237 100.551 99.4306 101.517 100.656C102.222 101.549 103.261 102.11 104.025 102.951C104.483 103.462 104.83 104.062 105.045 104.713C105.26 105.365 105.338 106.053 105.274 106.736C106.141 106.404 106.224 105.235 106.244 104.305C106.281 102.661 106.566 101.031 107.088 99.4704C107.391 98.4412 107.906 97.4866 108.599 96.6677C108.95 96.262 109.382 95.9355 109.868 95.7099C110.355 95.4843 110.883 95.3648 111.419 95.3593C112.748 95.4058 113.941 96.3223 115.256 96.2127C116.252 96.1297 117.136 95.449 118.139 95.3161C119.024 95.2325 119.908 95.4824 120.617 96.0168C121.319 96.5495 121.935 97.1881 122.441 97.9097C124.254 100.297 125.726 103.097 125.812 106.092C126.188 106.368 126.729 106.009 126.915 105.584C127.101 105.159 127.108 104.661 127.344 104.256C127.616 103.787 128.137 103.538 128.546 103.186C129.582 102.293 129.841 100.789 129.802 99.4239C129.762 98.0591 129.496 96.6743 129.755 95.3327C129.911 94.5092 130.263 93.7388 130.456 92.9252C130.649 92.1116 130.672 91.1984 130.217 90.4977C129.552 89.4682 128.154 89.2657 126.935 89.1694C125.55 89.0498 124.311 89.2026 123.427 88.037C123.013 87.4287 122.546 86.8576 122.032 86.3301C121.856 86.1574 120.079 85.0616 120.079 84.9885Z" fill="#232323"/>
<path opacity="0.1" d="M83.9754 155.017L80.5043 148.601L79.4048 158.501C79.4048 158.501 80.016 162.897 79.8931 163.571C79.7702 164.245 82.3976 170.289 82.3976 170.289C82.3976 170.289 91.0772 185.744 94.6214 186.541L106.596 177.987L103.421 173.955C103.421 173.955 102.321 173.527 102.045 173.955C102.045 173.955 96.1494 163.814 95.5382 163.08C94.927 162.346 95.0466 160.882 95.0466 160.882C95.0466 160.882 94.1298 159.905 94.4354 158.989C94.741 158.072 92.6649 154.894 92.6649 154.894L94.5583 153.124L83.9754 155.017Z" fill="black"/>
<path d="M80.6872 147.871L79.7704 148.601L78.6709 158.501C78.6709 158.501 79.2821 162.897 79.1592 163.571C79.0363 164.246 81.6671 170.289 81.6671 170.289C81.6671 170.289 90.3433 185.744 93.8875 186.541L105.866 177.987L102.687 173.955C102.687 173.955 101.587 173.527 101.311 173.955C101.311 173.955 95.4155 163.814 94.8043 163.08C94.1931 162.346 94.316 160.882 94.316 160.882C94.316 160.882 93.3992 159.905 93.7048 158.989C94.0104 158.072 91.9311 154.894 91.9311 154.894L93.8244 153.124L80.6872 147.871Z" fill="white"/>
<path opacity="0.1" d="M137.577 186.651C138.242 187.458 137.823 191.081 137.823 191.081L135.99 194.116C135.99 194.116 136.099 196.075 136.106 198.715L133.023 199.678C132.745 199.765 132.449 199.784 132.162 199.734C131.874 199.684 131.603 199.565 131.371 199.389C131.138 199.212 130.952 198.983 130.826 198.72C130.7 198.456 130.639 198.167 130.648 197.875L131.18 180.736L138.371 183.486C137.76 183.911 138.431 184.954 138.431 184.954C138.431 184.954 136.906 185.844 137.577 186.651Z" fill="black"/>
<path d="M137.946 186.282C138.611 187.089 138.192 190.715 138.192 190.715L136.359 193.751C136.359 193.751 136.468 195.707 136.478 198.35L133.339 199.329C133.066 199.414 132.777 199.433 132.496 199.383C132.214 199.334 131.949 199.218 131.722 199.045C131.494 198.872 131.311 198.647 131.188 198.389C131.065 198.132 131.005 197.848 131.014 197.563L131.549 180.371L138.744 183.121C138.129 183.546 138.8 184.585 138.8 184.585C138.8 184.585 137.282 185.479 137.946 186.282Z" fill="white"/>
<path d="M140.328 178.113C140.328 178.113 139.84 181.231 138.617 181.414C137.395 181.597 136.847 186.458 135.628 186.286C134.409 186.113 135.216 181.766 135.259 180.922C135.302 180.079 133.93 176.586 134.957 175.792C135.983 174.998 139.232 175.792 139.232 175.792L140.328 178.113Z" fill="#F6DCB1"/>
<path opacity="0.1" d="M142.929 154.101L145.234 149.451C145.234 149.451 146.151 152.995 146.151 154.888C146.151 156.78 147.433 156.966 147.433 156.966C147.433 156.966 148.838 158.627 148.097 159.836C147.357 161.044 147.058 164.053 147.058 164.053C147.058 164.053 147.3 169.795 146.201 170.588C145.101 171.382 144.872 173.278 144.872 173.278C144.872 173.278 142.853 176.881 142.916 177.738C142.979 178.595 140.106 184.396 140.106 184.396C140.106 184.396 141.511 177.187 133.323 174.072C133.323 174.072 133.26 171.624 133.871 170.954C134.482 170.283 135.435 169.977 134.837 166.587C134.239 163.196 134.665 159.145 134.665 158.331C134.665 157.518 136.498 152.444 136.498 152.444L142.929 154.101Z" fill="black"/>
<path d="M143.925 148.787L145.938 149.451C145.938 149.451 146.858 152.995 146.858 154.888C146.858 156.78 148.141 156.966 148.141 156.966C148.141 156.966 149.546 158.627 148.805 159.836C148.064 161.044 147.769 164.053 147.769 164.053C147.769 164.053 148.011 169.795 146.912 170.588C145.812 171.382 145.566 173.278 145.566 173.278C145.566 173.278 143.55 176.881 143.613 177.738C143.676 178.595 140.8 184.396 140.8 184.396C140.8 184.396 142.208 177.187 134.017 174.072C134.017 174.072 133.957 171.624 134.568 170.953C135.179 170.283 136.133 169.977 135.535 166.587C134.937 163.196 135.362 159.145 135.362 158.331C135.362 157.518 137.196 152.443 137.196 152.443L143.925 148.787Z" fill="white"/>
<path opacity="0.1" d="M99.4644 269.289C99.4644 269.289 102.673 267.272 104.779 268.737C106.885 270.202 99.4644 269.289 99.4644 269.289Z" fill="black"/>
<path opacity="0.1" d="M124.397 263.055C124.397 263.055 127.238 262.69 129.622 265.257C132.007 267.825 124.397 263.055 124.397 263.055Z" fill="black"/>
<g opacity="0.1">
<path d="M128.553 102.459C128.144 102.811 127.619 103.063 127.347 103.532C127.114 103.934 127.108 104.428 126.922 104.86C126.736 105.292 126.194 105.644 125.819 105.371C125.733 102.383 124.258 99.5767 122.447 97.1857C121.941 96.4641 121.326 95.8256 120.624 95.2929C119.913 94.7585 119.028 94.5086 118.143 94.5922C117.146 94.7283 116.269 95.4058 115.263 95.4888C113.934 95.6017 112.741 94.6818 111.423 94.6353C110.887 94.6407 110.358 94.7605 109.872 94.9867C109.387 95.2129 108.955 95.5404 108.606 95.9471C107.913 96.7647 107.398 97.7182 107.095 98.7465C106.573 100.307 106.288 101.937 106.251 103.582C106.231 104.508 106.145 105.664 105.288 106.009C105.308 106.254 105.308 106.501 105.288 106.746C106.151 106.414 106.238 105.245 106.258 104.315C106.295 102.671 106.579 101.041 107.101 99.4804C107.404 98.4511 107.919 97.4965 108.613 96.6776C108.962 96.272 109.394 95.9456 109.88 95.72C110.366 95.4944 110.894 95.3748 111.429 95.3692C112.758 95.4157 113.954 96.3323 115.269 96.2227C116.266 96.1397 117.149 95.4589 118.149 95.3261C119.035 95.2425 119.92 95.4924 120.63 96.0268C121.333 96.5595 121.948 97.198 122.454 97.9196C124.264 100.307 125.739 103.107 125.826 106.102C126.201 106.378 126.742 106.019 126.928 105.594C127.114 105.169 127.121 104.671 127.354 104.266C127.626 103.797 128.151 103.548 128.559 103.196C129.596 102.303 129.855 100.799 129.815 99.4339C129.815 99.3907 129.815 99.3475 129.815 99.3077C129.752 100.49 129.436 101.695 128.553 102.459Z" fill="black"/>
<path d="M104.032 102.223C103.268 101.383 102.225 100.822 101.524 99.932C100.934 99.1441 100.597 98.1958 100.557 97.2123C100.453 98.4413 100.796 99.6666 101.524 100.663C102.225 101.556 103.268 102.117 104.032 102.957C104.765 103.779 105.206 104.821 105.284 105.919C105.335 105.251 105.25 104.579 105.035 103.944C104.82 103.309 104.479 102.723 104.032 102.223Z" fill="black"/>
<path d="M130.463 92.1979C130.267 93.0115 129.918 93.7852 129.758 94.6055C129.664 95.1535 129.629 95.7103 129.655 96.2658C129.666 95.9494 129.701 95.6342 129.758 95.3227C129.918 94.4992 130.267 93.7288 130.463 92.9152C130.577 92.4664 130.614 92.0015 130.572 91.5404C130.551 91.7619 130.515 91.9816 130.463 92.1979Z" fill="black"/>
</g>
<path opacity="0.1" d="M44.929 282.791C62.8045 282.791 77.2954 280.464 77.2954 277.594C77.2954 274.723 62.8045 272.397 44.929 272.397C27.0535 272.397 12.5625 274.723 12.5625 277.594C12.5625 280.464 27.0535 282.791 44.929 282.791Z" fill="#6E6E6E"/>
<path d="M45.9723 223.875V179.078C45.9723 178.503 45.5061 178.037 44.931 178.037C44.3559 178.037 43.8896 178.503 43.8896 179.078V223.875C43.8896 224.45 44.3559 224.916 44.931 224.916C45.5061 224.916 45.9723 224.45 45.9723 223.875Z" fill="#232323"/>
<path d="M59.0599 224.773L58.9304 226.885L58.7443 229.874L58.6679 231.116L58.4853 234.105L58.4055 235.347L58.2195 238.335L56.1202 272.231C56.029 273.689 55.3853 275.058 54.3202 276.058C53.2551 277.059 51.8486 277.616 50.387 277.617H39.4719C38.0107 277.616 36.6046 277.059 35.54 276.058C34.4754 275.057 33.8325 273.689 33.742 272.231L31.6527 238.312L31.4667 235.323L31.3903 234.081L31.2043 231.093L31.1279 229.851L30.9419 226.862L30.809 224.75C30.7859 224.344 30.8462 223.937 30.986 223.554C31.1259 223.172 31.3424 222.822 31.6224 222.526C31.9023 222.231 32.2397 221.995 32.614 221.835C32.9882 221.674 33.3913 221.591 33.7985 221.592H56.1235C56.5293 221.596 56.93 221.682 57.3009 221.846C57.6719 222.011 58.0052 222.249 58.2804 222.547C58.5555 222.846 58.7666 223.197 58.9007 223.58C59.0348 223.962 59.089 224.369 59.0599 224.773Z" fill="#080908"/>
<path d="M58.93 226.885L58.744 229.865H31.1142L30.9282 226.885H58.93Z" fill="white"/>
<path d="M58.6674 231.106L58.4847 234.089H31.3764L31.1904 231.106H58.6674Z" fill="white"/>
<path d="M58.4053 235.333L58.2226 238.313H31.6391L31.4531 235.333H58.4053Z" fill="white"/>
<path d="M27.7498 195.607C39.8773 204.38 44.9395 218.102 44.9395 218.102C44.9395 218.102 30.3241 217.6 18.1933 208.827C6.06253 200.053 1.01025 186.335 1.01025 186.335C1.01025 186.335 15.619 186.833 27.7498 195.607Z" fill="#12B3B3"/>
<path d="M1 186.335C1 186.335 16.1734 194.753 21.0397 201.724C25.906 208.694 44.9392 218.102 44.9392 218.102" fill="#232323"/>
<path d="M1 186.335C1 186.335 16.1734 194.753 21.0397 201.724C25.906 208.694 44.9392 218.102 44.9392 218.102" stroke="#232323" stroke-width="0.664336" stroke-miterlimit="10"/>
<path d="M35.5786 177.934C42.1787 182.706 44.9391 190.174 44.9391 190.174C44.9391 190.174 36.9836 189.902 30.3801 185.13C23.7766 180.358 21.0229 172.886 21.0229 172.886C21.0229 172.886 28.9751 173.158 35.5786 177.934Z" fill="#12B3B3"/>
<path d="M21.0229 172.886C21.0229 172.886 29.2807 177.469 31.928 181.261C34.5754 185.053 44.9391 190.174 44.9391 190.174" fill="#232323"/>
<path d="M21.0229 172.886C21.0229 172.886 29.2807 177.469 31.928 181.261C34.5754 185.053 44.9391 190.174 44.9391 190.174" stroke="#232323" stroke-width="0.664336" stroke-miterlimit="10"/>
<path d="M54.5222 189.796C46.9388 198.127 45.3345 209.016 45.3345 209.016C45.3345 209.016 56.027 206.393 63.6037 198.058C71.1805 189.722 72.7915 178.837 72.7915 178.837C72.7915 178.837 62.1056 181.464 54.5222 189.796Z" fill="#12B3B3"/>
<path d="M72.7981 178.84C72.7981 178.84 62.9195 187.381 60.4083 193.266C57.8971 199.15 45.3345 209.016 45.3345 209.016" fill="#232323"/>
<path d="M72.7981 178.84C72.7981 178.84 62.9195 187.381 60.4083 193.266C57.8971 199.15 45.3345 209.016 45.3345 209.016" stroke="#232323" stroke-width="0.664336" stroke-miterlimit="10"/>
<path d="M205.625 0H205.376C195.464 0 186.698 5.24351 181.656 12.9809C176.614 5.24351 167.848 0 157.936 0H157.687C150.248 0.0708683 143.138 3.07372 137.902 8.35598C132.665 13.6383 129.726 20.7731 129.722 28.21C129.722 37.4451 133.767 50.5489 141.656 61.3314C156.687 81.8771 181.656 99.8525 181.656 99.8525C181.656 99.8525 206.625 81.8804 221.653 61.3314C229.545 50.5489 233.587 37.4451 233.587 28.21C233.583 20.7737 230.644 13.6393 225.408 8.35715C220.173 3.07497 213.063 0.0717378 205.625 0ZM202.061 62.9121C200.932 62.9078 199.831 62.5624 198.902 61.9212C197.973 61.2799 197.26 60.3729 196.856 59.319H190.93C190.54 59.3166 190.16 59.1924 189.844 58.9638C189.528 58.7352 189.291 58.4136 189.166 58.0439L187.346 52.5613L181.586 72.6819C181.474 73.0692 181.239 73.4097 180.917 73.6522C180.595 73.8947 180.203 74.0261 179.799 74.0268H179.683C179.262 74.0064 178.861 73.8423 178.547 73.5619C178.232 73.2814 178.024 72.9016 177.956 72.4859L172.02 36.7942L167.682 57.9144C167.582 58.3156 167.351 58.6719 167.026 58.9265C166.7 59.1811 166.298 59.3193 165.885 59.319H157.537C157.287 59.3296 157.037 59.2895 156.803 59.2011C156.569 59.1126 156.355 58.9777 156.174 58.8045C155.993 58.6312 155.849 58.4232 155.751 58.1929C155.653 57.9626 155.602 57.7148 155.602 57.4644C155.602 57.214 155.653 56.9662 155.751 56.7359C155.849 56.5056 155.993 56.2976 156.174 56.1243C156.355 55.9511 156.569 55.8162 156.803 55.7277C157.037 55.6393 157.287 55.5992 157.537 55.6097H164.423L170.568 27.2138C170.669 26.7939 170.913 26.4222 171.258 26.162C171.602 25.9019 172.027 25.7695 172.458 25.7876C172.89 25.8056 173.302 25.9729 173.623 26.2609C173.945 26.549 174.157 26.9397 174.222 27.3665L180.284 63.7755L185.446 45.7736C185.554 45.3945 185.781 45.0602 186.094 44.8208C186.407 44.5814 186.789 44.4497 187.183 44.4453H187.22C187.61 44.4454 187.991 44.5688 188.307 44.7977C188.623 45.0267 188.859 45.3496 188.98 45.7205L192.272 55.6197H196.783C197.104 54.6456 197.688 53.779 198.47 53.1156C199.252 52.4522 200.202 52.0177 201.216 51.8602C202.23 51.7027 203.267 51.8282 204.214 52.2229C205.161 52.6176 205.98 53.2662 206.581 54.097C207.183 54.9278 207.543 55.9086 207.622 56.931C207.701 57.9535 207.496 58.9779 207.029 59.8912C206.563 60.8045 205.853 61.5712 204.978 62.1066C204.103 62.642 203.097 62.9254 202.071 62.9254L202.061 62.9121Z" fill="#E7241C"/>
<path d="M300.299 268.542C294.293 274.971 287.411 280.522 279.855 285.031C279.682 285.138 279.506 285.238 279.329 285.341L267.098 274.518C267.226 274.399 267.368 274.265 267.522 274.118C276.635 265.467 321.879 204.977 324.894 190.247C324.686 191.474 327.614 239.599 300.299 268.542Z" fill="#D5D5D5"/>
<path d="M282.215 287.119C281.984 287.175 281.749 287.226 281.513 287.273L272.336 279.154C272.516 279.091 272.725 279.017 272.965 278.934C276.902 277.541 288.628 273.333 300.298 268.541C312.837 263.39 325.316 257.569 328 253.841C327.424 254.707 309.69 280.977 282.215 287.119Z" fill="#D5D5D5"/>
<path d="M300.129 108.445H298.823V72.656C298.823 69.9358 298.287 67.2423 297.246 64.7292C296.204 62.2161 294.678 59.9327 292.754 58.0092C290.83 56.0858 288.546 54.56 286.032 53.5191C283.519 52.4781 280.824 51.9424 278.103 51.9424H202.259C199.538 51.9423 196.844 52.4781 194.33 53.5191C191.817 54.56 189.533 56.0858 187.609 58.0092C185.685 59.9326 184.158 62.2161 183.117 64.7292C182.076 67.2423 181.54 69.9358 181.54 72.6559V268.996C181.54 271.717 182.076 274.41 183.117 276.923C184.158 279.436 185.685 281.72 187.609 283.643C189.533 285.567 191.817 287.092 194.33 288.133C196.844 289.174 199.538 289.71 202.259 289.71H278.103C280.824 289.71 283.519 289.174 286.032 288.133C288.546 287.092 290.83 285.567 292.754 283.643C294.678 281.72 296.204 279.436 297.245 276.923C298.287 274.41 298.823 271.717 298.823 268.996V133.92H300.129V108.445Z" fill="#080908"/>
<path d="M294.413 72.7982V268.853C294.413 270.884 294.012 272.896 293.235 274.773C292.457 276.649 291.317 278.355 289.88 279.791C288.443 281.227 286.737 282.366 284.859 283.143C282.982 283.92 280.969 284.319 278.937 284.318H202.728C200.697 284.319 198.685 283.919 196.808 283.142C194.931 282.364 193.226 281.225 191.789 279.789C190.352 278.353 189.213 276.648 188.436 274.772C187.658 272.895 187.258 270.884 187.258 268.853V72.7982C187.258 70.7672 187.658 68.7561 188.436 66.8796C189.213 65.0032 190.352 63.2982 191.789 61.8621C193.226 60.426 194.931 59.2868 196.808 58.5096C198.685 57.7325 200.697 57.3325 202.728 57.3327H211.976C211.523 58.4487 211.35 59.659 211.473 60.8574C211.597 62.0557 212.014 63.2053 212.686 64.205C213.358 65.2048 214.266 66.024 215.329 66.5908C216.393 67.1575 217.579 67.4543 218.784 67.4551H262.233C263.439 67.4562 264.627 67.1607 265.691 66.5945C266.755 66.0283 267.664 65.2089 268.337 64.2086C269.01 63.2083 269.426 62.0578 269.549 60.8587C269.672 59.6595 269.497 58.4486 269.041 57.3327H278.937C280.969 57.332 282.982 57.7315 284.859 58.5083C286.737 59.2852 288.443 60.4243 289.88 61.8605C291.317 63.2966 292.457 65.0018 293.235 66.8785C294.012 68.7553 294.413 70.7668 294.413 72.7982Z" fill="white"/>
<path d="M271.371 173.351H204.385C203.212 173.349 202.087 172.883 201.257 172.053C200.427 171.224 199.961 170.099 199.959 168.926V166.724C199.961 165.551 200.427 164.427 201.257 163.597C202.087 162.768 203.212 162.301 204.385 162.3H271.371C272.544 162.301 273.669 162.768 274.498 163.597C275.328 164.427 275.795 165.551 275.796 166.724V168.926C275.795 170.099 275.328 171.224 274.498 172.053C273.669 172.883 272.544 173.349 271.371 173.351Z" fill="#12B3B3"/>
<path d="M271.371 192.333H204.385C203.212 192.332 202.087 191.866 201.257 191.036C200.427 190.207 199.961 189.082 199.959 187.909V185.707C199.961 184.534 200.427 183.41 201.257 182.58C202.087 181.751 203.212 181.284 204.385 181.283H271.371C272.544 181.284 273.669 181.751 274.498 182.58C275.328 183.41 275.795 184.534 275.796 185.707V187.909C275.795 189.082 275.328 190.207 274.498 191.036C273.669 191.866 272.544 192.332 271.371 192.333Z" fill="#12B3B3"/>
<path d="M274.058 170.433H207.072C205.84 170.432 204.659 169.942 203.788 169.071C202.917 168.2 202.427 167.019 202.425 165.788V163.586C202.427 162.354 202.917 161.173 203.788 160.302C204.659 159.432 205.84 158.942 207.072 158.94H274.058C275.29 158.942 276.471 159.432 277.342 160.302C278.213 161.173 278.703 162.354 278.704 163.586V165.788C278.703 167.019 278.213 168.2 277.342 169.071C276.471 169.942 275.29 170.432 274.058 170.433ZM207.072 159.825C206.075 159.826 205.119 160.223 204.413 160.928C203.708 161.633 203.311 162.589 203.31 163.586V165.788C203.311 166.785 203.708 167.741 204.413 168.446C205.119 169.151 206.075 169.547 207.072 169.548H274.058C275.055 169.547 276.011 169.151 276.716 168.446C277.421 167.741 277.818 166.785 277.819 165.788V163.586C277.818 162.589 277.421 161.633 276.716 160.928C276.011 160.223 275.055 159.826 274.058 159.825H207.072Z" fill="#080908"/>
<path d="M274.058 189.416H207.072C205.84 189.415 204.659 188.925 203.788 188.054C202.917 187.183 202.427 186.003 202.425 184.771V182.569C202.427 181.337 202.917 180.156 203.788 179.285C204.659 178.415 205.84 177.925 207.072 177.923H274.058C275.29 177.925 276.471 178.415 277.342 179.285C278.213 180.156 278.703 181.337 278.704 182.569V184.771C278.703 186.003 278.213 187.183 277.342 188.054C276.471 188.925 275.29 189.415 274.058 189.416ZM207.072 178.808C206.075 178.809 205.119 179.206 204.413 179.911C203.708 180.616 203.311 181.572 203.31 182.569V184.771C203.311 185.768 203.708 186.724 204.413 187.429C205.119 188.134 206.075 188.53 207.072 188.531H274.058C275.055 188.53 276.011 188.134 276.716 187.429C277.421 186.724 277.818 185.768 277.819 184.771V182.569C277.818 181.572 277.421 180.616 276.716 179.911C276.011 179.206 275.055 178.809 274.058 178.808H207.072Z" fill="#080908"/>
<path d="M294.412 72.7982V115.443C287.634 117.226 280.538 117.43 273.668 116.041C266.799 114.651 260.34 111.705 254.788 107.429C249.236 103.152 244.74 97.6595 241.645 91.3732C238.549 85.0869 236.938 78.1746 236.934 71.1679C236.934 69.9173 236.984 68.6797 237.085 67.4551H262.233C263.439 67.4562 264.626 67.1607 265.69 66.5945C266.755 66.0283 267.664 65.2089 268.336 64.2086C269.009 63.2083 269.425 62.0578 269.548 60.8587C269.671 59.6595 269.497 58.4486 269.041 57.3327H278.937C280.969 57.332 282.981 57.7315 284.859 58.5083C286.736 59.2852 288.442 60.4243 289.879 61.8605C291.316 63.2966 292.456 65.0018 293.234 66.8785C294.012 68.7553 294.412 70.7668 294.412 72.7982Z" fill="#12B3B3"/>
<path d="M225.765 281.655C225.765 282.554 225.732 283.442 225.659 284.319H202.728C200.697 284.319 198.685 283.919 196.808 283.142C194.931 282.364 193.226 281.225 191.789 279.789C190.352 278.353 189.213 276.648 188.436 274.772C187.658 272.895 187.258 270.884 187.258 268.853V247.883C192.065 247.258 196.95 247.664 201.587 249.075C206.224 250.485 210.507 252.868 214.151 256.064C217.795 259.26 220.715 263.195 222.718 267.608C224.72 272.021 225.759 276.81 225.765 281.655Z" fill="#F0F0F0"/>
<path d="M253.047 215.224H221.245C220.072 215.223 218.947 214.757 218.117 213.927C217.288 213.098 216.821 211.973 216.82 210.8V208.598C216.821 207.425 217.288 206.301 218.117 205.471C218.947 204.642 220.072 204.175 221.245 204.174H253.047C254.22 204.175 255.345 204.642 256.175 205.471C257.004 206.301 257.471 207.425 257.472 208.598V210.8C257.471 211.973 257.004 213.098 256.175 213.927C255.345 214.757 254.22 215.223 253.047 215.224Z" fill="#E7241C"/>
<path d="M255.07 212.307H223.268C222.036 212.306 220.855 211.816 219.984 210.945C219.112 210.074 218.622 208.894 218.621 207.662V205.46C218.622 204.228 219.112 203.047 219.984 202.177C220.855 201.306 222.036 200.816 223.268 200.814H255.07C256.302 200.816 257.483 201.306 258.354 202.177C259.225 203.047 259.715 204.228 259.716 205.46V207.662C259.715 208.894 259.225 210.074 258.354 210.945C257.483 211.816 256.302 212.306 255.07 212.307ZM223.268 201.699C222.27 201.7 221.314 202.097 220.609 202.802C219.904 203.507 219.507 204.463 219.506 205.46V207.662C219.507 208.659 219.904 209.615 220.609 210.32C221.314 211.025 222.27 211.421 223.268 211.423H255.07C256.067 211.421 257.023 211.025 257.728 210.32C258.433 209.615 258.83 208.659 258.831 207.662V205.46C258.83 204.463 258.433 203.507 257.728 202.802C257.023 202.097 256.067 201.7 255.07 201.699H223.268Z" fill="#080908"/>
<defs>
<linearGradient id="paint0_linear_391_1600" x1="113.887" y1="287.533" x2="113.887" y2="83.1919" gradientUnits="userSpaceOnUse">
<stop stop-color="#757575" stop-opacity="0.25"/>
<stop offset="0.54" stop-color="#707070" stop-opacity="0.12"/>
<stop offset="1" stop-color="#707070" stop-opacity="0.1"/>
</linearGradient>
</defs>
</svg>
