<svg width="167" height="145" viewBox="0 0 167 145" fill="none" xmlns="http://www.w3.org/2000/svg">
<g id="Frame" clip-path="url(#clip0_347_2959)">
<g id="first-aid-01--health-wellness-first-aid-case-nedicine">
<g id="color2">
<path id="vector" d="M10.1961 76.6155C5.35609 76.6155 1.43164 75.5957 1.43164 74.3376V86.5908C1.43164 87.8489 5.35609 88.8688 10.1961 88.8688C15.0361 88.8688 18.9606 87.8489 18.9606 86.5908V74.3376C18.9606 75.5957 15.037 76.6155 10.1961 76.6155ZM14.8068 84.9752C13.2812 85.2093 11.7396 85.3231 10.1961 85.3154C8.65263 85.3231 7.11096 85.2093 5.58541 84.9752V79.5091C7.11096 79.7433 8.65263 79.857 10.1961 79.8494C11.7396 79.857 13.2812 79.7433 14.8068 79.5091V84.9752Z" fill="#12B3B3"/>
<path id="vector_2" d="M93.019 72.2599C92.8578 72.1047 92.6425 72.018 92.4184 72.0182H81.1695V60.7985C81.1697 60.5751 81.0832 60.3603 80.9281 60.1993C79.7898 59.1839 78.3166 58.6226 76.7899 58.6226C75.2631 58.6226 73.7899 59.1839 72.6517 60.1993C72.4965 60.3603 72.41 60.5751 72.4102 60.7985V72.0182H61.1656C60.9419 72.0184 60.727 72.105 60.5659 72.2599C59.5475 73.3953 58.9844 74.8655 58.9844 76.3893C58.9844 77.913 59.5475 79.3832 60.5659 80.5186C60.7271 80.6732 60.942 80.7595 61.1656 80.7595H72.4102V91.98C72.4102 92.2031 72.4967 92.4175 72.6517 92.5784C73.7898 93.5939 75.2631 94.1554 76.7899 94.1554C78.3167 94.1554 79.7899 93.5939 80.9281 92.5784C81.083 92.4175 81.1695 92.2031 81.1695 91.98V80.7595H92.4132C92.6374 80.7595 92.852 80.6732 93.0138 80.5186C94.0315 79.3829 94.5942 77.9128 94.5942 76.3893C94.5942 74.8657 94.0315 73.3956 93.0138 72.2599H93.019Z" fill="#E7241C"/>
<path id="vector_3" d="M126.524 70.0148C126.524 70.0148 138.64 64.8665 142.188 63.2647C145.736 61.6629 149.207 62.5195 150.253 65.5375C151.298 68.5555 151 71.722 152.642 73.1753C154.285 74.6286 158.094 74.2927 159.998 76.1976C161.902 78.1025 161.123 80.1093 162.351 81.9719C163.117 83.1004 164.231 83.9492 165.524 84.3897L148.125 91.7667C145.101 90.5751 144.952 88.7867 144.429 86.7376C143.906 84.6885 142.802 83.0539 139.083 82.2042C132.979 80.8096 134.093 77.2476 133.313 73.6027C132.731 70.8714 130.518 68.8733 126.524 70.0148Z" fill="#FEE9E5"/>
</g>
<g id="color1">
<path id="vector_4" d="M134.231 122.704C131.928 128.779 127.606 132.776 124.579 131.633L128.462 133.1C131.491 134.243 135.812 130.246 138.114 124.172C140.417 118.098 139.829 112.248 136.802 111.104L132.918 109.636C135.941 110.78 136.533 116.626 134.231 122.704Z" fill="#12B3B3"/>
<path id="vector_5" d="M119.212 127.95C116.909 134.024 112.588 138.021 109.561 136.877L113.443 138.345C116.36 139.446 120.473 135.781 122.83 130.086C122.83 130.086 121.476 127.752 121.968 123.823C122.461 119.893 123.537 117.928 123.537 117.928C123.098 117.171 122.511 116.624 121.783 116.349L117.899 114.881C120.927 116.021 121.515 121.876 119.212 127.95Z" fill="#12B3B3"/>
<path id="vector_6" d="M21.8064 119.887L37.9023 127.306L37.0992 129.04C36.9263 129.396 36.8452 129.789 36.8632 130.184C36.8812 130.579 36.9977 130.963 37.2022 131.302C37.4067 131.64 37.6927 131.922 38.0342 132.123C38.3757 132.323 38.762 132.435 39.1579 132.449C39.4738 132.46 39.789 132.409 40.0847 132.298C40.3805 132.186 40.6509 132.017 40.88 131.799C41.1093 131.582 41.2936 131.321 41.4208 131.032L46.2721 120.553C46.4101 120.269 46.49 119.96 46.507 119.645C46.524 119.33 46.4779 119.014 46.3713 118.717C46.2647 118.42 46.0997 118.147 45.8861 117.914C45.6725 117.681 45.4145 117.493 45.1272 117.361C44.6948 117.162 44.2126 117.097 43.7428 117.175C43.2731 117.252 42.8372 117.467 42.4913 117.794C42.262 118.011 42.0781 118.272 41.9505 118.561L41.1474 120.295L25.0515 112.875L27.0306 108.6L24.9797 107.654L17.7764 123.217L19.8273 124.162L21.8064 119.887Z" fill="#242423"/>
<path id="vector_7" d="M129.453 17.4217L119.311 28.9444L126.672 35.3966C127.814 36.3971 129.228 37.0373 130.735 37.2361C132.242 37.435 133.774 37.1836 135.138 36.5137C136.501 35.8438 137.635 34.7856 138.396 33.4727C139.157 32.1599 139.511 30.6513 139.413 29.1378C139.348 28.1329 139.085 27.1506 138.639 26.2471C138.193 25.3436 137.574 24.5366 136.815 23.8721L129.453 17.4217Z" fill="#12B3B3"/>
<path id="vector_8" d="M49.1847 7.06127C49.3892 7.06127 49.5916 7.02109 49.7805 6.94302C49.9694 6.86495 50.141 6.75053 50.2856 6.60628C50.4301 6.46202 50.5448 6.29077 50.623 6.1023C50.7013 5.91382 50.7415 5.71182 50.7415 5.50781C50.7415 5.30381 50.7013 5.1018 50.623 4.91333C50.5448 4.72485 50.4301 4.5536 50.2856 4.40935C50.141 4.2651 49.9694 4.15067 49.7805 4.0726C49.5916 3.99453 49.3892 3.95435 49.1847 3.95435C48.7718 3.95435 48.3759 4.11802 48.0839 4.40935C47.792 4.70068 47.6279 5.09581 47.6279 5.50781C47.6279 5.91982 47.792 6.31494 48.0839 6.60628C48.3759 6.89761 48.7718 7.06127 49.1847 7.06127Z" fill="#E7241C"/>
<path id="vector_9" d="M15.7573 72.5777V74.3531C15.7573 75.151 13.2676 75.7978 10.1964 75.7978C7.12524 75.7978 4.63644 75.151 4.63644 74.3531V72.5777C2.67984 72.9948 1.43457 73.6286 1.43457 74.3376C1.43457 75.5957 5.35902 76.6155 10.199 76.6155C15.039 76.6155 18.9635 75.5957 18.9635 74.3376C18.9609 73.6286 17.713 72.9948 15.7573 72.5777Z" fill="#12B3B3"/>
<path id="vector_10" d="M10.1976 73.1347C13.2688 73.1347 15.7584 72.4879 15.7584 71.69C15.7584 70.8922 13.2688 70.2454 10.1976 70.2454C7.12638 70.2454 4.63672 70.893 4.63672 71.69C4.63672 72.4879 7.12638 73.1347 10.1976 73.1347Z" fill="#12B3B3"/>
<path id="vector_11" d="M112.973 53.5286C113.164 54.1106 113.261 54.7203 113.261 55.3334V97.446C113.261 98.2072 113.111 98.9609 112.819 99.6642C112.527 100.367 112.099 101.006 111.56 101.545C111.02 102.083 110.38 102.51 109.675 102.801C108.97 103.092 108.215 103.242 107.452 103.242H46.1331C45.1415 103.244 44.166 102.991 43.3008 102.507C43.6825 103.668 44.4217 104.679 45.4131 105.396C46.4046 106.113 47.5975 106.499 48.8218 106.499H110.141C111.681 106.499 113.159 105.888 114.249 104.802C115.337 103.714 115.949 102.24 115.95 100.703V58.5897C115.951 57.5579 115.675 56.5448 115.151 55.6549C114.628 54.7651 113.876 54.0316 112.973 53.5286Z" fill="#242423"/>
<path id="vector_12" d="M90.4014 49.5357V46.0497C90.4022 45.7191 90.3073 45.3953 90.128 45.1172C89.3682 43.9367 86.7946 41.0863 79.6657 41.0863C72.5697 41.0863 69.8394 43.9074 69.0009 45.099C68.7972 45.3896 68.6882 45.7357 68.6885 46.0903V49.5357H90.4014Z" fill="#12B3B3"/>
</g>
<g id="line">
<path id="vector_13" d="M134.229 122.703C136.531 116.629 135.944 110.778 132.917 109.635C129.889 108.492 125.568 112.49 123.265 118.563C120.963 124.637 121.55 130.488 124.577 131.631C127.605 132.774 131.926 128.776 134.229 122.703Z" stroke="#120071" stroke-width="1.08171" stroke-linecap="round" stroke-linejoin="round"/>
<path id="vector_14" d="M134.23 122.704C131.927 128.779 127.605 132.776 124.578 131.633L128.461 133.1C131.49 134.243 135.811 130.246 138.113 124.172C140.416 118.098 139.828 112.248 136.801 111.104L132.917 109.636C135.94 110.78 136.532 116.626 134.23 122.704Z" stroke="#120071" stroke-width="1.08171" stroke-linecap="round" stroke-linejoin="round"/>
<path id="vector_15" d="M135.624 115.024L121.873 126.245" stroke="#120071" stroke-width="1.08171" stroke-linecap="round" stroke-linejoin="round"/>
<path id="vector_16" d="M119.211 127.948C121.514 121.874 120.926 116.024 117.899 114.88C114.871 113.738 110.55 117.735 108.248 123.809C105.945 129.883 106.532 135.733 109.56 136.877C112.587 138.019 116.909 134.022 119.211 127.948Z" stroke="#120071" stroke-width="1.08171" stroke-linecap="round" stroke-linejoin="round"/>
<path id="vector_17" d="M123.528 117.91C123.089 117.163 122.506 116.622 121.783 116.349L117.899 114.881C120.927 116.021 121.515 121.876 119.212 127.95C116.909 134.024 112.588 138.021 109.561 136.877L113.443 138.345C116.362 139.447 120.481 135.774 122.838 130.069" stroke="#120071" stroke-width="1.08171" stroke-linecap="round" stroke-linejoin="round"/>
<path id="vector_18" d="M120.604 120.269L106.854 131.49" stroke="#120071" stroke-width="1.08171" stroke-linecap="round" stroke-linejoin="round"/>
<path id="vector_19" d="M29.7586 131.534C29.8801 131.59 30.0115 131.622 30.1453 131.627C30.2791 131.633 30.4127 131.612 30.5384 131.566C30.6641 131.52 30.7794 131.449 30.8778 131.359C30.9763 131.268 31.0558 131.159 31.112 131.038L31.9289 129.273L58.3815 141.464L61.0919 135.607L66.5757 138.135C66.7791 138.234 66.9997 138.292 67.2265 138.304C67.4523 138.317 67.6785 138.285 67.8917 138.209C68.1049 138.134 68.3006 138.016 68.4674 137.864C68.6352 137.712 68.7707 137.528 68.8659 137.323C68.961 137.117 69.0138 136.895 69.0212 136.669C69.0329 136.329 68.9418 135.994 68.7599 135.706C68.5779 135.419 68.3135 135.192 68.001 135.056L62.5171 132.529L65.2283 126.672L38.7749 114.481L39.5918 112.716C39.6896 112.473 39.6902 112.202 39.5936 111.959C39.4969 111.716 39.3104 111.52 39.0725 111.41C38.8346 111.3 38.5636 111.286 38.3156 111.37C38.0675 111.455 37.8614 111.631 37.7399 111.862L29.2593 130.184C29.1751 130.366 29.1471 130.57 29.1786 130.769C29.2102 130.968 29.3 131.153 29.4367 131.301C29.5275 131.399 29.6366 131.478 29.7586 131.534Z" stroke="#242423" stroke-width="1.08171" stroke-linecap="round" stroke-linejoin="round"/>
<path id="vector_20" d="M21.8054 119.887L37.9013 127.306L37.0982 129.04C36.9253 129.396 36.8442 129.789 36.8622 130.184C36.8802 130.579 36.9967 130.963 37.2012 131.302C37.4057 131.64 37.6917 131.922 38.0332 132.123C38.3748 132.323 38.761 132.435 39.1569 132.449C39.4729 132.46 39.788 132.409 40.0838 132.298C40.3795 132.186 40.6499 132.017 40.879 131.799C41.1083 131.582 41.2927 131.321 41.4199 131.032L46.2711 120.553C46.4091 120.269 46.489 119.96 46.506 119.645C46.5231 119.33 46.4769 119.014 46.3703 118.717C46.2637 118.42 46.0988 118.147 45.8852 117.914C45.6715 117.681 45.4135 117.493 45.1262 117.361C44.8391 117.229 44.5284 117.156 44.2124 117.144C43.8964 117.133 43.5814 117.185 43.2856 117.296C42.9899 117.408 42.7195 117.577 42.49 117.794C42.2606 118.011 42.0769 118.272 41.9495 118.561L41.1464 120.295L25.0505 112.875L27.0296 108.6L24.9787 107.654L17.7754 123.217L19.8263 124.162L21.8054 119.887Z" stroke="#242423" stroke-width="1.08171" stroke-linecap="round" stroke-linejoin="round"/>
<path id="vector_21" d="M59.7607 131.257L62.4711 125.401" stroke="#242423" stroke-width="1.08171" stroke-linecap="round" stroke-linejoin="round"/>
<path id="vector_22" d="M57.001 129.986L59.7122 124.129" stroke="#242423" stroke-width="1.08171" stroke-linecap="round" stroke-linejoin="round"/>
<path id="vector_23" d="M54.2422 128.714L56.9534 122.857" stroke="#242423" stroke-width="1.08171" stroke-linecap="round" stroke-linejoin="round"/>
<path id="vector_24" d="M126.669 35.3974C128.2 36.7395 130.203 37.4195 132.237 37.2878C134.271 37.1562 136.17 36.2236 137.514 34.6954C138.859 33.1672 139.541 31.1684 139.409 29.1388C139.277 27.1092 138.342 25.215 136.811 23.873L122.088 10.9704C121.329 10.3054 120.447 9.79613 119.492 9.47163C118.536 9.14714 117.526 9.01382 116.519 9.0793C115.002 9.17801 113.549 9.72309 112.343 10.6457C111.137 11.5682 110.232 12.8269 109.743 14.2625C109.253 15.6982 109.201 17.2464 109.593 18.7116C109.985 20.1767 110.804 21.4929 111.945 22.494L126.669 35.3974Z" stroke="#120071" stroke-width="1.08171" stroke-linecap="round" stroke-linejoin="round"/>
<path id="vector_25" d="M129.451 17.4217L119.309 28.9453" stroke="#120071" stroke-width="1.08171" stroke-linecap="round" stroke-linejoin="round"/>
<path id="vector_26" d="M49.1858 9.93504C50.3625 9.93504 51.491 9.4686 52.323 8.63834C53.1551 7.80807 53.6225 6.68199 53.6225 5.50781C53.6225 4.33364 53.1551 3.20755 52.323 2.37729C51.491 1.54702 50.3625 1.08058 49.1858 1.08058C48.0091 1.08058 46.8806 1.54702 46.0485 2.37729C45.2165 3.20755 44.749 4.33364 44.749 5.50781C44.749 6.68199 45.2165 7.80807 46.0485 8.63834C46.8806 9.4686 48.0091 9.93504 49.1858 9.93504Z" stroke="#120071" stroke-width="1.08171" stroke-linecap="round" stroke-linejoin="round"/>
<path id="vector_27" d="M49.1867 7.06127C49.3911 7.06127 49.5936 7.02109 49.7824 6.94302C49.9713 6.86495 50.1429 6.75053 50.2875 6.60628C50.4321 6.46202 50.5467 6.29077 50.625 6.1023C50.7032 5.91382 50.7435 5.71182 50.7435 5.50781C50.7435 5.30381 50.7032 5.1018 50.625 4.91333C50.5467 4.72485 50.4321 4.5536 50.2875 4.40935C50.1429 4.2651 49.9713 4.15067 49.7824 4.0726C49.5936 3.99453 49.3911 3.95435 49.1867 3.95435C48.7738 3.95435 48.3778 4.11802 48.0859 4.40935C47.7939 4.70068 47.6299 5.09581 47.6299 5.50781C47.6299 5.91982 47.7939 6.31494 48.0859 6.60628C48.3778 6.89761 48.7738 7.06127 49.1867 7.06127Z" stroke="#120071" stroke-width="1.08171" stroke-linecap="round" stroke-linejoin="round"/>
<path id="vector_28" d="M18.3557 59.1441L21.3352 60.8935L27.9985 49.5979C28.5518 48.6901 28.9186 47.6816 29.0778 46.6311C29.2369 45.5805 29.1852 44.5089 28.9256 43.4784C28.666 42.448 28.2037 41.4794 27.5656 40.6288C26.9275 39.7783 26.1262 39.0628 25.2085 38.524C24.2908 37.9852 23.2749 37.6338 22.2199 37.4903C21.1649 37.3468 20.0918 37.414 19.0631 37.688C18.0343 37.962 17.0704 38.4374 16.2274 39.0864C15.3844 39.7355 14.6791 40.5453 14.1526 41.4688L7.48926 52.7636L10.4687 54.513" stroke="#120071" stroke-width="1.08171" stroke-linecap="round" stroke-linejoin="round"/>
<path id="vector_29" d="M9.63672 55.9231L11.3 53.1029" stroke="#120071" stroke-width="1.08171" stroke-linecap="round" stroke-linejoin="round"/>
<path id="vector_30" d="M17.5264 60.5542L19.1896 57.7339" stroke="#120071" stroke-width="1.08171" stroke-linecap="round" stroke-linejoin="round"/>
<path id="vector_31" d="M46.9563 9.33662C46.4378 10.2253 46.286 11.2802 46.5329 12.2785C46.7799 13.2768 47.4062 14.1402 48.2794 14.6861L60.893 22.5976C62.5209 23.6181 63.6947 25.2225 64.1729 27.0805C64.6512 28.9386 64.3975 30.9088 63.464 32.5858C62.4865 34.3418 60.8556 35.6432 58.924 36.2088C56.9924 36.7744 54.9153 36.5586 53.1419 35.6081L38.6089 27.8279C37.1594 27.0512 35.4648 26.8648 33.8805 27.3077C32.2962 27.7506 30.9452 28.7884 30.111 30.2034L25.1455 38.6244" stroke="#120071" stroke-width="1.08171" stroke-linecap="round" stroke-linejoin="round"/>
<path id="vector_32" d="M15.7563 72.5777V74.3531C15.7563 75.151 13.2666 75.7978 10.1955 75.7978C7.12426 75.7978 4.63546 75.151 4.63546 74.3531V72.5777C2.67886 72.9948 1.43359 73.6286 1.43359 74.3376C1.43359 75.5957 5.35804 76.6155 10.1981 76.6155C15.0381 76.6155 18.9625 75.5957 18.9625 74.3376C18.9599 73.6286 17.7121 72.9948 15.7563 72.5777Z" stroke="#120071" stroke-width="1.08171" stroke-linecap="round" stroke-linejoin="round"/>
<path id="vector_33" d="M10.1966 73.1347C13.2678 73.1347 15.7575 72.4879 15.7575 71.69C15.7575 70.8922 13.2678 70.2454 10.1966 70.2454C7.12541 70.2454 4.63574 70.893 4.63574 71.69C4.63574 72.4879 7.12541 73.1347 10.1966 73.1347Z" stroke="#120071" stroke-width="1.08171" stroke-linecap="round" stroke-linejoin="round"/>
<path id="vector_34" d="M4.63574 71.69C4.63574 72.4879 7.12541 73.1347 10.1966 73.1347C13.2678 73.1347 15.7575 72.4879 15.7575 71.69V74.3531C15.7575 75.151 13.2678 75.7978 10.1966 75.7978C7.12541 75.7978 4.63574 75.151 4.63574 74.3531V71.69Z" stroke="#120071" stroke-width="1.08171" stroke-linecap="round" stroke-linejoin="round"/>
<path id="vector_35" d="M1.43164 74.3376C1.43164 75.5957 5.35609 76.6155 10.1961 76.6155C15.0361 76.6155 18.9606 75.5957 18.9606 74.3376V86.5908C18.9606 87.8489 15.037 88.8688 10.1961 88.8688C5.35522 88.8688 1.43164 87.8489 1.43164 86.5908V74.3376Z" stroke="#120071" stroke-width="1.08171" stroke-linecap="round" stroke-linejoin="round"/>
<path id="vector_36" d="M5.58496 84.9752C7.11051 85.2093 8.65218 85.3231 10.1956 85.3154C11.7391 85.3231 13.2808 85.2093 14.8063 84.9752V79.5091C13.2808 79.7433 11.7391 79.857 10.1956 79.8494C8.65218 79.857 7.11051 79.7433 5.58496 79.5091V84.9752Z" stroke="#120071" stroke-width="1.08171" stroke-linecap="round" stroke-linejoin="round"/>
<path id="vector_37" d="M8.5625 82.1273H11.8327" stroke="#E7241C" stroke-width="1.08171" stroke-linecap="round" stroke-linejoin="round"/>
<path id="vector_38" d="M8.5625 83.3621H11.8327" stroke="#E7241C" stroke-width="1.08171" stroke-linecap="round" stroke-linejoin="round"/>
<path id="vector_39" d="M107.449 49.5357H46.1305C44.5898 49.5357 43.1122 50.1465 42.0228 51.2336C40.9333 52.3207 40.3213 53.7951 40.3213 55.3325V97.4452C40.3213 98.9826 40.9333 100.457 42.0228 101.544C43.1122 102.631 44.5898 103.242 46.1305 103.242H107.449C108.989 103.242 110.467 102.631 111.556 101.544C112.646 100.457 113.258 98.9825 113.258 97.4452V55.3325C113.258 53.7951 112.646 52.3207 111.557 51.2336C110.467 50.1465 108.99 49.5357 107.449 49.5357Z" stroke="#120071" stroke-width="1.08171" stroke-linecap="round" stroke-linejoin="round"/>
<path id="vector_40" d="M112.972 53.5286C113.163 54.1106 113.26 54.7203 113.26 55.3334V97.446C113.26 98.2072 113.11 98.9609 112.818 99.6642C112.526 100.367 112.098 101.006 111.559 101.545C111.019 102.083 110.379 102.51 109.674 102.801C108.969 103.092 108.214 103.242 107.451 103.242H46.1322C45.1405 103.244 44.165 102.991 43.2998 102.507C43.6815 103.668 44.4208 104.679 45.4122 105.396C46.4036 106.113 47.5965 106.499 48.8209 106.499H110.14C111.681 106.499 113.158 105.888 114.248 104.802C115.336 103.714 115.948 102.24 115.949 100.703V58.5897C115.95 57.5579 115.674 56.5448 115.15 55.6549C114.627 54.7651 113.875 54.0316 112.972 53.5286Z" stroke="#242423" stroke-width="1.08171" stroke-linecap="round" stroke-linejoin="round"/>
<path id="vector_41" d="M93.019 72.2599C92.8578 72.1047 92.6425 72.018 92.4184 72.0182H81.1695V60.7985C81.1697 60.5751 81.0832 60.3603 80.9281 60.1993C79.7898 59.1839 78.3166 58.6226 76.7899 58.6226C75.2631 58.6226 73.7899 59.1839 72.6517 60.1993C72.4965 60.3603 72.41 60.5751 72.4102 60.7985V72.0182H61.1656C60.9419 72.0184 60.727 72.105 60.5659 72.2599C59.5475 73.3953 58.9844 74.8655 58.9844 76.3893C58.9844 77.913 59.5475 79.3832 60.5659 80.5186C60.7271 80.6732 60.942 80.7595 61.1656 80.7595H72.4102V91.98C72.4102 92.2031 72.4967 92.4175 72.6517 92.5784C73.7898 93.5939 75.2631 94.1554 76.7899 94.1554C78.3167 94.1554 79.7899 93.5939 80.9281 92.5784C81.083 92.4175 81.1695 92.2031 81.1695 91.98V80.7595H92.4132C92.6374 80.7595 92.852 80.6732 93.0138 80.5186C94.0315 79.3829 94.5942 77.9128 94.5942 76.3893C94.5942 74.8657 94.0315 73.3956 93.0138 72.2599H93.019Z" stroke="#120071" stroke-width="1.08171" stroke-linecap="round" stroke-linejoin="round"/>
<path id="vector_42" d="M90.4005 49.5357V46.0497C90.4012 45.7191 90.3063 45.3952 90.127 45.1172C89.3672 43.9367 86.7936 41.0863 79.6647 41.0863C72.5687 41.0863 69.8384 43.9074 68.9999 45.099C68.7962 45.3896 68.6872 45.7357 68.6875 46.0903V49.5357H90.4005Z" stroke="#120071" stroke-width="1.08171" stroke-linecap="round" stroke-linejoin="round"/>
<path id="vector_43" d="M126.524 70.0148C126.524 70.0148 138.64 64.8665 142.188 63.2647C145.736 61.6629 149.207 62.5195 150.253 65.5375C151.298 68.5555 151 71.722 152.642 73.1753C154.285 74.6286 158.094 74.2927 159.998 76.1976C161.902 78.1025 161.123 80.1093 162.351 81.9719C163.117 83.1004 164.231 83.9492 165.524 84.3897L148.125 91.7667C145.101 90.5751 144.952 88.7867 144.429 86.7376C143.906 84.6885 142.802 83.0539 139.083 82.2042C132.979 80.8096 134.093 77.2476 133.313 73.6027C132.731 70.8714 130.518 68.8733 126.524 70.0148Z" stroke="#120071" stroke-width="1.08171" stroke-linecap="round" stroke-linejoin="round"/>
<path id="vector_44" d="M147.774 71.6961V81.0816" stroke="#120071" stroke-width="1.08171" stroke-linecap="round" stroke-linejoin="round"/>
<path id="vector_45" d="M152.475 76.3893H143.07" stroke="#120071" stroke-width="1.08171" stroke-linecap="round" stroke-linejoin="round"/>
<path id="vector_46" d="M134.21 78.7631C133.761 79.7181 133.081 80.5465 132.23 81.1738C131.38 81.801 130.387 82.2074 129.341 82.3561C128.294 82.5036 127.226 82.3886 126.235 82.0216C125.244 81.6545 124.36 81.0468 123.663 80.2535C122.966 79.4602 122.478 78.5061 122.243 77.4775C122.008 76.4489 122.034 75.3781 122.317 74.3617C122.602 73.3456 123.135 72.4161 123.87 71.6572C124.605 70.8983 125.517 70.3339 126.525 70.0148" stroke="#120071" stroke-width="1.08171" stroke-linecap="round" stroke-linejoin="round"/>
<path id="vector_47" d="M133.497 74.651C132.779 73.5952 131.724 72.8141 130.503 72.4361C129.93 72.2596 129.328 72.1974 128.732 72.2531C128.135 72.3088 127.555 72.4813 127.026 72.7607C126.496 73.0401 126.026 73.4209 125.644 73.8815C125.262 74.342 124.975 74.8731 124.798 75.4446C124.508 76.3659 124.596 77.3646 125.042 78.2214C125.489 79.0781 126.259 79.7229 127.181 80.0143C127.921 80.2419 128.722 80.1669 129.406 79.8058C130.091 79.4447 130.604 78.827 130.832 78.0886C131.019 77.4989 130.963 76.8595 130.677 76.311C130.391 75.7625 129.898 75.3499 129.307 75.1639C128.954 75.0555 128.576 75.0539 128.222 75.1593C127.868 75.2647 127.553 75.4725 127.317 75.7563C127.161 75.9445 127.043 76.1621 126.97 76.3962C126.909 76.5914 126.888 76.7971 126.91 77.0006" stroke="#120071" stroke-width="1.08171" stroke-linecap="round" stroke-linejoin="round"/>
<path id="vector_48" d="M96.9219 33.983V43.574" stroke="#120071" stroke-width="1.08171" stroke-linecap="round" stroke-linejoin="round"/>
<path id="vector_49" d="M101.725 38.779H92.1133" stroke="#120071" stroke-width="1.08171" stroke-linecap="round" stroke-linejoin="round"/>
<path id="vector_50" d="M112.227 29.0308V35.2342" stroke="#120071" stroke-width="1.08171" stroke-linecap="round" stroke-linejoin="round"/>
<path id="vector_51" d="M115.334 32.1325H109.118" stroke="#120071" stroke-width="1.08171" stroke-linecap="round" stroke-linejoin="round"/>
<path id="vector_52" d="M130.564 103.153L133.247 106.833L137.271 101.624" stroke="#120071" stroke-width="1.08171" stroke-linecap="round" stroke-linejoin="round"/>
<path id="vector_53" d="M7.1709 127.457L9.78258 138.105" stroke="#120071" stroke-width="1.08171" stroke-linecap="round" stroke-linejoin="round"/>
<path id="vector_54" d="M13.8142 131.478L3.1416 134.084" stroke="#120071" stroke-width="1.08171" stroke-linecap="round" stroke-linejoin="round"/>
<path id="vector_55" d="M30.2598 138.25L31.7369 144.275" stroke="#120071" stroke-width="1.08171" stroke-linecap="round" stroke-linejoin="round"/>
<path id="vector_56" d="M34.0172 140.525L27.9795 142" stroke="#120071" stroke-width="1.08171" stroke-linecap="round" stroke-linejoin="round"/>
</g>
</g>
</g>
<defs>
<clipPath id="clip0_347_2959">
<rect width="167" height="145" fill="white"/>
</clipPath>
</defs>
</svg>
