<svg width="25" height="24" viewBox="0 0 25 24" fill="none" xmlns="http://www.w3.org/2000/svg">
<path d="M12.8992 10.28C11.8792 10.28 10.8592 10.1 9.88917 9.74999C9.49917 9.60999 9.29917 9.17999 9.43917 8.78999C9.58917 8.39999 10.0192 8.19999 10.4092 8.33999C12.0192 8.91999 13.7892 8.91999 15.3992 8.33999C15.7892 8.19999 16.2192 8.39999 16.3592 8.78999C16.4992 9.17999 16.2992 9.60999 15.9092 9.74999C14.9392 10.1 13.9192 10.28 12.8992 10.28Z" fill="#12B3B3"/>
<path d="M19.9697 22.75C19.4597 22.75 18.8997 22.6 18.3597 22.29L13.4797 19.58C13.1897 19.42 12.6197 19.42 12.3297 19.58L7.44973 22.29C6.45973 22.84 5.44973 22.9 4.67973 22.44C3.90973 21.99 3.46973 21.08 3.46973 19.95V5.86003C3.46973 3.32003 5.53973 1.25003 8.07973 1.25003H17.7297C20.2697 1.25003 22.3397 3.32003 22.3397 5.86003V19.95C22.3397 21.08 21.8997 21.99 21.1297 22.44C20.7797 22.65 20.3797 22.75 19.9697 22.75ZM12.8997 17.96C13.3697 17.96 13.8297 18.06 14.1997 18.27L19.0797 20.98C19.5897 21.27 20.0597 21.33 20.3597 21.15C20.6597 20.97 20.8297 20.54 20.8297 19.95V5.86003C20.8297 4.15003 19.4297 2.75003 17.7197 2.75003H8.07973C6.36973 2.75003 4.96973 4.15003 4.96973 5.86003V19.95C4.96973 20.54 5.13973 20.98 5.43973 21.15C5.73973 21.32 6.19973 21.27 6.71973 20.98L11.5997 18.27C11.9697 18.06 12.4297 17.96 12.8997 17.96Z" fill="#12B3B3"/>
<path d="M19.9697 22.75C19.4597 22.75 18.8997 22.6 18.3597 22.29L13.4797 19.58C13.1897 19.42 12.6197 19.42 12.3297 19.58L7.44973 22.29C6.45973 22.84 5.44973 22.9 4.67973 22.44C3.90973 21.99 3.46973 21.08 3.46973 19.95V5.86003C3.46973 3.32003 5.53973 1.25003 8.07973 1.25003H17.7297C20.2697 1.25003 22.3397 3.32003 22.3397 5.86003V19.95C22.3397 21.08 21.8997 21.99 21.1297 22.44C20.7797 22.65 20.3797 22.75 19.9697 22.75ZM12.8997 17.96C13.3697 17.96 13.8297 18.06 14.1997 18.27L19.0797 20.98C19.5897 21.27 20.0597 21.33 20.3597 21.15C20.6597 20.97 20.8297 20.54 20.8297 19.95V5.86003C20.8297 4.15003 19.4297 2.75003 17.7197 2.75003H8.07973C6.36973 2.75003 4.96973 4.15003 4.96973 5.86003V19.95C4.96973 20.54 5.13973 20.98 5.43973 21.15C5.73973 21.32 6.19973 21.27 6.71973 20.98L11.5997 18.27C11.9697 18.06 12.4297 17.96 12.8997 17.96Z" fill="#12B3B3"/>
</svg>
