<svg width="22" height="22" viewBox="0 0 22 22" fill="none" xmlns="http://www.w3.org/2000/svg">
<path d="M10.8993 9.45201C9.9813 9.45201 9.0633 9.29001 8.1903 8.97501C7.8393 8.84901 7.6593 8.46201 7.7853 8.11101C7.9203 7.76001 8.3073 7.58001 8.6583 7.70601C10.1073 8.22801 11.7003 8.22801 13.1493 7.70601C13.5003 7.58001 13.8873 7.76001 14.0133 8.11101C14.1393 8.46201 13.9593 8.84901 13.6083 8.97501C12.7353 9.29001 11.8173 9.45201 10.8993 9.45201Z" fill="#07090F" fill-opacity="0.8"/>
<path d="M17.2631 20.675C16.8041 20.675 16.3001 20.54 15.8141 20.261L11.4221 17.822C11.1611 17.678 10.6481 17.678 10.3871 17.822L5.99509 20.261C5.10409 20.756 4.19509 20.81 3.50209 20.396C2.80909 19.991 2.41309 19.172 2.41309 18.155V5.47401C2.41309 3.18801 4.27609 1.32501 6.56209 1.32501H15.2471C17.5331 1.32501 19.3961 3.18801 19.3961 5.47401V18.155C19.3961 19.172 19.0001 19.991 18.3071 20.396C17.9921 20.585 17.6321 20.675 17.2631 20.675ZM10.9001 16.364C11.3231 16.364 11.7371 16.454 12.0701 16.643L16.4621 19.082C16.9211 19.343 17.3441 19.397 17.6141 19.235C17.8841 19.073 18.0371 18.686 18.0371 18.155V5.47401C18.0371 3.93501 16.7771 2.67501 15.2381 2.67501H6.56209C5.02309 2.67501 3.76309 3.93501 3.76309 5.47401V18.155C3.76309 18.686 3.91609 19.082 4.18609 19.235C4.45609 19.388 4.87009 19.343 5.33809 19.082L9.73009 16.643C10.0631 16.454 10.4771 16.364 10.9001 16.364Z" fill="#07090F" fill-opacity="0.8"/>
<path d="M17.2631 20.675C16.8041 20.675 16.3001 20.54 15.8141 20.261L11.4221 17.822C11.1611 17.678 10.6481 17.678 10.3871 17.822L5.99509 20.261C5.10409 20.756 4.19509 20.81 3.50209 20.396C2.80909 19.991 2.41309 19.172 2.41309 18.155V5.47401C2.41309 3.18801 4.27609 1.32501 6.56209 1.32501H15.2471C17.5331 1.32501 19.3961 3.18801 19.3961 5.47401V18.155C19.3961 19.172 19.0001 19.991 18.3071 20.396C17.9921 20.585 17.6321 20.675 17.2631 20.675ZM10.9001 16.364C11.3231 16.364 11.7371 16.454 12.0701 16.643L16.4621 19.082C16.9211 19.343 17.3441 19.397 17.6141 19.235C17.8841 19.073 18.0371 18.686 18.0371 18.155V5.47401C18.0371 3.93501 16.7771 2.67501 15.2381 2.67501H6.56209C5.02309 2.67501 3.76309 3.93501 3.76309 5.47401V18.155C3.76309 18.686 3.91609 19.082 4.18609 19.235C4.45609 19.388 4.87009 19.343 5.33809 19.082L9.73009 16.643C10.0631 16.454 10.4771 16.364 10.9001 16.364Z" fill="#07090F" fill-opacity="0.8"/>
</svg>
