<svg width="18" height="18" viewBox="0 0 18 18" fill="none" xmlns="http://www.w3.org/2000/svg">
<path d="M11.8124 7.875V4.5C11.8124 3.75408 11.5161 3.03871 10.9887 2.51126C10.4612 1.98382 9.74585 1.6875 8.99993 1.6875C8.25401 1.6875 7.53864 1.98382 7.01119 2.51126C6.48374 3.03871 6.18743 3.75408 6.18743 4.5V7.875M14.7044 6.38025L15.6517 15.3802C15.7042 15.879 15.3142 16.3125 14.8124 16.3125H3.18743C3.06908 16.3126 2.95204 16.2879 2.84389 16.2398C2.73574 16.1917 2.63891 16.1215 2.5597 16.0336C2.48048 15.9456 2.42064 15.842 2.38407 15.7295C2.3475 15.6169 2.33501 15.4979 2.34743 15.3802L3.29543 6.38025C3.3173 6.17292 3.41515 5.98103 3.57012 5.84157C3.72508 5.70211 3.9262 5.62496 4.13468 5.625H13.8652C14.2972 5.625 14.6594 5.95125 14.7044 6.38025ZM6.46868 7.875C6.46868 7.94959 6.43905 8.02113 6.3863 8.07387C6.33356 8.12662 6.26202 8.15625 6.18743 8.15625C6.11284 8.15625 6.0413 8.12662 5.98855 8.07387C5.93581 8.02113 5.90618 7.94959 5.90618 7.875C5.90618 7.80041 5.93581 7.72887 5.98855 7.67613C6.0413 7.62338 6.11284 7.59375 6.18743 7.59375C6.26202 7.59375 6.33356 7.62338 6.3863 7.67613C6.43905 7.72887 6.46868 7.80041 6.46868 7.875ZM12.0937 7.875C12.0937 7.94959 12.064 8.02113 12.0113 8.07387C11.9586 8.12662 11.887 8.15625 11.8124 8.15625C11.7378 8.15625 11.6663 8.12662 11.6136 8.07387C11.5608 8.02113 11.5312 7.94959 11.5312 7.875C11.5312 7.80041 11.5608 7.72887 11.6136 7.67613C11.6663 7.62338 11.7378 7.59375 11.8124 7.59375C11.887 7.59375 11.9586 7.62338 12.0113 7.67613C12.064 7.72887 12.0937 7.80041 12.0937 7.875Z" stroke="#12B3B3" stroke-width="1.125" stroke-linecap="round" stroke-linejoin="round"/>
</svg>
