<svg width="23" height="22" viewBox="0 0 23 22" fill="none" xmlns="http://www.w3.org/2000/svg">
<path d="M6.91634 9.85418H5.08301C2.86467 9.85418 1.64551 8.63501 1.64551 6.41668V4.58334C1.64551 2.36501 2.86467 1.14584 5.08301 1.14584H6.91634C9.13468 1.14584 10.3538 2.36501 10.3538 4.58334V6.41668C10.3538 8.63501 9.13468 9.85418 6.91634 9.85418ZM5.08301 2.52084C3.63467 2.52084 3.02051 3.13501 3.02051 4.58334V6.41668C3.02051 7.86501 3.63467 8.47918 5.08301 8.47918H6.91634C8.36468 8.47918 8.97884 7.86501 8.97884 6.41668V4.58334C8.97884 3.13501 8.36468 2.52084 6.91634 2.52084H5.08301Z" fill="#242423"/>
<path d="M17.9163 9.85418H16.083C13.8647 9.85418 12.6455 8.63501 12.6455 6.41668V4.58334C12.6455 2.36501 13.8647 1.14584 16.083 1.14584H17.9163C20.1347 1.14584 21.3538 2.36501 21.3538 4.58334V6.41668C21.3538 8.63501 20.1347 9.85418 17.9163 9.85418ZM16.083 2.52084C14.6347 2.52084 14.0205 3.13501 14.0205 4.58334V6.41668C14.0205 7.86501 14.6347 8.47918 16.083 8.47918H17.9163C19.3647 8.47918 19.9788 7.86501 19.9788 6.41668V4.58334C19.9788 3.13501 19.3647 2.52084 17.9163 2.52084H16.083Z" fill="#242423"/>
<path d="M17.9163 20.8542H16.083C13.8647 20.8542 12.6455 19.635 12.6455 17.4167V15.5833C12.6455 13.365 13.8647 12.1458 16.083 12.1458H17.9163C20.1347 12.1458 21.3538 13.365 21.3538 15.5833V17.4167C21.3538 19.635 20.1347 20.8542 17.9163 20.8542ZM16.083 13.5208C14.6347 13.5208 14.0205 14.135 14.0205 15.5833V17.4167C14.0205 18.865 14.6347 19.4792 16.083 19.4792H17.9163C19.3647 19.4792 19.9788 18.865 19.9788 17.4167V15.5833C19.9788 14.135 19.3647 13.5208 17.9163 13.5208H16.083Z" fill="#242423"/>
<path d="M6.91634 20.8542H5.08301C2.86467 20.8542 1.64551 19.635 1.64551 17.4167V15.5833C1.64551 13.365 2.86467 12.1458 5.08301 12.1458H6.91634C9.13468 12.1458 10.3538 13.365 10.3538 15.5833V17.4167C10.3538 19.635 9.13468 20.8542 6.91634 20.8542ZM5.08301 13.5208C3.63467 13.5208 3.02051 14.135 3.02051 15.5833V17.4167C3.02051 18.865 3.63467 19.4792 5.08301 19.4792H6.91634C8.36468 19.4792 8.97884 18.865 8.97884 17.4167V15.5833C8.97884 14.135 8.36468 13.5208 6.91634 13.5208H5.08301Z" fill="#242423"/>
</svg>
