<svg width="18" height="18" viewBox="0 0 18 18" fill="none" xmlns="http://www.w3.org/2000/svg">
<path d="M11.8571 15.135C11.6621 15.135 11.4596 15.1275 11.2421 15.105C10.8521 15.075 10.4096 15 9.95207 14.8875L8.69207 14.5875C5.23457 13.77 4.10207 11.94 4.91207 8.49001L5.64707 5.34751C5.81207 4.63501 6.00707 4.05751 6.24707 3.57751C7.53707 0.915011 10.0046 1.15501 11.7596 1.56751L13.0121 1.86001C14.7671 2.27251 15.8771 2.92501 16.4996 3.92251C17.1146 4.92001 17.2121 6.20251 16.7996 7.95751L16.0646 11.0925C15.4196 13.8375 14.0771 15.135 11.8571 15.135ZM9.83957 2.43751C8.58707 2.43751 7.79207 2.95501 7.25957 4.06501C7.06457 4.47001 6.89207 4.97251 6.74207 5.60251L6.00707 8.74501C5.33957 11.58 6.11207 12.8175 8.94707 13.4925L10.2071 13.7925C10.6121 13.89 10.9946 13.95 11.3396 13.98C13.3721 14.1825 14.3921 13.29 14.9621 10.8375L15.6971 7.70251C16.0346 6.25501 15.9896 5.24251 15.5396 4.51501C15.0896 3.78751 14.2046 3.29251 12.7496 2.95501L11.4971 2.66251C10.8746 2.51251 10.3196 2.43751 9.83957 2.43751Z" fill="#292D32"/>
<path d="M6.24778 16.6875C4.32028 16.6875 3.09028 15.5325 2.30278 13.095L1.34278 10.1325C0.277783 6.83251 1.23028 4.97251 4.51528 3.90751L5.70028 3.52501C6.09028 3.40501 6.38278 3.32251 6.64528 3.27751C6.85528 3.23251 7.07278 3.31501 7.20028 3.48751C7.32778 3.66001 7.35028 3.88501 7.26028 4.08001C7.06528 4.47751 6.89278 4.98001 6.75028 5.61001L6.01528 8.75251C5.34778 11.5875 6.12028 12.825 8.95528 13.5L10.2153 13.8C10.6203 13.8975 11.0028 13.9575 11.3478 13.9875C11.5878 14.01 11.7828 14.175 11.8503 14.4075C11.9103 14.64 11.8203 14.88 11.6253 15.015C11.1303 15.3525 10.5078 15.6375 9.72028 15.8925L8.53528 16.2825C7.67278 16.5525 6.92278 16.6875 6.24778 16.6875ZM5.83528 4.66501L4.86778 4.98001C2.19028 5.84251 1.55278 7.10251 2.41528 9.78751L3.37528 12.75C4.24528 15.4275 5.50528 16.0725 8.18278 15.21L9.36778 14.82C9.41278 14.805 9.45028 14.79 9.49528 14.775L8.70028 14.5875C5.24278 13.77 4.11028 11.94 4.92028 8.49001L5.65528 5.34751C5.70778 5.10751 5.76778 4.87501 5.83528 4.66501Z" fill="#292D32"/>
</svg>
