<svg width="12" height="12" viewBox="0 0 12 12" fill="none" xmlns="http://www.w3.org/2000/svg">
<path id="Vector" fill-rule="evenodd" clip-rule="evenodd" d="M6.34002 1.21205L8.18954 4.84383L10.4307 3.54476C10.724 3.3751 11.0913 3.6561 10.9794 4.02216L9.7302 8.51319C9.57994 9.05364 9.14304 9.44736 8.59088 9.44736H3.40997C2.85781 9.44736 2.42102 9.05375 2.27065 8.51319L1.01551 4.00141C0.921487 3.66163 1.27348 3.37452 1.56978 3.54522L1.57 3.54476L3.81119 4.84383L5.66072 1.21205C5.80587 0.926672 6.1982 0.931974 6.34002 1.21205ZM2.72255 11C2.21608 11 2.21608 10.2021 2.72255 10.2021H9.2783C9.78477 10.2021 9.78477 11 9.2783 11H2.72255ZM7.69396 5.57526L6.00037 2.24995L4.30689 5.57526L4.30656 5.57503C4.20297 5.77477 3.96757 5.8452 3.78096 5.73731L2.01002 4.71083L3.00708 8.29489C3.06209 8.49268 3.2048 8.64931 3.41008 8.64931H8.59099C8.79627 8.64931 8.93898 8.49268 8.99399 8.29489L9.99105 4.71083L8.21255 5.74193C8.02483 5.84439 7.79265 5.76982 7.69396 5.57526Z" fill="#E7241C" stroke="#E7241C" stroke-width="0.2"/>
</svg>
