<svg width="16" height="16" viewBox="0 0 16 16" fill="none" xmlns="http://www.w3.org/2000/svg">
<g id="downloaded">
<path id="Vector" d="M4.22727 5.1059C4.77639 3.49057 6.25804 2.33325 7.99967 2.33325C10.2088 2.33325 11.9997 4.19528 11.9997 6.49222C13.4724 6.49222 14.6663 7.73358 14.6663 9.26485C14.6663 10.2911 14.1301 11.1872 13.333 11.6666M4.21347 5.13755C2.58674 5.36729 1.33301 6.81723 1.33301 8.57165C1.33301 9.70539 1.85661 10.7121 2.66611 11.3444" stroke="#12B3B3" stroke-width="1.5" stroke-linecap="round" stroke-linejoin="round"/>
<path id="Vector_2" d="M7.19272 13.78C7.05939 13.78 6.93272 13.7266 6.83939 13.6333L5.22605 12.02C5.03272 11.8266 5.03272 11.5066 5.22605 11.3133C5.41939 11.12 5.73939 11.12 5.93272 11.3133L7.19272 12.5733L10.0594 9.70665C10.2527 9.51331 10.5727 9.51331 10.7661 9.70665C10.9594 9.89998 10.9594 10.22 10.7661 10.4133L7.54605 13.6333C7.45272 13.7266 7.32605 13.78 7.19272 13.78Z" fill="#12B3B3" stroke="#12B3B3" stroke-width="0.3"/>
</g>
</svg>
