<svg width="21" height="21" viewBox="0 0 21 21" fill="none" xmlns="http://www.w3.org/2000/svg">
<g id="menu">
<g id="vuesax/outline/menu">
<g id="menu_2">
<path id="Vector" d="M18.375 5.90627H2.625C2.26625 5.90627 1.96875 5.60877 1.96875 5.25002C1.96875 4.89127 2.26625 4.59377 2.625 4.59377H18.375C18.7337 4.59377 19.0312 4.89127 19.0312 5.25002C19.0312 5.60877 18.7337 5.90627 18.375 5.90627Z" fill="#12B3B3"/>
<path id="Vector_2" d="M14.875 11.1563H2.625C2.26625 11.1563 1.96875 10.8588 1.96875 10.5C1.96875 10.1413 2.26625 9.84377 2.625 9.84377H14.875C15.2338 9.84377 15.5312 10.1413 15.5312 10.5C15.5312 10.8588 15.2338 11.1563 14.875 11.1563Z" fill="#12B3B3"/>
<path id="Vector_3" d="M18.375 16.4063H2.625C2.26625 16.4063 1.96875 16.1088 1.96875 15.75C1.96875 15.3913 2.26625 15.0938 2.625 15.0938H18.375C18.7337 15.0938 19.0312 15.3913 19.0312 15.75C19.0312 16.1088 18.7337 16.4063 18.375 16.4063Z" fill="#12B3B3"/>
</g>
</g>
</g>
</svg>
