<svg width="40" height="40" viewBox="0 0 40 40" fill="none" xmlns="http://www.w3.org/2000/svg">
<path d="M14.9998 17.9167C12.4665 17.9167 10.4165 15.8667 10.4165 13.3333C10.4165 10.8 12.4665 8.75 14.9998 8.75C17.5332 8.75 19.5832 10.8 19.5832 13.3333C19.5832 15.8667 17.5332 17.9167 14.9998 17.9167ZM14.9998 11.25C13.8498 11.25 12.9165 12.1833 12.9165 13.3333C12.9165 14.4834 13.8498 15.4167 14.9998 15.4167C16.1498 15.4167 17.0832 14.4834 17.0832 13.3333C17.0832 12.1833 16.1498 11.25 14.9998 11.25Z" fill="#12B3B3"/>
<path d="M24.9997 37.9168H14.9997C5.94967 37.9168 2.08301 34.0501 2.08301 25V15C2.08301 5.94999 5.94967 2.08331 14.9997 2.08331H21.6663C22.3497 2.08331 22.9163 2.64998 22.9163 3.33332C22.9163 4.01665 22.3497 4.58332 21.6663 4.58332H14.9997C7.31634 4.58332 4.58301 7.31666 4.58301 15V25C4.58301 32.6834 7.31634 35.4167 14.9997 35.4167H24.9997C32.683 35.4167 35.4163 32.6834 35.4163 25V16.6667C35.4163 15.9834 35.983 15.4167 36.6663 15.4167C37.3497 15.4167 37.9163 15.9834 37.9163 16.6667V25C37.9163 34.0501 34.0497 37.9168 24.9997 37.9168Z" fill="#12B3B3"/>
<path d="M35.4167 9.58338H26.25C25.5667 9.58338 25 9.01671 25 8.33338C25 7.65004 25.5667 7.08337 26.25 7.08337H35.4167C36.1 7.08337 36.6667 7.65004 36.6667 8.33338C36.6667 9.01671 36.1 9.58338 35.4167 9.58338Z" fill="#12B3B3"/>
<path d="M30.833 14.1667C30.1497 14.1667 29.583 13.6 29.583 12.9167V3.75C29.583 3.06667 30.1497 2.5 30.833 2.5C31.5163 2.5 32.083 3.06667 32.083 3.75V12.9167C32.083 13.6 31.5163 14.1667 30.833 14.1667Z" fill="#12B3B3"/>
<path d="M4.44935 32.8335C4.04935 32.8335 3.64935 32.6335 3.41602 32.2835C3.03268 31.7168 3.18268 30.9334 3.74935 30.5501L11.966 25.0334C13.766 23.8334 16.2493 23.9668 17.8827 25.3501L18.4327 25.8334C19.266 26.5501 20.6827 26.5501 21.4993 25.8334L28.4327 19.8834C30.216 18.3667 32.9827 18.3667 34.766 19.8834L37.4827 22.2168C37.9993 22.6668 38.066 23.4501 37.616 23.9834C37.166 24.5001 36.3827 24.5668 35.8493 24.1168L33.1327 21.7834C32.2993 21.0668 30.8827 21.0668 30.066 21.7834L23.1327 27.7334C21.366 29.2501 18.5827 29.2501 16.7993 27.7334L16.2493 27.2501C15.4827 26.6001 14.216 26.5334 13.366 27.1168L5.16602 32.6335C4.93268 32.7668 4.68268 32.8335 4.44935 32.8335Z" fill="#12B3B3"/>
</svg>
