<svg width="20" height="20" viewBox="0 0 20 20" fill="none" xmlns="http://www.w3.org/2000/svg">
<g id="15-clipboard-tick">
<path id="Vector" fill-rule="evenodd" clip-rule="evenodd" d="M6.70538 3.3609C6.67997 3.49487 6.66667 3.63314 6.66667 3.77452C6.66667 4.06905 6.72439 4.3501 6.82915 4.60697C6.38619 4.62292 6.00762 4.6496 5.67565 4.69423C4.90655 4.79763 4.57739 4.97634 4.36019 5.19353C4.143 5.41073 3.96429 5.73989 3.86089 6.50899C3.75266 7.31405 3.75 8.39333 3.75 10V11.6667C3.75 13.2733 3.75266 14.3526 3.86089 15.1577C3.96429 15.9268 4.143 16.2559 4.36019 16.4732C4.57739 16.6903 4.90655 16.8691 5.67565 16.9724C6.48072 17.0807 7.55998 17.0833 9.16667 17.0833H10.8333C12.44 17.0833 13.5192 17.0807 14.3243 16.9724C15.0934 16.8691 15.4226 16.6903 15.6398 16.4732C15.857 16.2559 16.0357 15.9268 16.1391 15.1577C16.2473 14.3526 16.25 13.2733 16.25 11.6667V10C16.25 8.39333 16.2473 7.31405 16.1391 6.50899C16.0357 5.73989 15.857 5.41073 15.6398 5.19353C15.4226 4.97634 15.0934 4.79763 14.3243 4.69423C13.9924 4.6496 13.6138 4.62292 13.1708 4.60697C13.2756 4.3501 13.3333 4.06905 13.3333 3.77452C13.3333 3.63314 13.32 3.49487 13.2946 3.3609C14.8777 3.42386 15.8447 3.63062 16.5237 4.30965C17.5 5.28596 17.5 6.85731 17.5 10V11.6667C17.5 14.8093 17.5 16.3808 16.5237 17.357C15.5474 18.3333 13.976 18.3333 10.8333 18.3333H9.16667C6.02397 18.3333 4.45262 18.3333 3.47631 17.357C2.5 16.3808 2.5 14.8093 2.5 11.6667V10C2.5 6.85731 2.5 5.28596 3.47631 4.30965C4.15534 3.63062 5.12221 3.42386 6.70538 3.3609Z" fill="#0D0D0D" stroke="white" stroke-width="0.181818"/>
<path id="Vector_2" d="M8.3335 11.25L9.5835 12.5L12.0835 10" stroke="#0D0D0D" stroke-width="1.18182" stroke-linecap="round" stroke-linejoin="round"/>
<path id="Vector_3" d="M11.533 2.29165H8.61268C7.67186 2.29165 6.90918 2.94457 6.90918 3.74998C6.90918 4.5554 7.67186 5.20831 8.61268 5.20831H11.533C12.4738 5.20831 13.2365 4.5554 13.2365 3.74998C13.2365 2.94457 12.4738 2.29165 11.533 2.29165Z" stroke="#0D0D0D" stroke-width="1.18182"/>
</g>
</svg>
