<svg width="16" height="16" viewBox="0 0 16 16" fill="none" xmlns="http://www.w3.org/2000/svg">
<path d="M5 6L8.5 2L10 2.5L9.5 5.5L10 6.5H14L14.5 7.5L12 14H9.5H7.5L5 12V6Z" fill="#12B3B3"/>
<path d="M2 6V5L4 4.5L5 5.5L7 6.5H11L11.5 7.5L9 14L5 11.5L4.5 13L2 13.5V12V6Z" fill="#12B3B3"/>
<path d="M10.8532 14.7333H8.31991C7.94658 14.7333 7.13324 14.62 6.69991 14.1867L4.67991 12.6267L5.29324 11.8333L7.35991 13.4333C7.52658 13.5933 7.94658 13.7267 8.31991 13.7267H10.8532C11.4532 13.7267 12.0999 13.2467 12.2332 12.7067L13.8466 7.80668C13.9532 7.51335 13.9332 7.24668 13.7932 7.05335C13.6466 6.84668 13.3799 6.72668 13.0532 6.72668H10.3866C10.0399 6.72668 9.71991 6.58001 9.49991 6.32668C9.27324 6.06668 9.17324 5.72001 9.22658 5.36001L9.55991 3.22001C9.63991 2.84668 9.38658 2.42668 9.02658 2.30668C8.69991 2.18668 8.27991 2.36001 8.13324 2.57335L5.39991 6.64001L4.57324 6.08668L7.30658 2.02001C7.72658 1.39335 8.64658 1.09335 9.36658 1.36668C10.1999 1.64001 10.7332 2.56001 10.5466 3.41335L10.2199 5.51335C10.2132 5.56001 10.2132 5.62668 10.2599 5.68001C10.2932 5.71335 10.3399 5.73335 10.3932 5.73335H13.0599C13.7132 5.73335 14.2799 6.00668 14.6132 6.48001C14.9399 6.94001 15.0066 7.54668 14.7932 8.13335L13.1999 12.9867C12.9532 13.9533 11.9266 14.7333 10.8532 14.7333Z" fill="#12B3B3"/>
<path d="M3.58691 14H2.92025C1.68691 14 1.08691 13.42 1.08691 12.2334V5.70002C1.08691 4.51335 1.68691 3.93335 2.92025 3.93335H3.58691C4.82025 3.93335 5.42025 4.51335 5.42025 5.70002V12.2334C5.42025 13.42 4.82025 14 3.58691 14ZM2.92025 4.93335C2.19358 4.93335 2.08691 5.10668 2.08691 5.70002V12.2334C2.08691 12.8267 2.19358 13 2.92025 13H3.58691C4.31358 13 4.42025 12.8267 4.42025 12.2334V5.70002C4.42025 5.10668 4.31358 4.93335 3.58691 4.93335H2.92025Z" fill="#12B3B3"/>
</svg>
