<svg width="16" height="17" viewBox="0 0 16 17" fill="none" xmlns="http://www.w3.org/2000/svg">
<path d="M14.5116 8.03116V7.01163C14.5116 5.28464 13.8256 3.62838 12.6044 2.40721C11.3833 1.18604 9.72699 0.5 8 0.5C6.27301 0.5 4.61675 1.18604 3.39558 2.40721C2.17442 3.62838 1.48837 5.28464 1.48837 7.01163V8.03116C1.06173 8.1521 0.685909 8.40834 0.417481 8.76132C0.149053 9.11431 0.00254205 9.54493 0 9.98837V11.4767C0 12.0195 0.215614 12.5401 0.599409 12.9238C0.983205 13.3076 1.50374 13.5233 2.04651 13.5233H2.7907C3.13549 13.5213 3.46561 13.3835 3.70942 13.1397C3.95323 12.8958 4.09107 12.5657 4.09302 12.2209V9.24419C4.09107 8.89939 3.95323 8.56927 3.70942 8.32546C3.46561 8.08165 3.13549 7.94381 2.7907 7.94186H2.60465V7.01163C2.60465 5.58069 3.17309 4.20836 4.18491 3.19654C5.19674 2.18472 6.56906 1.61628 8 1.61628C9.43094 1.61628 10.8033 2.18472 11.8151 3.19654C12.8269 4.20836 13.3953 5.58069 13.3953 7.01163V7.94186H13.2093C12.8645 7.94381 12.5344 8.08165 12.2906 8.32546C12.0468 8.56927 11.9089 8.89939 11.907 9.24419V12.2209C11.9089 12.5657 12.0468 12.8958 12.2906 13.1397C12.5344 13.3835 12.8645 13.5213 13.2093 13.5233H13.3953V14.4535C13.3953 14.7002 13.2973 14.9368 13.1229 15.1113C12.9484 15.2857 12.7118 15.3837 12.4651 15.3837H8C7.85197 15.3837 7.71001 15.4425 7.60534 15.5472C7.50066 15.6519 7.44186 15.7938 7.44186 15.9419C7.44186 16.0899 7.50066 16.2319 7.60534 16.3365C7.71001 16.4412 7.85197 16.5 8 16.5H12.4651C13.0079 16.5 13.5284 16.2844 13.9122 15.9006C14.296 15.5168 14.5116 14.9963 14.5116 14.4535V13.434C14.9383 13.313 15.3141 13.0568 15.5825 12.7038C15.8509 12.3508 15.9975 11.9202 16 11.4767V9.98837C15.9975 9.54493 15.8509 9.11431 15.5825 8.76132C15.3141 8.40834 14.9383 8.1521 14.5116 8.03116ZM2.97674 9.24419V12.2209C2.97674 12.2703 2.95714 12.3176 2.92225 12.3525C2.88736 12.3874 2.84004 12.407 2.7907 12.407H2.04651C1.7998 12.407 1.56319 12.309 1.38874 12.1345C1.21429 11.9601 1.11628 11.7235 1.11628 11.4767V9.98837C1.11628 9.74166 1.21429 9.50505 1.38874 9.3306C1.56319 9.15615 1.7998 9.05814 2.04651 9.05814H2.7907C2.84004 9.05814 2.88736 9.07774 2.92225 9.11263C2.95714 9.14752 2.97674 9.19484 2.97674 9.24419ZM14.8837 11.4767C14.8837 11.7235 14.7857 11.9601 14.6113 12.1345C14.4368 12.309 14.2002 12.407 13.9535 12.407H13.2093C13.16 12.407 13.1126 12.3874 13.0777 12.3525C13.0429 12.3176 13.0233 12.2703 13.0233 12.2209V9.24419C13.0233 9.19484 13.0429 9.14752 13.0777 9.11263C13.1126 9.07774 13.16 9.05814 13.2093 9.05814H13.9535C14.2002 9.05814 14.4368 9.15615 14.6113 9.3306C14.7857 9.50505 14.8837 9.74166 14.8837 9.98837V11.4767Z" fill="#00B3B3"/>
</svg>
