<svg width="19" height="19" viewBox="0 0 19 19" fill="none" xmlns="http://www.w3.org/2000/svg">
<g id="vuesax/outline/notification">
<g id="notification">
<path id="Vector" d="M9.51557 16.2529C7.67098 16.2529 5.8264 15.96 4.07682 15.3742C3.41182 15.1446 2.90515 14.6775 2.68348 14.0679C2.4539 13.4583 2.53307 12.7854 2.89723 12.1838L3.80765 10.6717C3.99765 10.355 4.17182 9.72168 4.17182 9.34959V7.06168C4.17182 4.11668 6.57057 1.71793 9.51557 1.71793C12.4606 1.71793 14.8593 4.11668 14.8593 7.06168V9.34959C14.8593 9.71376 15.0335 10.355 15.2235 10.6796L16.126 12.1838C16.4664 12.7538 16.5297 13.4425 16.3001 14.0679C16.0706 14.6933 15.5718 15.1683 14.9464 15.3742C13.2047 15.96 11.3602 16.2529 9.51557 16.2529ZM9.51557 2.90543C7.22765 2.90543 5.35932 4.76584 5.35932 7.06168V9.34959C5.35932 9.92751 5.12182 10.7825 4.8289 11.2813L3.91848 12.7933C3.74432 13.0863 3.69682 13.395 3.79973 13.6563C3.89473 13.9254 4.13223 14.1313 4.45682 14.2421C7.76598 15.3504 11.2731 15.3504 14.5822 14.2421C14.8672 14.1471 15.0889 13.9333 15.1918 13.6483C15.2947 13.3633 15.271 13.0546 15.1127 12.7933L14.2022 11.2813C13.9014 10.7667 13.6718 9.91959 13.6718 9.34168V7.06168C13.6718 4.76584 11.8114 2.90543 9.51557 2.90543Z" fill="#242423"/>
<path id="Vector_2" d="M10.9886 3.11916C10.9332 3.11916 10.8778 3.11125 10.8224 3.09541C10.5928 3.03208 10.3711 2.98458 10.1574 2.95291C9.48448 2.86583 8.83531 2.91333 8.22573 3.09541C8.00406 3.16666 7.76656 3.09541 7.61615 2.92916C7.46573 2.76291 7.41823 2.52541 7.50531 2.31166C7.8299 1.48041 8.62156 0.934162 9.52406 0.934162C10.4266 0.934162 11.2182 1.4725 11.5428 2.31166C11.622 2.52541 11.5824 2.76291 11.432 2.92916C11.3132 3.05583 11.147 3.11916 10.9886 3.11916Z" fill="#242423"/>
<path id="Vector_3" d="M9.51562 18.0579C8.73187 18.0579 7.97187 17.7412 7.41771 17.1871C6.86354 16.6329 6.54688 15.8729 6.54688 15.0892H7.73438C7.73438 15.5562 7.92437 16.0154 8.25687 16.3479C8.58938 16.6804 9.04854 16.8704 9.51562 16.8704C10.4973 16.8704 11.2969 16.0708 11.2969 15.0892H12.4844C12.4844 16.7279 11.1544 18.0579 9.51562 18.0579Z" fill="#242423"/>
</g>
</g>
</svg>
