<svg width="25" height="24" viewBox="0 0 25 24" fill="none" xmlns="http://www.w3.org/2000/svg">
<path d="M6.05968 17.8248C7.2171 15.5547 9.57689 14 12.2998 14C15.0017 14 17.346 15.5308 18.5129 17.7723M14.6331 8.4444C14.6331 9.7945 13.5387 10.8889 12.1887 10.8889C10.8387 10.8889 9.74424 9.7945 9.74424 8.4444C9.74424 7.09442 10.8387 6 12.1887 6C13.5387 6 14.6331 7.09442 14.6331 8.4444ZM12.2998 19C8.55007 19 6.6752 19 5.36087 18.0451C4.9364 17.7367 4.56311 17.3634 4.25471 16.9389C3.2998 15.6246 3.2998 13.7497 3.2998 10C3.2998 6.25027 3.2998 4.3754 4.25471 3.06107C4.56311 2.6366 4.9364 2.26331 5.36087 1.95491C6.6752 1 8.55007 1 12.2998 1C16.0495 1 17.9244 1 19.2387 1.95491C19.6632 2.26331 20.0365 2.6366 20.3449 3.06107C21.2998 4.3754 21.2998 6.25027 21.2998 10C21.2998 13.7497 21.2998 15.6246 20.3449 16.9389C20.0365 17.3634 19.6632 17.7367 19.2387 18.0451C17.9244 19 16.0495 19 12.2998 19Z" stroke="#07090F" stroke-opacity="0.8" stroke-width="1.5" stroke-linecap="round" stroke-linejoin="round"/>
</svg>
