<svg width="19" height="19" viewBox="0 0 19 19" fill="none" xmlns="http://www.w3.org/2000/svg">
<g opacity="0.8">
<path d="M16.625 9.5C16.625 10.4357 16.4407 11.3622 16.0826 12.2266C15.7246 13.0911 15.1998 13.8765 14.5381 14.5381C13.8765 15.1998 13.0911 15.7246 12.2266 16.0826C11.3622 16.4407 10.4357 16.625 9.5 16.625C8.56433 16.625 7.63783 16.4407 6.77338 16.0826C5.90894 15.7246 5.12348 15.1998 4.46186 14.5381C3.80025 13.8765 3.27542 13.0911 2.91736 12.2266C2.55929 11.3622 2.375 10.4357 2.375 9.5C2.375 7.61033 3.12567 5.79806 4.46186 4.46186C5.79806 3.12567 7.61033 2.375 9.5 2.375C11.3897 2.375 13.2019 3.12567 14.5381 4.46186C15.8743 5.79806 16.625 7.61033 16.625 9.5Z" stroke="#242423" stroke-width="0.863636" stroke-linecap="round" stroke-linejoin="round"/>
<path d="M12.5954 9.2403C12.6418 9.26599 12.6804 9.30362 12.7073 9.34928C12.7342 9.39494 12.7484 9.44697 12.7484 9.49997C12.7484 9.55297 12.7342 9.605 12.7073 9.65066C12.6804 9.69632 12.6418 9.73395 12.5954 9.75964L8.15971 12.2241C8.11451 12.2492 8.06354 12.262 8.01185 12.2614C7.96015 12.2607 7.90953 12.2466 7.86498 12.2203C7.82044 12.1941 7.78351 12.1567 7.75786 12.1118C7.73221 12.0669 7.71873 12.0161 7.71875 11.9644V7.03551C7.71875 6.8091 7.96179 6.6666 8.15971 6.77664L12.5954 9.2403Z" stroke="#242423" stroke-width="0.863636" stroke-linecap="round" stroke-linejoin="round"/>
</g>
</svg>
