<svg width="10" height="10" viewBox="0 0 10 10" fill="none" xmlns="http://www.w3.org/2000/svg">
<g id="refresh">
<g id="vuesax/outline/refresh">
<g id="refresh_2">
<path id="Vector" d="M3.93734 9.34166C4.07484 9.34166 4.204 9.25 4.2415 9.10833C4.28734 8.94166 4.18734 8.77083 4.0165 8.725C2.32484 8.27916 1.14567 6.74583 1.14567 4.99583C1.14567 2.87083 2.87484 1.14166 4.99984 1.14166C6.804 1.14166 7.98734 2.19583 8.5415 2.83333H7.3165C7.14567 2.83333 7.004 2.975 7.004 3.14583C7.004 3.31666 7.1415 3.4625 7.3165 3.4625H9.16234C9.18317 3.4625 9.22067 3.45833 9.24984 3.45C9.28734 3.4375 9.32067 3.42083 9.34984 3.4C9.38734 3.375 9.4165 3.34166 9.43734 3.30416C9.45817 3.26666 9.47484 3.22083 9.479 3.175C9.479 3.1625 9.479 3.15416 9.479 3.14166V1.24999C9.479 1.07916 9.33734 0.937495 9.1665 0.937495C8.99567 0.937495 8.854 1.07916 8.854 1.24999V2.24583C8.17484 1.51666 6.89567 0.520828 4.99984 0.520828C2.529 0.520828 0.52067 2.52916 0.52067 5C0.52067 7.03333 1.8915 8.81666 3.85817 9.33333C3.88317 9.3375 3.91234 9.34166 3.93734 9.34166Z" fill="#E7241C" stroke="#E7241C" stroke-width="0.2"/>
<path id="Vector_2" d="M5.29567 9.47083C5.304 9.47083 5.31234 9.46667 5.3165 9.46667C5.7665 9.4375 6.20817 9.3375 6.62484 9.175C6.74567 9.12917 6.829 9.00833 6.82484 8.87917C6.82484 8.84167 6.8165 8.80417 6.804 8.77083C6.7415 8.6125 6.554 8.53333 6.39984 8.59167C6.03734 8.73333 5.65817 8.81667 5.27484 8.84583C5.11234 8.85417 4.98317 8.99583 4.98317 9.1625L4.98734 9.17917C4.99567 9.34167 5.13317 9.47083 5.29567 9.47083ZM7.5915 8.575C7.66234 8.575 7.729 8.55 7.78734 8.50833C8.13734 8.225 8.44567 7.89583 8.69567 7.52917C8.73317 7.475 8.754 7.41667 8.754 7.35417C8.754 7.25 8.704 7.15417 8.6165 7.09583C8.479 7 8.279 7.0375 8.18317 7.17083C8.18317 7.175 8.18317 7.175 8.18317 7.175C8.179 7.17917 8.17484 7.1875 8.17067 7.19167C7.954 7.50417 7.6915 7.78333 7.39567 8.01667C7.32484 8.075 7.279 8.1625 7.279 8.25833C7.279 8.32917 7.29984 8.4 7.34567 8.45833C7.40817 8.53333 7.49567 8.575 7.5915 8.575ZM8.98317 6.54167C9.12067 6.54167 9.2415 6.45417 9.279 6.325C9.41234 5.89583 9.479 5.45 9.479 5V4.99583C9.47484 4.825 9.33734 4.6875 9.1665 4.6875C8.99567 4.6875 8.854 4.82917 8.854 5C8.854 5.39167 8.79567 5.775 8.68317 6.1375C8.67484 6.17083 8.67067 6.2 8.67067 6.23333C8.67067 6.36667 8.75817 6.4875 8.8915 6.52917C8.92067 6.5375 8.94984 6.54167 8.98317 6.54167Z" fill="#E7241C"/>
</g>
</g>
</g>
</svg>
