<svg width="25" height="24" viewBox="0 0 25 24" fill="none" xmlns="http://www.w3.org/2000/svg">
<path d="M11.5996 21.75C5.94961 21.75 1.34961 17.15 1.34961 11.5C1.34961 5.85 5.94961 1.25 11.5996 1.25C17.2496 1.25 21.8496 5.85 21.8496 11.5C21.8496 17.15 17.2496 21.75 11.5996 21.75ZM11.5996 2.75C6.76961 2.75 2.84961 6.68 2.84961 11.5C2.84961 16.32 6.76961 20.25 11.5996 20.25C16.4296 20.25 20.3496 16.32 20.3496 11.5C20.3496 6.68 16.4296 2.75 11.5996 2.75Z" fill="#12B3B3" stroke="#12B3B3" stroke-width="0.105264"/>
<path d="M22.1 22.75C21.91 22.75 21.72 22.68 21.57 22.53L19.57 20.53C19.28 20.24 19.28 19.76 19.57 19.47C19.86 19.18 20.34 19.18 20.63 19.47L22.63 21.47C22.92 21.76 22.92 22.24 22.63 22.53C22.48 22.68 22.29 22.75 22.1 22.75Z" fill="#12B3B3" stroke="#12B3B3" stroke-width="0.105264"/>
</svg>
