<svg width="24" height="24" viewBox="0 0 24 24" fill="none" xmlns="http://www.w3.org/2000/svg">
<path d="M11.6247 21.2625C6.25721 21.2625 1.88721 16.8925 1.88721 11.525C1.88721 6.15748 6.25721 1.78748 11.6247 1.78748C16.9922 1.78748 21.3622 6.15748 21.3622 11.525C21.3622 16.8925 16.9922 21.2625 11.6247 21.2625ZM11.6247 3.21248C7.03621 3.21248 3.31221 6.94598 3.31221 11.525C3.31221 16.104 7.03621 19.8375 11.6247 19.8375C16.2132 19.8375 19.9372 16.104 19.9372 11.525C19.9372 6.94598 16.2132 3.21248 11.6247 3.21248Z" fill="#242423" stroke="#242423" stroke-width="0.1"/>
<path d="M21.5999 22.2124C21.4194 22.2124 21.2389 22.1459 21.0964 22.0034L19.1964 20.1034C18.9209 19.8279 18.9209 19.3719 19.1964 19.0964C19.4719 18.8209 19.9279 18.8209 20.2034 19.0964L22.1034 20.9964C22.3789 21.2719 22.3789 21.7279 22.1034 22.0034C21.9609 22.1459 21.7804 22.2124 21.5999 22.2124Z" fill="#242423" stroke="#242423" stroke-width="0.1"/>
</svg>
