<svg width="16" height="16" viewBox="0 0 16 16" fill="none" xmlns="http://www.w3.org/2000/svg">
<g id="Outline / Essentional, UI / Share">
<path id="Vector" fill-rule="evenodd" clip-rule="evenodd" d="M11.1996 1.36296C9.92317 1.36296 8.88845 2.39768 8.88845 3.67407C8.88845 3.81338 8.90078 3.94982 8.9244 4.08234L5.56039 6.43715C5.54329 6.44911 5.52712 6.4619 5.51187 6.47542C5.11951 6.16827 4.62537 5.98518 4.08845 5.98518C2.81206 5.98518 1.77734 7.0199 1.77734 8.29629C1.77734 9.57269 2.81206 10.6074 4.08845 10.6074C4.62537 10.6074 5.11951 10.4243 5.51187 10.1172C5.52712 10.1307 5.54329 10.1435 5.56039 10.1554L8.9244 12.5102C8.90078 12.6428 8.88845 12.7792 8.88845 12.9185C8.88845 14.1949 9.92317 15.2296 11.1996 15.2296C12.476 15.2296 13.5107 14.1949 13.5107 12.9185C13.5107 11.6421 12.476 10.6074 11.1996 10.6074C10.4509 10.6074 9.78541 10.9634 9.36307 11.5153L6.17774 9.28555C6.31998 8.98566 6.39957 8.65027 6.39957 8.29629C6.39957 7.94232 6.31998 7.60692 6.17774 7.30704L9.36307 5.0773C9.78541 5.62922 10.4509 5.98518 11.1996 5.98518C12.476 5.98518 13.5107 4.95046 13.5107 3.67407C13.5107 2.39768 12.476 1.36296 11.1996 1.36296ZM9.95512 3.67407C9.95512 2.98678 10.5123 2.42963 11.1996 2.42963C11.8869 2.42963 12.444 2.98678 12.444 3.67407C12.444 4.36136 11.8869 4.91852 11.1996 4.91852C10.5123 4.91852 9.95512 4.36136 9.95512 3.67407ZM4.08845 7.05185C3.40117 7.05185 2.84401 7.60901 2.84401 8.29629C2.84401 8.98358 3.40117 9.54074 4.08845 9.54074C4.77574 9.54074 5.3329 8.98358 5.3329 8.29629C5.3329 7.60901 4.77574 7.05185 4.08845 7.05185ZM11.1996 11.6741C10.5123 11.6741 9.95512 12.2312 9.95512 12.9185C9.95512 13.6058 10.5123 14.163 11.1996 14.163C11.8869 14.163 12.444 13.6058 12.444 12.9185C12.444 12.2312 11.8869 11.6741 11.1996 11.6741Z" fill="#12B3B3"/>
</g>
</svg>
