<svg width="14" height="14" viewBox="0 0 14 14" fill="none" xmlns="http://www.w3.org/2000/svg">
<g id="Frame" clip-path="url(#clip0_654_2028)">
<path id="Vector" d="M5.3125 3.89062H4.46875C4.13309 3.89062 3.81117 4.02397 3.57382 4.26132C3.33647 4.49867 3.20313 4.82059 3.20312 5.15625V10.2188C3.20312 10.5544 3.33647 10.8763 3.57382 11.1137C3.81117 11.351 4.13309 11.4844 4.46875 11.4844H9.53125C9.86691 11.4844 10.1888 11.351 10.4262 11.1137C10.6635 10.8763 10.7969 10.5544 10.7969 10.2188V5.15625C10.7969 4.82059 10.6635 4.49867 10.4262 4.26132C10.1888 4.02397 9.86691 3.89062 9.53125 3.89062H8.6875M8.6875 2.20312L7 0.515625M7 0.515625L5.3125 2.20312M7 0.515625V7.6875" stroke="#242423" stroke-width="0.84375" stroke-linecap="round" stroke-linejoin="round"/>
</g>
<defs>
<clipPath id="clip0_654_2028">
<rect width="13.5" height="13.5" fill="white" transform="translate(0.25 0.25)"/>
</clipPath>
</defs>
</svg>
