<svg width="22" height="22" viewBox="0 0 22 22" fill="none" xmlns="http://www.w3.org/2000/svg">
<g id="star">
<g id="vuesax/outline/star">
<g id="star_2">
<path id="Vector" d="M15.4763 18.4386C15.0571 18.4386 14.5192 18.3041 13.847 17.9087L11.4821 16.5087C11.2369 16.3664 10.7623 16.3664 10.5251 16.5087L8.15229 17.9087C6.75235 18.7391 5.92978 18.4069 5.55805 18.138C5.19422 17.8691 4.62476 17.181 4.99649 15.5992L5.55805 13.171C5.62132 12.9179 5.49477 12.4829 5.30495 12.2931L3.34345 10.3316C2.36271 9.35084 2.4418 8.51246 2.57626 8.10118C2.71071 7.68989 3.13781 6.96224 4.49821 6.73287L7.02126 6.31368C7.25854 6.27414 7.59864 6.02104 7.70146 5.80749L9.1014 3.01552C9.73414 1.74213 10.5646 1.55231 10.9996 1.55231C11.4346 1.55231 12.2651 1.74213 12.8978 3.01552L14.2899 5.79958C14.4006 6.01313 14.7407 6.26623 14.978 6.30577L17.501 6.72496C18.8693 6.95433 19.2964 7.68199 19.423 8.09327C19.5495 8.50455 19.6286 9.34293 18.6558 10.3237L16.6943 12.2931C16.5045 12.4829 16.3858 12.91 16.4412 13.171L17.0028 15.5992C17.3666 17.181 16.805 17.8691 16.4412 18.138C16.2435 18.2804 15.9271 18.4386 15.4763 18.4386ZM10.9996 15.2116C11.3872 15.2116 11.7747 15.3065 12.0832 15.4884L14.4481 16.8884C15.1362 17.2996 15.5712 17.2996 15.7373 17.181C15.9034 17.0624 16.022 16.6432 15.848 15.8681L15.2864 13.4399C15.1362 12.7835 15.3814 11.9372 15.8559 11.4547L17.8174 9.49321C18.205 9.10565 18.379 8.72601 18.2999 8.465C18.2129 8.204 17.849 7.99045 17.3112 7.90344L14.7882 7.48425C14.1791 7.38143 13.5148 6.89106 13.2379 6.33741L11.8459 3.55335C11.5928 3.04716 11.2764 2.74661 10.9996 2.74661C10.7228 2.74661 10.4064 3.04716 10.1612 3.55335L8.7613 6.33741C8.48448 6.89106 7.8201 7.38143 7.21108 7.48425L4.69594 7.90344C4.15811 7.99045 3.79428 8.204 3.70728 8.465C3.62028 8.72601 3.80219 9.11356 4.18975 9.49321L6.15124 11.4547C6.6258 11.9293 6.87099 12.7835 6.72071 13.4399L6.15915 15.8681C5.97724 16.6511 6.10379 17.0624 6.26988 17.181C6.43598 17.2996 6.86308 17.2917 7.55909 16.8884L9.92396 15.4884C10.2245 15.3065 10.6121 15.2116 10.9996 15.2116Z" fill="#12B3B3" stroke="#12B3B3" stroke-width="0.431414"/>
</g>
</g>
</g>
</svg>
