<svg width="18" height="18" viewBox="0 0 18 18" fill="none" xmlns="http://www.w3.org/2000/svg">
<g id="archive-slash">
<g id="vuesax/outline/archive-slash">
<g id="archive-slash_2">
<path id="Vector" d="M3.16553 15.2709C3.0547 15.2709 2.94387 15.23 2.85637 15.1425C2.6872 14.9734 2.6872 14.6934 2.85637 14.5242L14.523 2.85753C14.6922 2.68836 14.9722 2.68836 15.1414 2.85753C15.3105 3.02669 15.3105 3.30669 15.1414 3.47586L3.4747 15.1425C3.3872 15.23 3.27637 15.2709 3.16553 15.2709Z" fill="#242423"/>
<path id="Vector_2" d="M13.0128 15.2709C12.6862 15.2709 12.3362 15.1717 11.9862 14.9792L8.18282 12.605C7.97865 12.4767 7.91449 12.2084 8.04282 12.0042C8.17115 11.8 8.43949 11.7359 8.64365 11.8642L12.4295 14.2267C12.7562 14.4075 13.0828 14.4484 13.2928 14.3259C13.5028 14.2034 13.6253 13.9 13.6253 13.4975V7.08087C13.6253 6.8417 13.8237 6.64337 14.0628 6.64337C14.302 6.64337 14.5003 6.8417 14.5003 7.08087V13.4975C14.5003 14.215 14.2203 14.7925 13.7362 15.0784C13.5203 15.2067 13.2753 15.2709 13.0128 15.2709Z" fill="#242423"/>
<path id="Vector_3" d="M3.9375 14.075C3.69833 14.075 3.5 13.8767 3.5 13.6375V5.41835C3.5 3.93669 4.7075 2.72919 6.18917 2.72919H11.8183C12.6292 2.72919 13.3933 3.09085 13.9067 3.72669C14.0583 3.91335 14.0292 4.18752 13.8425 4.34502C13.6558 4.49669 13.3817 4.46752 13.23 4.28085C12.88 3.84919 12.3667 3.60419 11.8183 3.60419H6.18917C5.19167 3.60419 4.375 4.42085 4.375 5.41835V13.6375C4.375 13.8767 4.17667 14.075 3.9375 14.075Z" fill="#242423"/>
</g>
</g>
</g>
</svg>
