<svg width="17" height="17" viewBox="0 0 17 17" fill="none" xmlns="http://www.w3.org/2000/svg">
<g id="vuesax/outline/video">
<g id="video">
<path id="Vector" d="M9.09487 14.4055H4.99495C2.59715 14.4055 1.74609 12.7237 1.74609 11.1567V5.68563C1.74609 3.34861 2.65794 2.43677 4.99495 2.43677H9.09487C11.4319 2.43677 12.3437 3.34861 12.3437 5.68563V11.1567C12.3437 13.4937 11.4319 14.4055 9.09487 14.4055ZM4.99495 3.46343C3.23206 3.46343 2.77276 3.92273 2.77276 5.68563V11.1567C2.77276 11.9875 3.0632 13.3789 4.99495 13.3789H9.09487C10.8578 13.3789 11.3171 12.9196 11.3171 11.1567V5.68563C11.3171 3.92273 10.8578 3.46343 9.09487 3.46343H4.99495Z" fill="#242423"/>
<path id="Vector_2" d="M14.4312 12.5481C14.1408 12.5481 13.7693 12.4535 13.3438 12.1563L11.5404 10.8932C11.4053 10.7987 11.3242 10.6433 11.3242 10.4745V6.36779C11.3242 6.19893 11.4053 6.04358 11.5404 5.94902L13.3438 4.68595C14.1476 4.12533 14.7352 4.28744 15.0121 4.42928C15.289 4.57788 15.7618 4.96288 15.7618 5.94226V10.8932C15.7618 11.8726 15.289 12.2644 15.0121 12.4062C14.8838 12.4805 14.6811 12.5481 14.4312 12.5481ZM12.3441 10.2043L13.9314 11.312C14.2354 11.5214 14.4515 11.5416 14.5393 11.4944C14.6339 11.4471 14.7352 11.258 14.7352 10.8932V5.94902C14.7352 5.57753 14.6271 5.39516 14.5393 5.34788C14.4515 5.3006 14.2354 5.32086 13.9314 5.53024L12.3441 6.63796V10.2043Z" fill="#242423"/>
<path id="Vector_3" d="M8.16329 8.25224C7.32575 8.25224 6.64355 7.57005 6.64355 6.73251C6.64355 5.89496 7.32575 5.21277 8.16329 5.21277C9.00084 5.21277 9.68303 5.89496 9.68303 6.73251C9.68303 7.57005 9.00084 8.25224 8.16329 8.25224ZM8.16329 6.22593C7.88636 6.22593 7.65671 6.45558 7.65671 6.73251C7.65671 7.00944 7.88636 7.23908 8.16329 7.23908C8.44022 7.23908 8.66987 7.00944 8.66987 6.73251C8.66987 6.45558 8.44022 6.22593 8.16329 6.22593Z" fill="#242423"/>
</g>
</g>
</svg>
