<svg width="24" height="24" viewBox="0 0 24 24" fill="none" xmlns="http://www.w3.org/2000/svg">
<g id="video-circle">
<g id="vuesax/outline/video-circle">
<g id="video-circle_2">
<path id="Vector" d="M11.1729 14.9133C10.8929 14.9133 10.6329 14.8467 10.3996 14.7133C9.86624 14.4067 9.55957 13.78 9.55957 12.9867V11.0133C9.55957 10.2267 9.86624 9.59334 10.3996 9.28667C10.9329 8.98001 11.6262 9.02667 12.3129 9.42667L14.0262 10.4133C14.7062 10.8067 15.0996 11.3867 15.0996 12C15.0996 12.6133 14.7062 13.1933 14.0262 13.5867L12.3129 14.5733C11.9262 14.8 11.5329 14.9133 11.1729 14.9133ZM11.1796 10.0867C11.0729 10.0867 10.9796 10.1067 10.9062 10.1533C10.6929 10.28 10.5662 10.5933 10.5662 11.0133V12.9867C10.5662 13.4067 10.6862 13.72 10.9062 13.8467C11.1196 13.9733 11.4529 13.92 11.8196 13.7067L13.5329 12.72C13.8996 12.5067 14.1062 12.2467 14.1062 12C14.1062 11.7533 13.8996 11.4867 13.5329 11.28L11.8196 10.2933C11.5796 10.1533 11.3596 10.0867 11.1796 10.0867Z" fill="#242423"/>
<path id="Vector_2" d="M11.9997 19.1667C8.04634 19.1667 4.83301 15.9533 4.83301 12C4.83301 8.04666 8.04634 4.83333 11.9997 4.83333C15.953 4.83333 19.1663 8.04666 19.1663 12C19.1663 15.9533 15.953 19.1667 11.9997 19.1667ZM11.9997 5.83333C8.59967 5.83333 5.83301 8.59999 5.83301 12C5.83301 15.4 8.59967 18.1667 11.9997 18.1667C15.3997 18.1667 18.1663 15.4 18.1663 12C18.1663 8.59999 15.3997 5.83333 11.9997 5.83333Z" fill="#242423"/>
</g>
</g>
</g>
</svg>
