<svg width="24" height="24" viewBox="0 0 24 24" fill="none" xmlns="http://www.w3.org/2000/svg">
<g id="voice-cricle">
<g id="vuesax/outline/voice-cricle">
<g id="voice-cricle_2">
<path id="Vector" d="M8 13.9267C7.72667 13.9267 7.5 13.7 7.5 13.4267V10.5667C7.5 10.2933 7.72667 10.0667 8 10.0667C8.27333 10.0667 8.5 10.2933 8.5 10.5667V13.4267C8.5 13.7067 8.27333 13.9267 8 13.9267Z" fill="#242423"/>
<path id="Vector_2" d="M10 14.88C9.72667 14.88 9.5 14.6533 9.5 14.38V9.61995C9.5 9.34662 9.72667 9.11995 10 9.11995C10.2733 9.11995 10.5 9.34662 10.5 9.61995V14.38C10.5 14.66 10.2733 14.88 10 14.88Z" fill="#242423"/>
<path id="Vector_3" d="M12 15.8333C11.7267 15.8333 11.5 15.6067 11.5 15.3333V8.66667C11.5 8.39334 11.7267 8.16667 12 8.16667C12.2733 8.16667 12.5 8.39334 12.5 8.66667V15.3333C12.5 15.6067 12.2733 15.8333 12 15.8333Z" fill="#242423"/>
<path id="Vector_4" d="M14 14.88C13.7267 14.88 13.5 14.6533 13.5 14.38V9.61995C13.5 9.34662 13.7267 9.11995 14 9.11995C14.2733 9.11995 14.5 9.34662 14.5 9.61995V14.38C14.5 14.66 14.2733 14.88 14 14.88Z" fill="#242423"/>
<path id="Vector_5" d="M16 13.9267C15.7267 13.9267 15.5 13.7 15.5 13.4267V10.5667C15.5 10.2933 15.7267 10.0667 16 10.0667C16.2733 10.0667 16.5 10.2933 16.5 10.5667V13.4267C16.5 13.7067 16.2733 13.9267 16 13.9267Z" fill="#242423"/>
<path id="Vector_6" d="M11.9997 19.1667C8.04634 19.1667 4.83301 15.9533 4.83301 12C4.83301 8.04668 8.04634 4.83334 11.9997 4.83334C15.953 4.83334 19.1663 8.04668 19.1663 12C19.1663 15.9533 15.953 19.1667 11.9997 19.1667ZM11.9997 5.83334C8.59967 5.83334 5.83301 8.60001 5.83301 12C5.83301 15.4 8.59967 18.1667 11.9997 18.1667C15.3997 18.1667 18.1663 15.4 18.1663 12C18.1663 8.60001 15.3997 5.83334 11.9997 5.83334Z" fill="#242423"/>
</g>
</g>
</g>
</svg>
